<?xml version="1.0" encoding="UTF-8" standalone="no"?>
<!DOCTYPE svg PUBLIC "-//W3C//DTD SVG 1.1//EN" "http://www.w3.org/Graphics/SVG/1.1/DTD/svg11.dtd">
<!-- Generated by graphviz version 2.40.1 (20161225.0304)
 -->
<!-- Title: G Pages: 1 -->
<svg width="242pt" height="98pt" viewBox="0.00 0.00 242.00 98.00" xmlns="http://www.w3.org/2000/svg" xmlns:xlink="http://www.w3.org/1999/xlink">
<g id="graph0" class="graph" transform="scale(1 1) rotate(0) translate(4 94)">
<title>G</title>
<polygon fill="#ffffff" stroke="transparent" points="-4,4 -4,-94 238,-94 238,4 -4,4"/>
<!-- s -->
<g id="node1" class="node">
<title>s</title>
<ellipse fill="#ff0000" stroke="#ff0000" cx="117" cy="-45" rx="27" ry="18"/>
<text text-anchor="middle" x="117" y="-40.8" font-family="Times,serif" font-size="14.00" fill="#000000">s</text>
</g>
<!-- s_prime_1 -->
<g id="node2" class="node">
<title>s_prime_1</title>
<ellipse fill="#a52a2a" stroke="#a52a2a" cx="207" cy="-72" rx="27" ry="18"/>
<text text-anchor="middle" x="207" y="-67.8" font-family="Times,serif" font-size="14.00" fill="#000000">s'1</text>
</g>
<!-- s&#45;&gt;s_prime_1 -->
<g id="edge1" class="edge">
<title>s-&gt;s_prime_1</title>
<path fill="none" stroke="#000000" d="M142.07,-52.521C151.5102,-55.3531 162.4169,-58.6251 172.564,-61.6692"/>
<polygon fill="#000000" stroke="#000000" points="171.7915,-65.0915 182.3755,-64.6126 173.803,-58.3867 171.7915,-65.0915"/>
</g>
<!-- s_prime_2 -->
<g id="node3" class="node">
<title>s_prime_2</title>
<ellipse fill="#a52a2a" stroke="#a52a2a" cx="207" cy="-18" rx="27" ry="18"/>
<text text-anchor="middle" x="207" y="-13.8" font-family="Times,serif" font-size="14.00" fill="#000000">s'2</text>
</g>
<!-- s&#45;&gt;s_prime_2 -->
<g id="edge2" class="edge">
<title>s-&gt;s_prime_2</title>
<path fill="none" stroke="#000000" d="M142.07,-37.479C151.5102,-34.6469 162.4169,-31.3749 172.564,-28.3308"/>
<polygon fill="#000000" stroke="#000000" points="173.803,-31.6133 182.3755,-25.3874 171.7915,-24.9085 173.803,-31.6133"/>
</g>
<!-- p1 -->
<g id="node4" class="node">
<title>p1</title>
<ellipse fill="#c0c0c0" stroke="#c0c0c0" cx="27" cy="-72" rx="27" ry="18"/>
<text text-anchor="middle" x="27" y="-67.8" font-family="Times,serif" font-size="14.00" fill="#000000">p1</text>
</g>
<!-- p1&#45;&gt;s -->
<g id="edge3" class="edge">
<title>p1-&gt;s</title>
<path fill="none" stroke="#000000" d="M52.07,-64.479C61.5102,-61.6469 72.4169,-58.3749 82.564,-55.3308"/>
<polygon fill="#000000" stroke="#000000" points="83.803,-58.6133 92.3755,-52.3874 81.7915,-51.9085 83.803,-58.6133"/>
</g>
<!-- p2 -->
<g id="node5" class="node">
<title>p2</title>
<ellipse fill="#c0c0c0" stroke="#c0c0c0" cx="27" cy="-18" rx="27" ry="18"/>
<text text-anchor="middle" x="27" y="-13.8" font-family="Times,serif" font-size="14.00" fill="#000000">p2</text>
</g>
<!-- p2&#45;&gt;s -->
<g id="edge4" class="edge">
<title>p2-&gt;s</title>
<path fill="none" stroke="#000000" d="M52.07,-25.521C61.5102,-28.3531 72.4169,-31.6251 82.564,-34.6692"/>
<polygon fill="#000000" stroke="#000000" points="81.7915,-38.0915 92.3755,-37.6126 83.803,-31.3867 81.7915,-38.0915"/>
</g>
</g>
</svg>