<?xml version="1.0" encoding="UTF-8" standalone="no"?>
<!DOCTYPE svg PUBLIC "-//W3C//DTD SVG 1.1//EN" "http://www.w3.org/Graphics/SVG/1.1/DTD/svg11.dtd">
<!-- Generated by graphviz version 2.40.1 (20161225.0304)
 -->
<!-- Title: G Pages: 1 -->
<svg width="1080pt" height="404pt" viewBox="0.00 0.00 1080.17 404.00" xmlns="http://www.w3.org/2000/svg" xmlns:xlink="http://www.w3.org/1999/xlink">
<g id="graph0" class="graph" transform="scale(1 1) rotate(0) translate(4 400)">
<title>G</title>
<polygon fill="#ffffff" stroke="transparent" points="-4,4 -4,-400 1076.1746,-400 1076.1746,4 -4,4"/>
<!-- 1*24 -->
<g id="node1" class="node">
<title>1*24</title>
<ellipse fill="#ff0000" stroke="#ff0000" cx="148.054" cy="-18" rx="30.2015" ry="18"/>
<text text-anchor="middle" x="148.054" y="-13.8" font-family="Times,serif" font-size="14.00" fill="#000000">1*24</text>
</g>
<!-- [1, 2, 3, 4] -->
<g id="node2" class="node">
<title>[1, 2, 3, 4]</title>
<ellipse fill="none" stroke="#000000" cx="606.054" cy="-378" rx="51.0319" ry="18"/>
<text text-anchor="middle" x="606.054" y="-373.8" font-family="Times,serif" font-size="14.00" fill="#000000">[1, 2, 3, 4]</text>
</g>
<!-- [1, 2, 3+4] -->
<g id="node3" class="node">
<title>[1, 2, 3+4]</title>
<ellipse fill="none" stroke="#000000" cx="190.054" cy="-306" rx="51.7652" ry="18"/>
<text text-anchor="middle" x="190.054" y="-301.8" font-family="Times,serif" font-size="14.00" fill="#000000">[1, 2, 3+4]</text>
</g>
<!-- [1, 2, 3, 4]&#45;&gt;[1, 2, 3+4] -->
<g id="edge1" class="edge">
<title>[1, 2, 3, 4]-&gt;[1, 2, 3+4]</title>
<path fill="none" stroke="#000000" d="M556.8541,-372.6611C487.9619,-364.7003 359.0674,-348.0345 251.054,-324 246.9314,-323.0827 242.6789,-322.0376 238.4274,-320.9235"/>
<polygon fill="#000000" stroke="#000000" points="239.1399,-317.4898 228.5707,-318.2261 237.2922,-324.2416 239.1399,-317.4898"/>
</g>
<!-- [1, 2, 3&#45;4] -->
<g id="node4" class="node">
<title>[1, 2, 3-4]</title>
<ellipse fill="none" stroke="#000000" cx="310.054" cy="-306" rx="49.8039" ry="18"/>
<text text-anchor="middle" x="310.054" y="-301.8" font-family="Times,serif" font-size="14.00" fill="#000000">[1, 2, 3-4]</text>
</g>
<!-- [1, 2, 3, 4]&#45;&gt;[1, 2, 3&#45;4] -->
<g id="edge2" class="edge">
<title>[1, 2, 3, 4]-&gt;[1, 2, 3-4]</title>
<path fill="none" stroke="#000000" d="M561.7037,-368.8937C513.9115,-358.8485 435.7314,-341.7426 369.054,-324 365.2621,-322.991 361.3469,-321.9021 357.4216,-320.7768"/>
<polygon fill="#000000" stroke="#000000" points="358.2882,-317.3836 347.7074,-317.9295 356.3192,-324.101 358.2882,-317.3836"/>
</g>
<!-- [1, 2, 3*4] -->
<g id="node5" class="node">
<title>[1, 2, 3*4]</title>
<ellipse fill="none" stroke="#000000" cx="429.054" cy="-306" rx="51.0319" ry="18"/>
<text text-anchor="middle" x="429.054" y="-301.8" font-family="Times,serif" font-size="14.00" fill="#000000">[1, 2, 3*4]</text>
</g>
<!-- [1, 2, 3, 4]&#45;&gt;[1, 2, 3*4] -->
<g id="edge3" class="edge">
<title>[1, 2, 3, 4]-&gt;[1, 2, 3*4]</title>
<path fill="none" stroke="#000000" d="M572.345,-364.2879C543.9257,-352.7275 503.0788,-336.1118 472.262,-323.5761"/>
<polygon fill="#000000" stroke="#000000" points="473.2193,-320.1871 462.6375,-319.6611 470.5816,-326.6711 473.2193,-320.1871"/>
</g>
<!-- [1, 2, 3/4] -->
<g id="node6" class="node">
<title>[1, 2, 3/4]</title>
<ellipse fill="none" stroke="#000000" cx="547.054" cy="-306" rx="49.2415" ry="18"/>
<text text-anchor="middle" x="547.054" y="-301.8" font-family="Times,serif" font-size="14.00" fill="#000000">[1, 2, 3/4]</text>
</g>
<!-- [1, 2, 3, 4]&#45;&gt;[1, 2, 3/4] -->
<g id="edge4" class="edge">
<title>[1, 2, 3, 4]-&gt;[1, 2, 3/4]</title>
<path fill="none" stroke="#000000" d="M591.7718,-360.5708C584.5247,-351.7269 575.5903,-340.8239 567.6175,-331.0945"/>
<polygon fill="#000000" stroke="#000000" points="570.2502,-328.7851 561.2047,-323.2687 564.8358,-333.2219 570.2502,-328.7851"/>
</g>
<!-- [1, 2, 4+3] -->
<g id="node7" class="node">
<title>[1, 2, 4+3]</title>
<ellipse fill="none" stroke="#000000" cx="666.054" cy="-306" rx="51.7652" ry="18"/>
<text text-anchor="middle" x="666.054" y="-301.8" font-family="Times,serif" font-size="14.00" fill="#000000">[1, 2, 4+3]</text>
</g>
<!-- [1, 2, 3, 4]&#45;&gt;[1, 2, 4+3] -->
<g id="edge5" class="edge">
<title>[1, 2, 3, 4]-&gt;[1, 2, 4+3]</title>
<path fill="none" stroke="#000000" d="M620.5783,-360.5708C627.8941,-351.7919 636.9006,-340.9841 644.963,-331.3093"/>
<polygon fill="#000000" stroke="#000000" points="647.7424,-333.4411 651.4555,-323.5182 642.3648,-328.9598 647.7424,-333.4411"/>
</g>
<!-- [1, 2, 4&#45;3] -->
<g id="node8" class="node">
<title>[1, 2, 4-3]</title>
<ellipse fill="none" stroke="#000000" cx="786.054" cy="-306" rx="49.8039" ry="18"/>
<text text-anchor="middle" x="786.054" y="-301.8" font-family="Times,serif" font-size="14.00" fill="#000000">[1, 2, 4-3]</text>
</g>
<!-- [1, 2, 3, 4]&#45;&gt;[1, 2, 4&#45;3] -->
<g id="edge6" class="edge">
<title>[1, 2, 3, 4]-&gt;[1, 2, 4-3]</title>
<path fill="none" stroke="#000000" d="M639.9106,-364.4574C669.1671,-352.7548 711.6023,-335.7807 743.2165,-323.135"/>
<polygon fill="#000000" stroke="#000000" points="744.6689,-326.3237 752.6538,-319.3601 742.0691,-319.8244 744.6689,-326.3237"/>
</g>
<!-- [1, 2, 4*3] -->
<g id="node9" class="node">
<title>[1, 2, 4*3]</title>
<ellipse fill="none" stroke="#000000" cx="905.054" cy="-306" rx="51.0319" ry="18"/>
<text text-anchor="middle" x="905.054" y="-301.8" font-family="Times,serif" font-size="14.00" fill="#000000">[1, 2, 4*3]</text>
</g>
<!-- [1, 2, 3, 4]&#45;&gt;[1, 2, 4*3] -->
<g id="edge7" class="edge">
<title>[1, 2, 3, 4]-&gt;[1, 2, 4*3]</title>
<path fill="none" stroke="#000000" d="M650.7669,-368.8643C698.9525,-358.7941 777.7841,-341.6673 845.054,-324 848.8506,-323.0029 852.7693,-321.9291 856.7002,-320.8202"/>
<polygon fill="#000000" stroke="#000000" points="857.7946,-324.1473 866.4341,-318.0147 855.8559,-317.4211 857.7946,-324.1473"/>
</g>
<!-- [1, 2, 4/3] -->
<g id="node10" class="node">
<title>[1, 2, 4/3]</title>
<ellipse fill="none" stroke="#000000" cx="1023.054" cy="-306" rx="49.2415" ry="18"/>
<text text-anchor="middle" x="1023.054" y="-301.8" font-family="Times,serif" font-size="14.00" fill="#000000">[1, 2, 4/3]</text>
</g>
<!-- [1, 2, 3, 4]&#45;&gt;[1, 2, 4/3] -->
<g id="edge8" class="edge">
<title>[1, 2, 3, 4]-&gt;[1, 2, 4/3]</title>
<path fill="none" stroke="#000000" d="M655.5646,-372.9578C725.2193,-365.3209 855.8492,-349.0069 965.054,-324 968.9321,-323.112 972.927,-322.0946 976.9201,-321.0054"/>
<polygon fill="#000000" stroke="#000000" points="978.1251,-324.3011 986.7746,-318.1826 976.1974,-317.5718 978.1251,-324.3011"/>
</g>
<!-- [1, 2, 12] -->
<g id="node11" class="node">
<title>[1, 2, 12]</title>
<ellipse fill="none" stroke="#000000" cx="429.054" cy="-234" rx="46.374" ry="18"/>
<text text-anchor="middle" x="429.054" y="-229.8" font-family="Times,serif" font-size="14.00" fill="#000000">[1, 2, 12]</text>
</g>
<!-- [1, 2, 3*4]&#45;&gt;[1, 2, 12] -->
<g id="edge9" class="edge">
<title>[1, 2, 3*4]-&gt;[1, 2, 12]</title>
<path fill="none" stroke="#000000" d="M429.054,-287.8314C429.054,-277 429.054,-263.2876 429.054,-252.4133"/>
</g>
<!-- [1, 2+12] -->
<g id="node12" class="node">
<title>[1, 2+12]</title>
<ellipse fill="none" stroke="#000000" cx="47.054" cy="-162" rx="47.1081" ry="18"/>
<text text-anchor="middle" x="47.054" y="-157.8" font-family="Times,serif" font-size="14.00" fill="#000000">[1, 2+12]</text>
</g>
<!-- [1, 2, 12]&#45;&gt;[1, 2+12] -->
<g id="edge10" class="edge">
<title>[1, 2, 12]-&gt;[1, 2+12]</title>
<path fill="none" stroke="#000000" d="M384.6108,-228.7423C321.4746,-220.7987 202.4409,-204.0664 103.054,-180 99.4158,-179.119 95.6713,-178.1213 91.9256,-177.0582"/>
<polygon fill="#000000" stroke="#000000" points="92.6626,-173.6259 82.0797,-174.1274 90.6655,-180.335 92.6626,-173.6259"/>
</g>
<!-- [1, 2&#45;12] -->
<g id="node13" class="node">
<title>[1, 2-12]</title>
<ellipse fill="none" stroke="#000000" cx="157.054" cy="-162" rx="44.6472" ry="18"/>
<text text-anchor="middle" x="157.054" y="-157.8" font-family="Times,serif" font-size="14.00" fill="#000000">[1, 2-12]</text>
</g>
<!-- [1, 2, 12]&#45;&gt;[1, 2&#45;12] -->
<g id="edge11" class="edge">
<title>[1, 2, 12]-&gt;[1, 2-12]</title>
<path fill="none" stroke="#000000" d="M388.621,-224.9916C344.663,-214.964 272.4685,-197.812 211.054,-180 207.7262,-179.0348 204.297,-177.9964 200.8566,-176.9229"/>
<polygon fill="#000000" stroke="#000000" points="201.797,-173.549 191.2061,-173.8362 199.6645,-180.2163 201.797,-173.549"/>
</g>
<!-- [1, 2*12] -->
<g id="node14" class="node">
<title>[1, 2*12]</title>
<ellipse fill="none" stroke="#000000" cx="266.054" cy="-162" rx="46.374" ry="18"/>
<text text-anchor="middle" x="266.054" y="-157.8" font-family="Times,serif" font-size="14.00" fill="#000000">[1, 2*12]</text>
</g>
<!-- [1, 2, 12]&#45;&gt;[1, 2*12] -->
<g id="edge12" class="edge">
<title>[1, 2, 12]-&gt;[1, 2*12]</title>
<path fill="none" stroke="#000000" d="M398.395,-220.4574C372.2957,-208.9288 334.6148,-192.2845 306.1298,-179.7022"/>
<polygon fill="#000000" stroke="#000000" points="307.4138,-176.4432 296.8523,-175.6041 304.5854,-182.8463 307.4138,-176.4432"/>
</g>
<!-- [1, 2/12] -->
<g id="node15" class="node">
<title>[1, 2/12]</title>
<ellipse fill="none" stroke="#000000" cx="375.054" cy="-162" rx="44.0852" ry="18"/>
<text text-anchor="middle" x="375.054" y="-157.8" font-family="Times,serif" font-size="14.00" fill="#000000">[1, 2/12]</text>
</g>
<!-- [1, 2, 12]&#45;&gt;[1, 2/12] -->
<g id="edge13" class="edge">
<title>[1, 2, 12]-&gt;[1, 2/12]</title>
<path fill="none" stroke="#000000" d="M415.9821,-216.5708C409.4155,-207.8153 401.3353,-197.0418 394.094,-187.3867"/>
<polygon fill="#000000" stroke="#000000" points="396.8056,-185.1687 388.0055,-179.2687 391.2056,-189.3687 396.8056,-185.1687"/>
</g>
<!-- [1, 12+2] -->
<g id="node16" class="node">
<title>[1, 12+2]</title>
<ellipse fill="none" stroke="#000000" cx="484.054" cy="-162" rx="47.1081" ry="18"/>
<text text-anchor="middle" x="484.054" y="-157.8" font-family="Times,serif" font-size="14.00" fill="#000000">[1, 12+2]</text>
</g>
<!-- [1, 2, 12]&#45;&gt;[1, 12+2] -->
<g id="edge14" class="edge">
<title>[1, 2, 12]-&gt;[1, 12+2]</title>
<path fill="none" stroke="#000000" d="M442.368,-216.5708C449.007,-207.8797 457.1651,-197.2001 464.4986,-187.5998"/>
<polygon fill="#000000" stroke="#000000" points="467.3829,-189.5896 470.672,-179.5182 461.8202,-185.3403 467.3829,-189.5896"/>
</g>
<!-- [1, 12&#45;2] -->
<g id="node17" class="node">
<title>[1, 12-2]</title>
<ellipse fill="none" stroke="#000000" cx="594.054" cy="-162" rx="44.6472" ry="18"/>
<text text-anchor="middle" x="594.054" y="-157.8" font-family="Times,serif" font-size="14.00" fill="#000000">[1, 12-2]</text>
</g>
<!-- [1, 2, 12]&#45;&gt;[1, 12&#45;2] -->
<g id="edge15" class="edge">
<title>[1, 2, 12]-&gt;[1, 12-2]</title>
<path fill="none" stroke="#000000" d="M460.0893,-220.4574C486.6765,-208.8557 525.1369,-192.0729 554.0346,-179.463"/>
<polygon fill="#000000" stroke="#000000" points="555.6715,-182.5675 563.4371,-175.3601 552.8719,-176.1517 555.6715,-182.5675"/>
</g>
<!-- [1, 12*2] -->
<g id="node18" class="node">
<title>[1, 12*2]</title>
<ellipse fill="none" stroke="#000000" cx="703.054" cy="-162" rx="46.374" ry="18"/>
<text text-anchor="middle" x="703.054" y="-157.8" font-family="Times,serif" font-size="14.00" fill="#000000">[1, 12*2]</text>
</g>
<!-- [1, 2, 12]&#45;&gt;[1, 12*2] -->
<g id="edge16" class="edge">
<title>[1, 2, 12]-&gt;[1, 12*2]</title>
<path fill="none" stroke="#000000" d="M469.6563,-224.9433C513.8021,-214.8745 586.316,-197.6875 648.054,-180 651.3907,-179.0441 654.8284,-178.0183 658.2792,-176.9591"/>
<polygon fill="#000000" stroke="#000000" points="659.4748,-180.2521 667.9655,-173.915 657.3761,-173.5741 659.4748,-180.2521"/>
</g>
<!-- [1, 12/2] -->
<g id="node19" class="node">
<title>[1, 12/2]</title>
<ellipse fill="none" stroke="#000000" cx="812.054" cy="-162" rx="44.0852" ry="18"/>
<text text-anchor="middle" x="812.054" y="-157.8" font-family="Times,serif" font-size="14.00" fill="#000000">[1, 12/2]</text>
</g>
<!-- [1, 2, 12]&#45;&gt;[1, 12/2] -->
<g id="edge17" class="edge">
<title>[1, 2, 12]-&gt;[1, 12/2]</title>
<path fill="none" stroke="#000000" d="M473.6765,-228.9631C537.3701,-221.2583 657.7501,-204.7818 758.054,-180 761.6726,-179.106 765.3972,-178.0846 769.1179,-176.9929"/>
<polygon fill="#000000" stroke="#000000" points="770.3603,-180.2724 778.8825,-173.9777 768.295,-173.584 770.3603,-180.2724"/>
</g>
<!-- [1, 24] -->
<g id="node20" class="node">
<title>[1, 24]</title>
<ellipse fill="none" stroke="#000000" cx="266.054" cy="-90" rx="36.5613" ry="18"/>
<text text-anchor="middle" x="266.054" y="-85.8" font-family="Times,serif" font-size="14.00" fill="#000000">[1, 24]</text>
</g>
<!-- [1, 2*12]&#45;&gt;[1, 24] -->
<g id="edge18" class="edge">
<title>[1, 2*12]-&gt;[1, 24]</title>
<path fill="none" stroke="#000000" d="M266.054,-143.8314C266.054,-133 266.054,-119.2876 266.054,-108.4133"/>
</g>
<!-- [1, 24]&#45;&gt;1*24 -->
<g id="edge21" class="edge">
<title>[1, 24]-&gt;1*24</title>
<path fill="none" stroke="#000000" d="M243.0223,-75.9468C224.5265,-64.6612 198.4048,-48.7225 178.2373,-36.4169"/>
<polygon fill="#000000" stroke="#000000" points="179.7984,-33.2694 169.439,-31.0484 176.1523,-39.2449 179.7984,-33.2694"/>
</g>
<!-- 1+24 -->
<g id="node21" class="node">
<title>1+24</title>
<ellipse fill="none" stroke="#000000" cx="227.054" cy="-18" rx="30.935" ry="18"/>
<text text-anchor="middle" x="227.054" y="-13.8" font-family="Times,serif" font-size="14.00" fill="#000000">1+24</text>
</g>
<!-- [1, 24]&#45;&gt;1+24 -->
<g id="edge19" class="edge">
<title>[1, 24]-&gt;1+24</title>
<path fill="none" stroke="#000000" d="M256.6132,-72.5708C252.0144,-64.0807 246.3876,-53.6929 241.2822,-44.2674"/>
<polygon fill="#000000" stroke="#000000" points="244.2483,-42.3946 236.4079,-35.2687 238.0932,-45.7286 244.2483,-42.3946"/>
</g>
<!-- 1&#45;24 -->
<g id="node22" class="node">
<title>1-24</title>
<ellipse fill="none" stroke="#000000" cx="305.054" cy="-18" rx="28.9754" ry="18"/>
<text text-anchor="middle" x="305.054" y="-13.8" font-family="Times,serif" font-size="14.00" fill="#000000">1-24</text>
</g>
<!-- [1, 24]&#45;&gt;1&#45;24 -->
<g id="edge20" class="edge">
<title>[1, 24]-&gt;1-24</title>
<path fill="none" stroke="#000000" d="M275.4948,-72.5708C280.0937,-64.0807 285.7204,-53.6929 290.8258,-44.2674"/>
<polygon fill="#000000" stroke="#000000" points="294.0148,-45.7286 295.7001,-35.2687 287.8597,-42.3946 294.0148,-45.7286"/>
</g>
<!-- 1/24 -->
<g id="node23" class="node">
<title>1/24</title>
<ellipse fill="none" stroke="#000000" cx="380.054" cy="-18" rx="28.4127" ry="18"/>
<text text-anchor="middle" x="380.054" y="-13.8" font-family="Times,serif" font-size="14.00" fill="#000000">1/24</text>
</g>
<!-- [1, 24]&#45;&gt;1/24 -->
<g id="edge22" class="edge">
<title>[1, 24]-&gt;1/24</title>
<path fill="none" stroke="#000000" d="M288.8496,-75.6028C306.7995,-64.266 331.9306,-48.3938 351.2682,-36.1805"/>
<polygon fill="#000000" stroke="#000000" points="353.3823,-38.9849 359.9682,-30.6858 349.6443,-33.0665 353.3823,-38.9849"/>
</g>
</g>
</svg>