<?xml version="1.0" encoding="UTF-8" standalone="no"?>
<!DOCTYPE svg PUBLIC "-//W3C//DTD SVG 1.1//EN"
 "http://www.w3.org/Graphics/SVG/1.1/DTD/svg11.dtd">
<!-- Generated by graphviz version 2.44.0 (20200408.0750)
 -->
<!-- Title: G Pages: 1 -->
<svg width="590pt" height="260pt"
 viewBox="0.00 0.00 590.19 260.00" xmlns="http://www.w3.org/2000/svg" xmlns:xlink="http://www.w3.org/1999/xlink">
<g id="graph0" class="graph" transform="scale(1 1) rotate(0) translate(4 256)">
<title>G</title>
<polygon fill="white" stroke="transparent" points="-4,4 -4,-256 586.19,-256 586.19,4 -4,4"/>
<!-- [4] -->
<g id="node1" class="node">
<title>[4]</title>
<ellipse fill="none" stroke="black" cx="28.6" cy="-18" rx="28.7" ry="18"/>
<text text-anchor="middle" x="28.6" y="-14.3" font-family="Times,serif" font-size="14.00">[3&#45;3]</text>
</g>
<!-- [3] -->
<g id="node2" class="node">
<title>[3]</title>
<ellipse fill="none" stroke="black" cx="103.6" cy="-90" rx="28.7" ry="18"/>
<text text-anchor="middle" x="103.6" y="-86.3" font-family="Times,serif" font-size="14.00">[2&#45;3]</text>
</g>
<!-- [3]&#45;&gt;[4] -->
<g id="edge1" class="edge">
<title>[3]&#45;&gt;[4]</title>
<path fill="none" stroke="black" d="M88.06,-74.5C77.43,-64.58 63.16,-51.26 51.27,-40.16"/>
<polygon fill="black" stroke="black" points="53.56,-37.51 43.86,-33.25 48.78,-42.63 53.56,-37.51"/>
</g>
<!-- [5] -->
<g id="node3" class="node">
<title>[5]</title>
<ellipse fill="none" stroke="black" cx="103.6" cy="-18" rx="28.7" ry="18"/>
<text text-anchor="middle" x="103.6" y="-14.3" font-family="Times,serif" font-size="14.00">[2&#45;2]</text>
</g>
<!-- [3]&#45;&gt;[5] -->
<g id="edge2" class="edge">
<title>[3]&#45;&gt;[5]</title>
<path fill="none" stroke="black" d="M103.6,-71.7C103.6,-63.98 103.6,-54.71 103.6,-46.11"/>
<polygon fill="black" stroke="black" points="107.1,-46.1 103.6,-36.1 100.1,-46.1 107.1,-46.1"/>
</g>
<!-- [2] -->
<g id="node4" class="node">
<title>[2]</title>
<ellipse fill="none" stroke="black" cx="215.6" cy="-162" rx="28.7" ry="18"/>
<text text-anchor="middle" x="215.6" y="-158.3" font-family="Times,serif" font-size="14.00">[1&#45;3]</text>
</g>
<!-- [2]&#45;&gt;[3] -->
<g id="edge3" class="edge">
<title>[2]&#45;&gt;[3]</title>
<path fill="none" stroke="black" d="M196.09,-148.81C178.37,-137.73 152.02,-121.26 131.97,-108.73"/>
<polygon fill="black" stroke="black" points="133.59,-105.62 123.26,-103.29 129.88,-111.56 133.59,-105.62"/>
</g>
<!-- [6] -->
<g id="node6" class="node">
<title>[6]</title>
<ellipse fill="none" stroke="black" cx="215.6" cy="-90" rx="28.7" ry="18"/>
<text text-anchor="middle" x="215.6" y="-86.3" font-family="Times,serif" font-size="14.00">[1&#45;2]</text>
</g>
<!-- [2]&#45;&gt;[6] -->
<g id="edge6" class="edge">
<title>[2]&#45;&gt;[6]</title>
<path fill="none" stroke="black" d="M215.6,-143.7C215.6,-135.98 215.6,-126.71 215.6,-118.11"/>
<polygon fill="black" stroke="black" points="219.1,-118.1 215.6,-108.1 212.1,-118.1 219.1,-118.1"/>
</g>
<!-- [7] -->
<g id="node5" class="node">
<title>[7]</title>
<ellipse fill="lightgreen" stroke="black" cx="178.6" cy="-18" rx="28.7" ry="18"/>
<text text-anchor="middle" x="178.6" y="-14.3" font-family="Times,serif" font-size="14.00">[2&#45;2]</text>
</g>
<!-- [6]&#45;&gt;[7] -->
<g id="edge4" class="edge">
<title>[6]&#45;&gt;[7]</title>
<path fill="none" stroke="black" d="M207.02,-72.76C202.6,-64.4 197.11,-54.02 192.13,-44.61"/>
<polygon fill="black" stroke="black" points="195.16,-42.84 187.39,-35.63 188.97,-46.11 195.16,-42.84"/>
</g>
<!-- [8] -->
<g id="node7" class="node">
<title>[8]</title>
<ellipse fill="none" stroke="black" cx="253.6" cy="-18" rx="28.7" ry="18"/>
<text text-anchor="middle" x="253.6" y="-14.3" font-family="Times,serif" font-size="14.00">[1&#45;1]</text>
</g>
<!-- [6]&#45;&gt;[8] -->
<g id="edge5" class="edge">
<title>[6]&#45;&gt;[8]</title>
<path fill="none" stroke="black" d="M224.41,-72.76C229.02,-64.28 234.75,-53.71 239.92,-44.2"/>
<polygon fill="black" stroke="black" points="243.14,-45.61 244.83,-35.15 236.98,-42.27 243.14,-45.61"/>
</g>
<!-- [1] -->
<g id="node8" class="node">
<title>[1]</title>
<ellipse fill="none" stroke="black" cx="290.6" cy="-234" rx="28.7" ry="18"/>
<text text-anchor="middle" x="290.6" y="-230.3" font-family="Times,serif" font-size="14.00">[0&#45;3]</text>
</g>
<!-- [1]&#45;&gt;[2] -->
<g id="edge7" class="edge">
<title>[1]&#45;&gt;[2]</title>
<path fill="none" stroke="black" d="M275.06,-218.5C264.43,-208.58 250.16,-195.26 238.27,-184.16"/>
<polygon fill="black" stroke="black" points="240.56,-181.51 230.86,-177.25 235.78,-186.63 240.56,-181.51"/>
</g>
<!-- [9] -->
<g id="node12" class="node">
<title>[9]</title>
<ellipse fill="none" stroke="black" cx="365.6" cy="-162" rx="28.7" ry="18"/>
<text text-anchor="middle" x="365.6" y="-158.3" font-family="Times,serif" font-size="14.00">[0&#45;2]</text>
</g>
<!-- [1]&#45;&gt;[9] -->
<g id="edge14" class="edge">
<title>[1]&#45;&gt;[9]</title>
<path fill="none" stroke="black" d="M306.14,-218.5C316.77,-208.58 331.03,-195.26 342.92,-184.16"/>
<polygon fill="black" stroke="black" points="345.41,-186.63 350.33,-177.25 340.64,-181.51 345.41,-186.63"/>
</g>
<!-- [11] -->
<g id="node9" class="node">
<title>[11]</title>
<ellipse fill="lightgreen" stroke="black" cx="328.6" cy="-18" rx="28.7" ry="18"/>
<text text-anchor="middle" x="328.6" y="-14.3" font-family="Times,serif" font-size="14.00">[2&#45;2]</text>
</g>
<!-- [10] -->
<g id="node10" class="node">
<title>[10]</title>
<ellipse fill="lightgreen" stroke="black" cx="365.6" cy="-90" rx="28.7" ry="18"/>
<text text-anchor="middle" x="365.6" y="-86.3" font-family="Times,serif" font-size="14.00">[1&#45;2]</text>
</g>
<!-- [10]&#45;&gt;[11] -->
<g id="edge8" class="edge">
<title>[10]&#45;&gt;[11]</title>
<path fill="none" stroke="black" d="M357.02,-72.76C352.6,-64.4 347.11,-54.02 342.13,-44.61"/>
<polygon fill="black" stroke="black" points="345.16,-42.84 337.39,-35.63 338.97,-46.11 345.16,-42.84"/>
</g>
<!-- [12] -->
<g id="node11" class="node">
<title>[12]</title>
<ellipse fill="lightgreen" stroke="black" cx="403.6" cy="-18" rx="28.7" ry="18"/>
<text text-anchor="middle" x="403.6" y="-14.3" font-family="Times,serif" font-size="14.00">[1&#45;1]</text>
</g>
<!-- [10]&#45;&gt;[12] -->
<g id="edge9" class="edge">
<title>[10]&#45;&gt;[12]</title>
<path fill="none" stroke="black" d="M374.41,-72.76C379.02,-64.28 384.75,-53.71 389.92,-44.2"/>
<polygon fill="black" stroke="black" points="393.14,-45.61 394.83,-35.15 386.98,-42.27 393.14,-45.61"/>
</g>
<!-- [9]&#45;&gt;[10] -->
<g id="edge10" class="edge">
<title>[9]&#45;&gt;[10]</title>
<path fill="none" stroke="black" d="M365.6,-143.7C365.6,-135.98 365.6,-126.71 365.6,-118.11"/>
<polygon fill="black" stroke="black" points="369.1,-118.1 365.6,-108.1 362.1,-118.1 369.1,-118.1"/>
</g>
<!-- [13] -->
<g id="node14" class="node">
<title>[13]</title>
<ellipse fill="none" stroke="black" cx="478.6" cy="-90" rx="28.7" ry="18"/>
<text text-anchor="middle" x="478.6" y="-86.3" font-family="Times,serif" font-size="14.00">[0&#45;1]</text>
</g>
<!-- [9]&#45;&gt;[13] -->
<g id="edge13" class="edge">
<title>[9]&#45;&gt;[13]</title>
<path fill="none" stroke="black" d="M385.28,-148.81C403.24,-137.68 429.98,-121.12 450.24,-108.57"/>
<polygon fill="black" stroke="black" points="452.1,-111.53 458.76,-103.29 448.42,-105.58 452.1,-111.53"/>
</g>
<!-- [14] -->
<g id="node13" class="node">
<title>[14]</title>
<ellipse fill="lightgreen" stroke="black" cx="478.6" cy="-18" rx="28.7" ry="18"/>
<text text-anchor="middle" x="478.6" y="-14.3" font-family="Times,serif" font-size="14.00">[1&#45;1]</text>
</g>
<!-- [13]&#45;&gt;[14] -->
<g id="edge11" class="edge">
<title>[13]&#45;&gt;[14]</title>
<path fill="none" stroke="black" d="M478.6,-71.7C478.6,-63.98 478.6,-54.71 478.6,-46.11"/>
<polygon fill="black" stroke="black" points="482.1,-46.1 478.6,-36.1 475.1,-46.1 482.1,-46.1"/>
</g>
<!-- [15] -->
<g id="node15" class="node">
<title>[15]</title>
<ellipse fill="none" stroke="black" cx="553.6" cy="-18" rx="28.7" ry="18"/>
<text text-anchor="middle" x="553.6" y="-14.3" font-family="Times,serif" font-size="14.00">[0&#45;0]</text>
</g>
<!-- [13]&#45;&gt;[15] -->
<g id="edge12" class="edge">
<title>[13]&#45;&gt;[15]</title>
<path fill="none" stroke="black" d="M494.14,-74.5C504.77,-64.58 519.03,-51.26 530.92,-40.16"/>
<polygon fill="black" stroke="black" points="533.41,-42.63 538.33,-33.25 528.64,-37.51 533.41,-42.63"/>
</g>
</g>
</svg>
