<?xml version="1.0" encoding="UTF-8" standalone="no"?>
<!DOCTYPE svg PUBLIC "-//W3C//DTD SVG 1.1//EN"
 "http://www.w3.org/Graphics/SVG/1.1/DTD/svg11.dtd">
<!-- Generated by graphviz version 2.44.0 (20200408.0750)
 -->
<!-- Title: G Pages: 1 -->
<svg width="790pt" height="348pt"
 viewBox="0.00 0.00 790.00 348.00" xmlns="http://www.w3.org/2000/svg" xmlns:xlink="http://www.w3.org/1999/xlink">
<g id="graph0" class="graph" transform="scale(1 1) rotate(0) translate(4 344)">
<title>G</title>
<polygon fill="white" stroke="transparent" points="-4,4 -4,-344 786,-344 786,4 -4,4"/>
<g id="clust1" class="cluster">
<title>cluster_3</title>
<polygon fill="lightgrey" stroke="lightgrey" points="8,-8 8,-83 774,-83 774,-8 8,-8"/>
<text text-anchor="middle" x="28" y="-67.8" font-family="Times,serif" font-size="14.00">Min</text>
</g>
<g id="clust2" class="cluster">
<title>cluster_2</title>
<polygon fill="lightgreen" stroke="lightgreen" points="207,-91 207,-166 578,-166 578,-91 207,-91"/>
<text text-anchor="middle" x="228" y="-150.8" font-family="Times,serif" font-size="14.00">Max</text>
</g>
<g id="clust3" class="cluster">
<title>cluster_1</title>
<polygon fill="lightgrey" stroke="lightgrey" points="300,-174 300,-249 485,-249 485,-174 300,-174"/>
<text text-anchor="middle" x="320" y="-233.8" font-family="Times,serif" font-size="14.00">Min</text>
</g>
<g id="clust4" class="cluster">
<title>cluster_0</title>
<polygon fill="lightgreen" stroke="lightgreen" points="346,-257 346,-332 438,-332 438,-257 346,-257"/>
<text text-anchor="middle" x="367" y="-316.8" font-family="Times,serif" font-size="14.00">Max</text>
</g>
<!-- [4] -->
<g id="node1" class="node">
<title>[4]</title>
<ellipse fill="none" stroke="black" cx="726" cy="-34" rx="40.09" ry="18"/>
<text text-anchor="middle" x="726" y="-30.3" font-family="Times,serif" font-size="14.00">[3&#45;3]: &#45;2</text>
</g>
<!-- [5] -->
<g id="node2" class="node">
<title>[5]</title>
<ellipse fill="none" stroke="black" cx="630" cy="-34" rx="37.89" ry="18"/>
<text text-anchor="middle" x="630" y="-30.3" font-family="Times,serif" font-size="14.00">[2&#45;2]: 2</text>
</g>
<!-- [7] -->
<g id="node3" class="node">
<title>[7]</title>
<ellipse fill="none" stroke="black" cx="537" cy="-34" rx="37.89" ry="18"/>
<text text-anchor="middle" x="537" y="-30.3" font-family="Times,serif" font-size="14.00">[2&#45;2]: 3</text>
</g>
<!-- [8] -->
<g id="node4" class="node">
<title>[8]</title>
<ellipse fill="none" stroke="black" cx="441" cy="-34" rx="40.09" ry="18"/>
<text text-anchor="middle" x="441" y="-30.3" font-family="Times,serif" font-size="14.00">[1&#45;1]: &#45;3</text>
</g>
<!-- [11] -->
<g id="node5" class="node">
<title>[11]</title>
<ellipse fill="none" stroke="black" cx="345" cy="-34" rx="37.89" ry="18"/>
<text text-anchor="middle" x="345" y="-30.3" font-family="Times,serif" font-size="14.00">[2&#45;2]: 3</text>
</g>
<!-- [12] -->
<g id="node6" class="node">
<title>[12]</title>
<ellipse fill="none" stroke="black" cx="249" cy="-34" rx="40.09" ry="18"/>
<text text-anchor="middle" x="249" y="-30.3" font-family="Times,serif" font-size="14.00">[1&#45;1]: &#45;3</text>
</g>
<!-- [14] -->
<g id="node7" class="node">
<title>[14]</title>
<ellipse fill="none" stroke="black" cx="150" cy="-34" rx="40.09" ry="18"/>
<text text-anchor="middle" x="150" y="-30.3" font-family="Times,serif" font-size="14.00">[1&#45;1]: &#45;4</text>
</g>
<!-- [15] -->
<g id="node8" class="node">
<title>[15]</title>
<ellipse fill="none" stroke="black" cx="54" cy="-34" rx="37.89" ry="18"/>
<text text-anchor="middle" x="54" y="-30.3" font-family="Times,serif" font-size="14.00">[0&#45;0]: 4</text>
</g>
<!-- [3] -->
<g id="node9" class="node">
<title>[3]</title>
<ellipse fill="none" stroke="black" cx="532" cy="-117" rx="37.89" ry="18"/>
<text text-anchor="middle" x="532" y="-113.3" font-family="Times,serif" font-size="14.00">[2&#45;3]: 2</text>
</g>
<!-- [3]&#45;&gt;[4] -->
<g id="edge1" class="edge">
<title>[3]&#45;&gt;[4]</title>
<path fill="none" stroke="black" d="M569.12,-113.18C599.65,-109.58 643.23,-101.42 677,-83 688.16,-76.91 698.53,-67.56 706.83,-58.72"/>
<polygon fill="black" stroke="black" points="709.51,-60.97 713.56,-51.18 704.29,-56.31 709.51,-60.97"/>
</g>
<!-- [3]&#45;&gt;[5] -->
<g id="edge2" class="edge">
<title>[3]&#45;&gt;[5]</title>
<path fill="none" stroke="black" d="M555.34,-102.84C564.61,-97.2 575.15,-90.25 584,-83 592.93,-75.69 601.91,-66.76 609.53,-58.6"/>
<polygon fill="black" stroke="black" points="612.23,-60.83 616.38,-51.08 607.05,-56.12 612.23,-60.83"/>
</g>
<!-- [6] -->
<g id="node10" class="node">
<title>[6]</title>
<ellipse fill="none" stroke="black" cx="439" cy="-117" rx="37.89" ry="18"/>
<text text-anchor="middle" x="439" y="-113.3" font-family="Times,serif" font-size="14.00">[1&#45;2]: 3</text>
</g>
<!-- [6]&#45;&gt;[7] -->
<g id="edge4" class="edge">
<title>[6]&#45;&gt;[7]</title>
<path fill="none" stroke="black" d="M462.09,-102.57C471.11,-96.95 481.34,-90.07 490,-83 499.03,-75.62 508.18,-66.68 515.98,-58.52"/>
<polygon fill="black" stroke="black" points="518.72,-60.71 522.99,-51.02 513.61,-55.93 518.72,-60.71"/>
</g>
<!-- [6]&#45;&gt;[8] -->
<g id="edge5" class="edge">
<title>[6]&#45;&gt;[8]</title>
<path fill="none" stroke="black" d="M439.42,-98.82C439.69,-88.19 440.03,-74.31 440.33,-62.2"/>
<polygon fill="black" stroke="black" points="443.83,-62.24 440.58,-52.15 436.83,-62.06 443.83,-62.24"/>
</g>
<!-- [10] -->
<g id="node11" class="node">
<title>[10]</title>
<ellipse fill="none" stroke="black" cx="346" cy="-117" rx="37.89" ry="18"/>
<text text-anchor="middle" x="346" y="-113.3" font-family="Times,serif" font-size="14.00">[1&#45;2]: 3</text>
</g>
<!-- [10]&#45;&gt;[11] -->
<g id="edge8" class="edge">
<title>[10]&#45;&gt;[11]</title>
<path fill="none" stroke="black" d="M345.79,-98.82C345.66,-88.19 345.49,-74.31 345.34,-62.2"/>
<polygon fill="black" stroke="black" points="348.84,-62.11 345.21,-52.15 341.84,-62.2 348.84,-62.11"/>
</g>
<!-- [10]&#45;&gt;[12] -->
<g id="edge9" class="edge">
<title>[10]&#45;&gt;[12]</title>
<path fill="none" stroke="black" d="M323.92,-101.98C315.56,-96.38 306.12,-89.68 298,-83 288.71,-75.35 279.12,-66.26 270.91,-58.06"/>
<polygon fill="black" stroke="black" points="273.32,-55.52 263.81,-50.84 268.33,-60.43 273.32,-55.52"/>
</g>
<!-- [13] -->
<g id="node12" class="node">
<title>[13]</title>
<ellipse fill="none" stroke="black" cx="253" cy="-117" rx="37.89" ry="18"/>
<text text-anchor="middle" x="253" y="-113.3" font-family="Times,serif" font-size="14.00">[0&#45;1]: 4</text>
</g>
<!-- [13]&#45;&gt;[14] -->
<g id="edge11" class="edge">
<title>[13]&#45;&gt;[14]</title>
<path fill="none" stroke="black" d="M229.61,-102.87C220.12,-97.18 209.24,-90.19 200,-83 190.4,-75.53 180.59,-66.48 172.23,-58.26"/>
<polygon fill="black" stroke="black" points="174.54,-55.63 165,-51.01 169.58,-60.57 174.54,-55.63"/>
</g>
<!-- [13]&#45;&gt;[15] -->
<g id="edge12" class="edge">
<title>[13]&#45;&gt;[15]</title>
<path fill="none" stroke="black" d="M215.59,-113.88C183.47,-110.71 136.81,-102.79 101,-83 90.21,-77.04 80.33,-67.82 72.43,-59.05"/>
<polygon fill="black" stroke="black" points="74.92,-56.58 65.77,-51.23 69.59,-61.11 74.92,-56.58"/>
</g>
<!-- [2] -->
<g id="node13" class="node">
<title>[2]</title>
<ellipse fill="none" stroke="black" cx="439" cy="-200" rx="37.89" ry="18"/>
<text text-anchor="middle" x="439" y="-196.3" font-family="Times,serif" font-size="14.00">[1&#45;3]: 2</text>
</g>
<!-- [2]&#45;&gt;[3] -->
<g id="edge3" class="edge">
<title>[2]&#45;&gt;[3]</title>
<path fill="none" stroke="black" d="M460.71,-185.06C468.9,-179.47 478.13,-172.75 486,-166 494.76,-158.48 503.7,-149.51 511.34,-141.37"/>
<polygon fill="black" stroke="black" points="514.02,-143.62 518.21,-133.89 508.87,-138.88 514.02,-143.62"/>
</g>
<!-- [2]&#45;&gt;[6] -->
<g id="edge6" class="edge">
<title>[2]&#45;&gt;[6]</title>
<path fill="none" stroke="black" d="M439,-181.82C439,-171.19 439,-157.31 439,-145.2"/>
<polygon fill="black" stroke="black" points="442.5,-145.15 439,-135.15 435.5,-145.15 442.5,-145.15"/>
</g>
<!-- [9] -->
<g id="node14" class="node">
<title>[9]</title>
<ellipse fill="none" stroke="black" cx="346" cy="-200" rx="37.89" ry="18"/>
<text text-anchor="middle" x="346" y="-196.3" font-family="Times,serif" font-size="14.00">[0&#45;2]: 3</text>
</g>
<!-- [9]&#45;&gt;[10] -->
<g id="edge10" class="edge">
<title>[9]&#45;&gt;[10]</title>
<path fill="none" stroke="black" d="M346,-181.82C346,-171.19 346,-157.31 346,-145.2"/>
<polygon fill="black" stroke="black" points="349.5,-145.15 346,-135.15 342.5,-145.15 349.5,-145.15"/>
</g>
<!-- [9]&#45;&gt;[13] -->
<g id="edge13" class="edge">
<title>[9]&#45;&gt;[13]</title>
<path fill="none" stroke="black" d="M324.29,-185.06C316.1,-179.47 306.87,-172.75 299,-166 290.24,-158.48 281.3,-149.51 273.66,-141.37"/>
<polygon fill="black" stroke="black" points="276.13,-138.88 266.79,-133.89 270.98,-143.62 276.13,-138.88"/>
</g>
<!-- [1] -->
<g id="node15" class="node">
<title>[1]</title>
<ellipse fill="none" stroke="black" cx="392" cy="-283" rx="37.89" ry="18"/>
<text text-anchor="middle" x="392" y="-279.3" font-family="Times,serif" font-size="14.00">[0&#45;3]: 3</text>
</g>
<!-- [1]&#45;&gt;[2] -->
<g id="edge7" class="edge">
<title>[1]&#45;&gt;[2]</title>
<path fill="none" stroke="black" d="M401.74,-265.22C408.27,-253.96 417,-238.92 424.36,-226.22"/>
<polygon fill="black" stroke="black" points="427.44,-227.89 429.43,-217.48 421.39,-224.38 427.44,-227.89"/>
</g>
<!-- [1]&#45;&gt;[9] -->
<g id="edge14" class="edge">
<title>[1]&#45;&gt;[9]</title>
<path fill="none" stroke="black" d="M382.47,-265.22C376.07,-253.96 367.53,-238.92 360.33,-226.22"/>
<polygon fill="black" stroke="black" points="363.34,-224.45 355.36,-217.48 357.26,-227.91 363.34,-224.45"/>
</g>
</g>
</svg>
