<?xml version="1.0" encoding="UTF-8" standalone="no"?>
<!DOCTYPE svg PUBLIC "-//W3C//DTD SVG 1.1//EN"
 "http://www.w3.org/Graphics/SVG/1.1/DTD/svg11.dtd">
<!-- Generated by graphviz version 2.44.0 (20200408.0750)
 -->
<!-- Title: G Pages: 1 -->
<svg width="858pt" height="332pt"
 viewBox="0.00 0.00 857.79 332.00" xmlns="http://www.w3.org/2000/svg" xmlns:xlink="http://www.w3.org/1999/xlink">
<g id="graph0" class="graph" transform="scale(1 1) rotate(0) translate(4 328)">
<title>G</title>
<polygon fill="white" stroke="transparent" points="-4,4 -4,-328 853.79,-328 853.79,4 -4,4"/>
<!-- [4] -->
<g id="node1" class="node">
<title>[4]</title>
<ellipse fill="none" stroke="black" cx="36.4" cy="-18" rx="36.29" ry="18"/>
<text text-anchor="middle" x="36.4" y="-14.3" font-family="Times,serif" font-size="14.00">3: True</text>
</g>
<!-- [3] -->
<g id="node2" class="node">
<title>[3]</title>
<ellipse fill="none" stroke="black" cx="127.4" cy="-90" rx="38.19" ry="18"/>
<text text-anchor="middle" x="127.4" y="-86.3" font-family="Times,serif" font-size="14.00">4: False</text>
</g>
<!-- [3]&#45;&gt;[4] -->
<g id="edge1" class="edge">
<title>[3]&#45;&gt;[4]</title>
<path fill="none" stroke="black" d="M108.1,-74.15C95.1,-64.16 77.78,-50.83 63.42,-39.78"/>
<polygon fill="black" stroke="black" points="65.42,-36.91 55.36,-33.58 61.15,-42.46 65.42,-36.91"/>
</g>
<!-- [5] -->
<g id="node3" class="node">
<title>[5]</title>
<ellipse fill="none" stroke="black" cx="127.4" cy="-18" rx="36.29" ry="18"/>
<text text-anchor="middle" x="127.4" y="-14.3" font-family="Times,serif" font-size="14.00">2: True</text>
</g>
<!-- [3]&#45;&gt;[5] -->
<g id="edge2" class="edge">
<title>[3]&#45;&gt;[5]</title>
<path fill="none" stroke="black" d="M127.4,-71.7C127.4,-63.98 127.4,-54.71 127.4,-46.11"/>
<polygon fill="black" stroke="black" points="130.9,-46.1 127.4,-36.1 123.9,-46.1 130.9,-46.1"/>
</g>
<!-- [6] -->
<g id="node4" class="node">
<title>[6]</title>
<ellipse fill="none" stroke="black" cx="218.4" cy="-18" rx="36.29" ry="18"/>
<text text-anchor="middle" x="218.4" y="-14.3" font-family="Times,serif" font-size="14.00">1: True</text>
</g>
<!-- [3]&#45;&gt;[6] -->
<g id="edge3" class="edge">
<title>[3]&#45;&gt;[6]</title>
<path fill="none" stroke="black" d="M146.7,-74.15C159.69,-64.16 177.02,-50.83 191.38,-39.78"/>
<polygon fill="black" stroke="black" points="193.65,-42.46 199.44,-33.58 189.38,-36.91 193.65,-42.46"/>
</g>
<!-- [2] -->
<g id="node5" class="node">
<title>[2]</title>
<ellipse fill="none" stroke="black" cx="173.4" cy="-162" rx="36.29" ry="18"/>
<text text-anchor="middle" x="173.4" y="-158.3" font-family="Times,serif" font-size="14.00">5: True</text>
</g>
<!-- [2]&#45;&gt;[3] -->
<g id="edge4" class="edge">
<title>[2]&#45;&gt;[3]</title>
<path fill="none" stroke="black" d="M162.73,-144.76C157.12,-136.23 150.12,-125.58 143.84,-116.02"/>
<polygon fill="black" stroke="black" points="146.74,-114.07 138.33,-107.63 140.89,-117.91 146.74,-114.07"/>
</g>
<!-- [1] -->
<g id="node6" class="node">
<title>[1]</title>
<ellipse fill="none" stroke="black" cx="311.4" cy="-234" rx="36.29" ry="18"/>
<text text-anchor="middle" x="311.4" y="-230.3" font-family="Times,serif" font-size="14.00">6: True</text>
</g>
<!-- [1]&#45;&gt;[2] -->
<g id="edge5" class="edge">
<title>[1]&#45;&gt;[2]</title>
<path fill="none" stroke="black" d="M286.73,-220.49C264.45,-209.19 231.49,-192.47 206.85,-179.97"/>
<polygon fill="black" stroke="black" points="208.36,-176.81 197.85,-175.41 205.19,-183.05 208.36,-176.81"/>
</g>
<!-- [7] -->
<g id="node8" class="node">
<title>[7]</title>
<ellipse fill="none" stroke="black" cx="311.4" cy="-162" rx="38.19" ry="18"/>
<text text-anchor="middle" x="311.4" y="-158.3" font-family="Times,serif" font-size="14.00">4: False</text>
</g>
<!-- [1]&#45;&gt;[7] -->
<g id="edge9" class="edge">
<title>[1]&#45;&gt;[7]</title>
<path fill="none" stroke="black" d="M311.4,-215.7C311.4,-207.98 311.4,-198.71 311.4,-190.11"/>
<polygon fill="black" stroke="black" points="314.9,-190.1 311.4,-180.1 307.9,-190.1 314.9,-190.1"/>
</g>
<!-- [8] -->
<g id="node7" class="node">
<title>[8]</title>
<ellipse fill="none" stroke="black" cx="220.4" cy="-90" rx="36.29" ry="18"/>
<text text-anchor="middle" x="220.4" y="-86.3" font-family="Times,serif" font-size="14.00">3: True</text>
</g>
<!-- [7]&#45;&gt;[8] -->
<g id="edge6" class="edge">
<title>[7]&#45;&gt;[8]</title>
<path fill="none" stroke="black" d="M292.1,-146.15C279.1,-136.16 261.78,-122.83 247.42,-111.78"/>
<polygon fill="black" stroke="black" points="249.42,-108.91 239.36,-105.58 245.15,-114.46 249.42,-108.91"/>
</g>
<!-- [9] -->
<g id="node9" class="node">
<title>[9]</title>
<ellipse fill="none" stroke="black" cx="311.4" cy="-90" rx="36.29" ry="18"/>
<text text-anchor="middle" x="311.4" y="-86.3" font-family="Times,serif" font-size="14.00">2: True</text>
</g>
<!-- [7]&#45;&gt;[9] -->
<g id="edge7" class="edge">
<title>[7]&#45;&gt;[9]</title>
<path fill="none" stroke="black" d="M311.4,-143.7C311.4,-135.98 311.4,-126.71 311.4,-118.11"/>
<polygon fill="black" stroke="black" points="314.9,-118.1 311.4,-108.1 307.9,-118.1 314.9,-118.1"/>
</g>
<!-- [10] -->
<g id="node10" class="node">
<title>[10]</title>
<ellipse fill="none" stroke="black" cx="402.4" cy="-90" rx="36.29" ry="18"/>
<text text-anchor="middle" x="402.4" y="-86.3" font-family="Times,serif" font-size="14.00">1: True</text>
</g>
<!-- [7]&#45;&gt;[10] -->
<g id="edge8" class="edge">
<title>[7]&#45;&gt;[10]</title>
<path fill="none" stroke="black" d="M330.7,-146.15C343.69,-136.16 361.02,-122.83 375.38,-111.78"/>
<polygon fill="black" stroke="black" points="377.65,-114.46 383.44,-105.58 373.38,-108.91 377.65,-114.46"/>
</g>
<!-- [0] -->
<g id="node11" class="node">
<title>[0]</title>
<ellipse fill="none" stroke="black" cx="538.4" cy="-306" rx="36.29" ry="18"/>
<text text-anchor="middle" x="538.4" y="-302.3" font-family="Times,serif" font-size="14.00">7: True</text>
</g>
<!-- [0]&#45;&gt;[1] -->
<g id="edge10" class="edge">
<title>[0]&#45;&gt;[1]</title>
<path fill="none" stroke="black" d="M508.25,-295.7C467.89,-283.26 396.18,-261.14 351.35,-247.32"/>
<polygon fill="black" stroke="black" points="352.25,-243.94 341.67,-244.33 350.19,-250.63 352.25,-243.94"/>
</g>
<!-- [11] -->
<g id="node16" class="node">
<title>[11]</title>
<ellipse fill="none" stroke="black" cx="538.4" cy="-234" rx="36.29" ry="18"/>
<text text-anchor="middle" x="538.4" y="-230.3" font-family="Times,serif" font-size="14.00">5: True</text>
</g>
<!-- [0]&#45;&gt;[11] -->
<g id="edge15" class="edge">
<title>[0]&#45;&gt;[11]</title>
<path fill="none" stroke="black" d="M538.4,-287.7C538.4,-279.98 538.4,-270.71 538.4,-262.11"/>
<polygon fill="black" stroke="black" points="541.9,-262.1 538.4,-252.1 534.9,-262.1 541.9,-262.1"/>
</g>
<!-- [16] -->
<g id="node18" class="node">
<title>[16]</title>
<ellipse fill="none" stroke="black" cx="676.4" cy="-234" rx="38.19" ry="18"/>
<text text-anchor="middle" x="676.4" y="-230.3" font-family="Times,serif" font-size="14.00">4: False</text>
</g>
<!-- [0]&#45;&gt;[16] -->
<g id="edge19" class="edge">
<title>[0]&#45;&gt;[16]</title>
<path fill="none" stroke="black" d="M563.07,-292.49C585.07,-281.33 617.49,-264.88 642.03,-252.43"/>
<polygon fill="black" stroke="black" points="643.67,-255.53 651.01,-247.88 640.5,-249.28 643.67,-255.53"/>
</g>
<!-- [13] -->
<g id="node12" class="node">
<title>[13]</title>
<ellipse fill="none" stroke="black" cx="493.4" cy="-90" rx="36.29" ry="18"/>
<text text-anchor="middle" x="493.4" y="-86.3" font-family="Times,serif" font-size="14.00">3: True</text>
</g>
<!-- [12] -->
<g id="node13" class="node">
<title>[12]</title>
<ellipse fill="none" stroke="black" cx="538.4" cy="-162" rx="38.19" ry="18"/>
<text text-anchor="middle" x="538.4" y="-158.3" font-family="Times,serif" font-size="14.00">4: False</text>
</g>
<!-- [12]&#45;&gt;[13] -->
<g id="edge11" class="edge">
<title>[12]&#45;&gt;[13]</title>
<path fill="none" stroke="black" d="M527.73,-144.41C522.3,-135.95 515.57,-125.49 509.52,-116.08"/>
<polygon fill="black" stroke="black" points="512.34,-113.99 503.98,-107.47 506.45,-117.77 512.34,-113.99"/>
</g>
<!-- [14] -->
<g id="node14" class="node">
<title>[14]</title>
<ellipse fill="none" stroke="black" cx="584.4" cy="-90" rx="36.29" ry="18"/>
<text text-anchor="middle" x="584.4" y="-86.3" font-family="Times,serif" font-size="14.00">2: True</text>
</g>
<!-- [12]&#45;&gt;[14] -->
<g id="edge12" class="edge">
<title>[12]&#45;&gt;[14]</title>
<path fill="none" stroke="black" d="M549.3,-144.41C554.85,-135.95 561.73,-125.49 567.92,-116.08"/>
<polygon fill="black" stroke="black" points="571.01,-117.75 573.57,-107.47 565.16,-113.9 571.01,-117.75"/>
</g>
<!-- [15] -->
<g id="node15" class="node">
<title>[15]</title>
<ellipse fill="none" stroke="black" cx="675.4" cy="-90" rx="36.29" ry="18"/>
<text text-anchor="middle" x="675.4" y="-86.3" font-family="Times,serif" font-size="14.00">1: True</text>
</g>
<!-- [12]&#45;&gt;[15] -->
<g id="edge13" class="edge">
<title>[12]&#45;&gt;[15]</title>
<path fill="none" stroke="black" d="M563.52,-148.16C585.48,-136.94 617.54,-120.56 641.72,-108.21"/>
<polygon fill="black" stroke="black" points="643.58,-111.19 650.89,-103.52 640.39,-104.96 643.58,-111.19"/>
</g>
<!-- [11]&#45;&gt;[12] -->
<g id="edge14" class="edge">
<title>[11]&#45;&gt;[12]</title>
<path fill="none" stroke="black" d="M538.4,-215.7C538.4,-207.98 538.4,-198.71 538.4,-190.11"/>
<polygon fill="black" stroke="black" points="541.9,-190.1 538.4,-180.1 534.9,-190.1 541.9,-190.1"/>
</g>
<!-- [17] -->
<g id="node17" class="node">
<title>[17]</title>
<ellipse fill="none" stroke="black" cx="631.4" cy="-162" rx="36.29" ry="18"/>
<text text-anchor="middle" x="631.4" y="-158.3" font-family="Times,serif" font-size="14.00">3: True</text>
</g>
<!-- [16]&#45;&gt;[17] -->
<g id="edge16" class="edge">
<title>[16]&#45;&gt;[17]</title>
<path fill="none" stroke="black" d="M665.73,-216.41C660.3,-207.95 653.57,-197.49 647.52,-188.08"/>
<polygon fill="black" stroke="black" points="650.34,-185.99 641.98,-179.47 644.45,-189.77 650.34,-185.99"/>
</g>
<!-- [18] -->
<g id="node19" class="node">
<title>[18]</title>
<ellipse fill="none" stroke="black" cx="722.4" cy="-162" rx="36.29" ry="18"/>
<text text-anchor="middle" x="722.4" y="-158.3" font-family="Times,serif" font-size="14.00">2: True</text>
</g>
<!-- [16]&#45;&gt;[18] -->
<g id="edge17" class="edge">
<title>[16]&#45;&gt;[18]</title>
<path fill="none" stroke="black" d="M687.3,-216.41C692.85,-207.95 699.73,-197.49 705.92,-188.08"/>
<polygon fill="black" stroke="black" points="709.01,-189.75 711.57,-179.47 703.16,-185.9 709.01,-189.75"/>
</g>
<!-- [19] -->
<g id="node20" class="node">
<title>[19]</title>
<ellipse fill="none" stroke="black" cx="813.4" cy="-162" rx="36.29" ry="18"/>
<text text-anchor="middle" x="813.4" y="-158.3" font-family="Times,serif" font-size="14.00">1: True</text>
</g>
<!-- [16]&#45;&gt;[19] -->
<g id="edge18" class="edge">
<title>[16]&#45;&gt;[19]</title>
<path fill="none" stroke="black" d="M701.52,-220.16C723.48,-208.94 755.54,-192.56 779.72,-180.21"/>
<polygon fill="black" stroke="black" points="781.58,-183.19 788.89,-175.52 778.39,-176.96 781.58,-183.19"/>
</g>
</g>
</svg>
