<?xml version="1.0" encoding="UTF-8" standalone="no"?>
<!DOCTYPE svg PUBLIC "-//W3C//DTD SVG 1.1//EN"
 "http://www.w3.org/Graphics/SVG/1.1/DTD/svg11.dtd">
<!-- Generated by graphviz version 2.44.0 (20200408.0750)
 -->
<!-- Title: G Pages: 1 -->
<svg width="440pt" height="260pt"
 viewBox="0.00 0.00 440.19 260.00" xmlns="http://www.w3.org/2000/svg" xmlns:xlink="http://www.w3.org/1999/xlink">
<g id="graph0" class="graph" transform="scale(1 1) rotate(0) translate(4 256)">
<title>G</title>
<polygon fill="white" stroke="transparent" points="-4,4 -4,-256 436.19,-256 436.19,4 -4,4"/>
<!-- [4] -->
<g id="node1" class="node">
<title>[4]</title>
<ellipse fill="none" stroke="black" cx="28.6" cy="-18" rx="28.7" ry="18"/>
<text text-anchor="middle" x="28.6" y="-14.3" font-family="Times,serif" font-size="14.00">[3&#45;3]</text>
</g>
<!-- [3] -->
<g id="node2" class="node">
<title>[3]</title>
<ellipse fill="none" stroke="black" cx="103.6" cy="-90" rx="28.7" ry="18"/>
<text text-anchor="middle" x="103.6" y="-86.3" font-family="Times,serif" font-size="14.00">[2&#45;3]</text>
</g>
<!-- [3]&#45;&gt;[4] -->
<g id="edge1" class="edge">
<title>[3]&#45;&gt;[4]</title>
<path fill="none" stroke="black" d="M88.06,-74.5C77.43,-64.58 63.16,-51.26 51.27,-40.16"/>
<polygon fill="black" stroke="black" points="53.56,-37.51 43.86,-33.25 48.78,-42.63 53.56,-37.51"/>
</g>
<!-- [5] -->
<g id="node3" class="node">
<title>[5]</title>
<ellipse fill="none" stroke="black" cx="103.6" cy="-18" rx="28.7" ry="18"/>
<text text-anchor="middle" x="103.6" y="-14.3" font-family="Times,serif" font-size="14.00">[2&#45;2]</text>
</g>
<!-- [3]&#45;&gt;[5] -->
<g id="edge2" class="edge">
<title>[3]&#45;&gt;[5]</title>
<path fill="none" stroke="black" d="M103.6,-71.7C103.6,-63.98 103.6,-54.71 103.6,-46.11"/>
<polygon fill="black" stroke="black" points="107.1,-46.1 103.6,-36.1 100.1,-46.1 107.1,-46.1"/>
</g>
<!-- [2] -->
<g id="node4" class="node">
<title>[2]</title>
<ellipse fill="none" stroke="black" cx="178.6" cy="-162" rx="28.7" ry="18"/>
<text text-anchor="middle" x="178.6" y="-158.3" font-family="Times,serif" font-size="14.00">[1&#45;3]</text>
</g>
<!-- [2]&#45;&gt;[3] -->
<g id="edge3" class="edge">
<title>[2]&#45;&gt;[3]</title>
<path fill="none" stroke="black" d="M163.06,-146.5C152.43,-136.58 138.16,-123.26 126.27,-112.16"/>
<polygon fill="black" stroke="black" points="128.56,-109.51 118.86,-105.25 123.78,-114.63 128.56,-109.51"/>
</g>
<!-- [6] -->
<g id="node6" class="node">
<title>[6]</title>
<ellipse fill="none" stroke="black" cx="178.6" cy="-90" rx="28.7" ry="18"/>
<text text-anchor="middle" x="178.6" y="-86.3" font-family="Times,serif" font-size="14.00">[1&#45;2]</text>
</g>
<!-- [2]&#45;&gt;[6] -->
<g id="edge6" class="edge">
<title>[2]&#45;&gt;[6]</title>
<path fill="none" stroke="black" d="M178.6,-143.7C178.6,-135.98 178.6,-126.71 178.6,-118.11"/>
<polygon fill="black" stroke="black" points="182.1,-118.1 178.6,-108.1 175.1,-118.1 182.1,-118.1"/>
</g>
<!-- [7] -->
<g id="node5" class="node">
<title>[7]</title>
<ellipse fill="lightgreen" stroke="black" cx="178.6" cy="-18" rx="28.7" ry="18"/>
<text text-anchor="middle" x="178.6" y="-14.3" font-family="Times,serif" font-size="14.00">[2&#45;2]</text>
</g>
<!-- [6]&#45;&gt;[7] -->
<g id="edge4" class="edge">
<title>[6]&#45;&gt;[7]</title>
<path fill="none" stroke="black" d="M178.6,-71.7C178.6,-63.98 178.6,-54.71 178.6,-46.11"/>
<polygon fill="black" stroke="black" points="182.1,-46.1 178.6,-36.1 175.1,-46.1 182.1,-46.1"/>
</g>
<!-- [8] -->
<g id="node7" class="node">
<title>[8]</title>
<ellipse fill="none" stroke="black" cx="253.6" cy="-18" rx="28.7" ry="18"/>
<text text-anchor="middle" x="253.6" y="-14.3" font-family="Times,serif" font-size="14.00">[1&#45;1]</text>
</g>
<!-- [6]&#45;&gt;[8] -->
<g id="edge5" class="edge">
<title>[6]&#45;&gt;[8]</title>
<path fill="none" stroke="black" d="M194.14,-74.5C204.77,-64.58 219.03,-51.26 230.92,-40.16"/>
<polygon fill="black" stroke="black" points="233.41,-42.63 238.33,-33.25 228.64,-37.51 233.41,-42.63"/>
</g>
<!-- [1] -->
<g id="node8" class="node">
<title>[1]</title>
<ellipse fill="none" stroke="black" cx="215.6" cy="-234" rx="28.7" ry="18"/>
<text text-anchor="middle" x="215.6" y="-230.3" font-family="Times,serif" font-size="14.00">[0&#45;3]</text>
</g>
<!-- [1]&#45;&gt;[2] -->
<g id="edge7" class="edge">
<title>[1]&#45;&gt;[2]</title>
<path fill="none" stroke="black" d="M207.02,-216.76C202.6,-208.4 197.11,-198.02 192.13,-188.61"/>
<polygon fill="black" stroke="black" points="195.16,-186.84 187.39,-179.63 188.97,-190.11 195.16,-186.84"/>
</g>
<!-- [9] -->
<g id="node10" class="node">
<title>[9]</title>
<ellipse fill="none" stroke="black" cx="253.6" cy="-162" rx="28.7" ry="18"/>
<text text-anchor="middle" x="253.6" y="-158.3" font-family="Times,serif" font-size="14.00">[0&#45;2]</text>
</g>
<!-- [1]&#45;&gt;[9] -->
<g id="edge12" class="edge">
<title>[1]&#45;&gt;[9]</title>
<path fill="none" stroke="black" d="M224.41,-216.76C229.02,-208.28 234.75,-197.71 239.92,-188.2"/>
<polygon fill="black" stroke="black" points="243.14,-189.61 244.83,-179.15 236.98,-186.27 243.14,-189.61"/>
</g>
<!-- [10] -->
<g id="node9" class="node">
<title>[10]</title>
<ellipse fill="lightgreen" stroke="black" cx="253.6" cy="-90" rx="28.7" ry="18"/>
<text text-anchor="middle" x="253.6" y="-86.3" font-family="Times,serif" font-size="14.00">[1&#45;2]</text>
</g>
<!-- [9]&#45;&gt;[10] -->
<g id="edge8" class="edge">
<title>[9]&#45;&gt;[10]</title>
<path fill="none" stroke="black" d="M253.6,-143.7C253.6,-135.98 253.6,-126.71 253.6,-118.11"/>
<polygon fill="black" stroke="black" points="257.1,-118.1 253.6,-108.1 250.1,-118.1 257.1,-118.1"/>
</g>
<!-- [11] -->
<g id="node12" class="node">
<title>[11]</title>
<ellipse fill="none" stroke="black" cx="328.6" cy="-90" rx="28.7" ry="18"/>
<text text-anchor="middle" x="328.6" y="-86.3" font-family="Times,serif" font-size="14.00">[0&#45;1]</text>
</g>
<!-- [9]&#45;&gt;[11] -->
<g id="edge11" class="edge">
<title>[9]&#45;&gt;[11]</title>
<path fill="none" stroke="black" d="M269.14,-146.5C279.77,-136.58 294.03,-123.26 305.92,-112.16"/>
<polygon fill="black" stroke="black" points="308.41,-114.63 313.33,-105.25 303.64,-109.51 308.41,-114.63"/>
</g>
<!-- [12] -->
<g id="node11" class="node">
<title>[12]</title>
<ellipse fill="lightgreen" stroke="black" cx="328.6" cy="-18" rx="28.7" ry="18"/>
<text text-anchor="middle" x="328.6" y="-14.3" font-family="Times,serif" font-size="14.00">[1&#45;1]</text>
</g>
<!-- [11]&#45;&gt;[12] -->
<g id="edge9" class="edge">
<title>[11]&#45;&gt;[12]</title>
<path fill="none" stroke="black" d="M328.6,-71.7C328.6,-63.98 328.6,-54.71 328.6,-46.11"/>
<polygon fill="black" stroke="black" points="332.1,-46.1 328.6,-36.1 325.1,-46.1 332.1,-46.1"/>
</g>
<!-- [13] -->
<g id="node13" class="node">
<title>[13]</title>
<ellipse fill="none" stroke="black" cx="403.6" cy="-18" rx="28.7" ry="18"/>
<text text-anchor="middle" x="403.6" y="-14.3" font-family="Times,serif" font-size="14.00">[0&#45;0]</text>
</g>
<!-- [11]&#45;&gt;[13] -->
<g id="edge10" class="edge">
<title>[11]&#45;&gt;[13]</title>
<path fill="none" stroke="black" d="M344.14,-74.5C354.77,-64.58 369.03,-51.26 380.92,-40.16"/>
<polygon fill="black" stroke="black" points="383.41,-42.63 388.33,-33.25 378.64,-37.51 383.41,-42.63"/>
</g>
</g>
</svg>
