<?xml version="1.0" encoding="UTF-8" standalone="no"?>
<!DOCTYPE svg PUBLIC "-//W3C//DTD SVG 1.1//EN"
 "http://www.w3.org/Graphics/SVG/1.1/DTD/svg11.dtd">
<!-- Generated by graphviz version 2.44.0 (20200408.0750)
 -->
<!-- Title: G Pages: 1 -->
<svg width="638pt" height="287pt"
 viewBox="0.00 0.00 638.00 287.00" xmlns="http://www.w3.org/2000/svg" xmlns:xlink="http://www.w3.org/1999/xlink">
<g id="graph0" class="graph" transform="scale(1 1) rotate(0) translate(4 283)">
<title>G</title>
<polygon fill="white" stroke="transparent" points="-4,4 -4,-283 634,-283 634,4 -4,4"/>
<!-- 111111111 -->
<g id="node1" class="node">
<title>111111111</title>
<polygon fill="none" stroke="black" points="306,-257.5 306,-274.5 312,-274.5 312,-257.5 306,-257.5"/>
<text text-anchor="start" x="307" y="-262.3" font-family="Times,serif" font-size="14.00"> </text>
<polygon fill="none" stroke="black" points="312,-257.5 312,-274.5 318,-274.5 318,-257.5 312,-257.5"/>
<text text-anchor="start" x="313" y="-262.3" font-family="Times,serif" font-size="14.00"> </text>
<polygon fill="none" stroke="black" points="318,-257.5 318,-274.5 324,-274.5 324,-257.5 318,-257.5"/>
<text text-anchor="start" x="319" y="-262.3" font-family="Times,serif" font-size="14.00"> </text>
<polygon fill="none" stroke="black" points="306,-240.5 306,-257.5 312,-257.5 312,-240.5 306,-240.5"/>
<text text-anchor="start" x="307" y="-245.3" font-family="Times,serif" font-size="14.00"> </text>
<polygon fill="none" stroke="black" points="312,-240.5 312,-257.5 318,-257.5 318,-240.5 312,-240.5"/>
<text text-anchor="start" x="313" y="-245.3" font-family="Times,serif" font-size="14.00"> </text>
<polygon fill="none" stroke="black" points="318,-240.5 318,-257.5 324,-257.5 324,-240.5 318,-240.5"/>
<text text-anchor="start" x="319" y="-245.3" font-family="Times,serif" font-size="14.00"> </text>
<polygon fill="none" stroke="black" points="306,-223.5 306,-240.5 312,-240.5 312,-223.5 306,-223.5"/>
<text text-anchor="start" x="307" y="-228.3" font-family="Times,serif" font-size="14.00"> </text>
<polygon fill="none" stroke="black" points="312,-223.5 312,-240.5 318,-240.5 318,-223.5 312,-223.5"/>
<text text-anchor="start" x="313" y="-228.3" font-family="Times,serif" font-size="14.00"> </text>
<polygon fill="none" stroke="black" points="318,-223.5 318,-240.5 324,-240.5 324,-223.5 318,-223.5"/>
<text text-anchor="start" x="319" y="-228.3" font-family="Times,serif" font-size="14.00"> </text>
</g>
<!-- O11111111 -->
<g id="node2" class="node">
<title>O11111111</title>
<polygon fill="none" stroke="black" points="17,-147.5 17,-164.5 26,-164.5 26,-147.5 17,-147.5"/>
<text text-anchor="start" x="18" y="-152.3" font-family="Times,serif" font-size="14.00">o</text>
<polygon fill="none" stroke="black" points="26,-147.5 26,-164.5 32,-164.5 32,-147.5 26,-147.5"/>
<text text-anchor="start" x="27" y="-152.3" font-family="Times,serif" font-size="14.00"> </text>
<polygon fill="none" stroke="black" points="32,-147.5 32,-164.5 38,-164.5 38,-147.5 32,-147.5"/>
<text text-anchor="start" x="33" y="-152.3" font-family="Times,serif" font-size="14.00"> </text>
<polygon fill="none" stroke="black" points="17,-130.5 17,-147.5 26,-147.5 26,-130.5 17,-130.5"/>
<text text-anchor="start" x="19.5" y="-135.3" font-family="Times,serif" font-size="14.00"> </text>
<polygon fill="none" stroke="black" points="26,-130.5 26,-147.5 32,-147.5 32,-130.5 26,-130.5"/>
<text text-anchor="start" x="27" y="-135.3" font-family="Times,serif" font-size="14.00"> </text>
<polygon fill="none" stroke="black" points="32,-130.5 32,-147.5 38,-147.5 38,-130.5 32,-130.5"/>
<text text-anchor="start" x="33" y="-135.3" font-family="Times,serif" font-size="14.00"> </text>
<polygon fill="none" stroke="black" points="17,-113.5 17,-130.5 26,-130.5 26,-113.5 17,-113.5"/>
<text text-anchor="start" x="19.5" y="-118.3" font-family="Times,serif" font-size="14.00"> </text>
<polygon fill="none" stroke="black" points="26,-113.5 26,-130.5 32,-130.5 32,-113.5 26,-113.5"/>
<text text-anchor="start" x="27" y="-118.3" font-family="Times,serif" font-size="14.00"> </text>
<polygon fill="none" stroke="black" points="32,-113.5 32,-130.5 38,-130.5 38,-113.5 32,-113.5"/>
<text text-anchor="start" x="33" y="-118.3" font-family="Times,serif" font-size="14.00"> </text>
</g>
<!-- 111111111&#45;&gt;O11111111 -->
<g id="edge1" class="edge">
<title>111111111&#45;&gt;O11111111</title>
<path fill="none" stroke="black" d="M287.88,-243.56C240.18,-234.11 139.08,-210.6 63,-169 62.91,-168.95 62.82,-168.9 62.72,-168.85"/>
<polygon fill="black" stroke="black" points="64.59,-165.89 54.25,-163.58 60.9,-171.83 64.59,-165.89"/>
<text text-anchor="middle" x="138.5" y="-190.8" font-family="Times,serif" font-size="14.00">&#45;</text>
</g>
<!-- 1O1111111 -->
<g id="node3" class="node">
<title>1O1111111</title>
<polygon fill="none" stroke="black" points="89,-147.5 89,-164.5 95,-164.5 95,-147.5 89,-147.5"/>
<text text-anchor="start" x="90" y="-152.3" font-family="Times,serif" font-size="14.00"> </text>
<polygon fill="none" stroke="black" points="95,-147.5 95,-164.5 104,-164.5 104,-147.5 95,-147.5"/>
<text text-anchor="start" x="96" y="-152.3" font-family="Times,serif" font-size="14.00">o</text>
<polygon fill="none" stroke="black" points="104,-147.5 104,-164.5 110,-164.5 110,-147.5 104,-147.5"/>
<text text-anchor="start" x="105" y="-152.3" font-family="Times,serif" font-size="14.00"> </text>
<polygon fill="none" stroke="black" points="89,-130.5 89,-147.5 95,-147.5 95,-130.5 89,-130.5"/>
<text text-anchor="start" x="90" y="-135.3" font-family="Times,serif" font-size="14.00"> </text>
<polygon fill="none" stroke="black" points="95,-130.5 95,-147.5 104,-147.5 104,-130.5 95,-130.5"/>
<text text-anchor="start" x="97.5" y="-135.3" font-family="Times,serif" font-size="14.00"> </text>
<polygon fill="none" stroke="black" points="104,-130.5 104,-147.5 110,-147.5 110,-130.5 104,-130.5"/>
<text text-anchor="start" x="105" y="-135.3" font-family="Times,serif" font-size="14.00"> </text>
<polygon fill="none" stroke="black" points="89,-113.5 89,-130.5 95,-130.5 95,-113.5 89,-113.5"/>
<text text-anchor="start" x="90" y="-118.3" font-family="Times,serif" font-size="14.00"> </text>
<polygon fill="none" stroke="black" points="95,-113.5 95,-130.5 104,-130.5 104,-113.5 95,-113.5"/>
<text text-anchor="start" x="97.5" y="-118.3" font-family="Times,serif" font-size="14.00"> </text>
<polygon fill="none" stroke="black" points="104,-113.5 104,-130.5 110,-130.5 110,-113.5 104,-113.5"/>
<text text-anchor="start" x="105" y="-118.3" font-family="Times,serif" font-size="14.00"> </text>
</g>
<!-- 111111111&#45;&gt;1O1111111 -->
<g id="edge2" class="edge">
<title>111111111&#45;&gt;1O1111111</title>
<path fill="none" stroke="black" d="M287.72,-238.93C251.51,-225.69 186.19,-199.88 135,-169 134.91,-168.95 134.82,-168.89 134.73,-168.84"/>
<polygon fill="black" stroke="black" points="136.67,-165.92 126.4,-163.33 132.81,-171.76 136.67,-165.92"/>
<text text-anchor="middle" x="200.5" y="-190.8" font-family="Times,serif" font-size="14.00">&#45;</text>
</g>
<!-- 11O111111 -->
<g id="node4" class="node">
<title>11O111111</title>
<polygon fill="none" stroke="black" points="161,-147.5 161,-164.5 167,-164.5 167,-147.5 161,-147.5"/>
<text text-anchor="start" x="162" y="-152.3" font-family="Times,serif" font-size="14.00"> </text>
<polygon fill="none" stroke="black" points="167,-147.5 167,-164.5 173,-164.5 173,-147.5 167,-147.5"/>
<text text-anchor="start" x="168" y="-152.3" font-family="Times,serif" font-size="14.00"> </text>
<polygon fill="none" stroke="black" points="173,-147.5 173,-164.5 182,-164.5 182,-147.5 173,-147.5"/>
<text text-anchor="start" x="174" y="-152.3" font-family="Times,serif" font-size="14.00">o</text>
<polygon fill="none" stroke="black" points="161,-130.5 161,-147.5 167,-147.5 167,-130.5 161,-130.5"/>
<text text-anchor="start" x="162" y="-135.3" font-family="Times,serif" font-size="14.00"> </text>
<polygon fill="none" stroke="black" points="167,-130.5 167,-147.5 173,-147.5 173,-130.5 167,-130.5"/>
<text text-anchor="start" x="168" y="-135.3" font-family="Times,serif" font-size="14.00"> </text>
<polygon fill="none" stroke="black" points="173,-130.5 173,-147.5 182,-147.5 182,-130.5 173,-130.5"/>
<text text-anchor="start" x="175.5" y="-135.3" font-family="Times,serif" font-size="14.00"> </text>
<polygon fill="none" stroke="black" points="161,-113.5 161,-130.5 167,-130.5 167,-113.5 161,-113.5"/>
<text text-anchor="start" x="162" y="-118.3" font-family="Times,serif" font-size="14.00"> </text>
<polygon fill="none" stroke="black" points="167,-113.5 167,-130.5 173,-130.5 173,-113.5 167,-113.5"/>
<text text-anchor="start" x="168" y="-118.3" font-family="Times,serif" font-size="14.00"> </text>
<polygon fill="none" stroke="black" points="173,-113.5 173,-130.5 182,-130.5 182,-113.5 173,-113.5"/>
<text text-anchor="start" x="175.5" y="-118.3" font-family="Times,serif" font-size="14.00"> </text>
</g>
<!-- 111111111&#45;&gt;11O111111 -->
<g id="edge3" class="edge">
<title>111111111&#45;&gt;11O111111</title>
<path fill="none" stroke="black" d="M287.73,-228.83C265.78,-212.9 234.2,-189.77 207,-169 206.73,-168.79 206.45,-168.58 206.18,-168.37"/>
<polygon fill="black" stroke="black" points="208.1,-165.43 198.05,-162.08 203.81,-170.97 208.1,-165.43"/>
<text text-anchor="middle" x="251.5" y="-190.8" font-family="Times,serif" font-size="14.00">&#45;</text>
</g>
<!-- 111O11111 -->
<g id="node5" class="node">
<title>111O11111</title>
<polygon fill="none" stroke="black" points="233,-147.5 233,-164.5 242,-164.5 242,-147.5 233,-147.5"/>
<text text-anchor="start" x="235.5" y="-152.3" font-family="Times,serif" font-size="14.00"> </text>
<polygon fill="none" stroke="black" points="242,-147.5 242,-164.5 248,-164.5 248,-147.5 242,-147.5"/>
<text text-anchor="start" x="243" y="-152.3" font-family="Times,serif" font-size="14.00"> </text>
<polygon fill="none" stroke="black" points="248,-147.5 248,-164.5 254,-164.5 254,-147.5 248,-147.5"/>
<text text-anchor="start" x="249" y="-152.3" font-family="Times,serif" font-size="14.00"> </text>
<polygon fill="none" stroke="black" points="233,-130.5 233,-147.5 242,-147.5 242,-130.5 233,-130.5"/>
<text text-anchor="start" x="234" y="-135.3" font-family="Times,serif" font-size="14.00">o</text>
<polygon fill="none" stroke="black" points="242,-130.5 242,-147.5 248,-147.5 248,-130.5 242,-130.5"/>
<text text-anchor="start" x="243" y="-135.3" font-family="Times,serif" font-size="14.00"> </text>
<polygon fill="none" stroke="black" points="248,-130.5 248,-147.5 254,-147.5 254,-130.5 248,-130.5"/>
<text text-anchor="start" x="249" y="-135.3" font-family="Times,serif" font-size="14.00"> </text>
<polygon fill="none" stroke="black" points="233,-113.5 233,-130.5 242,-130.5 242,-113.5 233,-113.5"/>
<text text-anchor="start" x="235.5" y="-118.3" font-family="Times,serif" font-size="14.00"> </text>
<polygon fill="none" stroke="black" points="242,-113.5 242,-130.5 248,-130.5 248,-113.5 242,-113.5"/>
<text text-anchor="start" x="243" y="-118.3" font-family="Times,serif" font-size="14.00"> </text>
<polygon fill="none" stroke="black" points="248,-113.5 248,-130.5 254,-130.5 254,-113.5 248,-113.5"/>
<text text-anchor="start" x="249" y="-118.3" font-family="Times,serif" font-size="14.00"> </text>
</g>
<!-- 111111111&#45;&gt;111O11111 -->
<g id="edge4" class="edge">
<title>111111111&#45;&gt;111O11111</title>
<path fill="none" stroke="black" d="M295.89,-219.84C287.27,-206.9 276.97,-191.46 267.76,-177.64"/>
<polygon fill="black" stroke="black" points="270.65,-175.67 262.19,-169.29 264.83,-179.55 270.65,-175.67"/>
<text text-anchor="middle" x="286.5" y="-190.8" font-family="Times,serif" font-size="14.00">&#45;</text>
</g>
<!-- 1111O1111 -->
<g id="node6" class="node">
<title>1111O1111</title>
<polygon fill="none" stroke="black" points="305,-147.5 305,-164.5 311,-164.5 311,-147.5 305,-147.5"/>
<text text-anchor="start" x="306" y="-152.3" font-family="Times,serif" font-size="14.00"> </text>
<polygon fill="none" stroke="black" points="311,-147.5 311,-164.5 320,-164.5 320,-147.5 311,-147.5"/>
<text text-anchor="start" x="313.5" y="-152.3" font-family="Times,serif" font-size="14.00"> </text>
<polygon fill="none" stroke="black" points="320,-147.5 320,-164.5 326,-164.5 326,-147.5 320,-147.5"/>
<text text-anchor="start" x="321" y="-152.3" font-family="Times,serif" font-size="14.00"> </text>
<polygon fill="none" stroke="black" points="305,-130.5 305,-147.5 311,-147.5 311,-130.5 305,-130.5"/>
<text text-anchor="start" x="306" y="-135.3" font-family="Times,serif" font-size="14.00"> </text>
<polygon fill="none" stroke="black" points="311,-130.5 311,-147.5 320,-147.5 320,-130.5 311,-130.5"/>
<text text-anchor="start" x="312" y="-135.3" font-family="Times,serif" font-size="14.00">o</text>
<polygon fill="none" stroke="black" points="320,-130.5 320,-147.5 326,-147.5 326,-130.5 320,-130.5"/>
<text text-anchor="start" x="321" y="-135.3" font-family="Times,serif" font-size="14.00"> </text>
<polygon fill="none" stroke="black" points="305,-113.5 305,-130.5 311,-130.5 311,-113.5 305,-113.5"/>
<text text-anchor="start" x="306" y="-118.3" font-family="Times,serif" font-size="14.00"> </text>
<polygon fill="none" stroke="black" points="311,-113.5 311,-130.5 320,-130.5 320,-113.5 311,-113.5"/>
<text text-anchor="start" x="313.5" y="-118.3" font-family="Times,serif" font-size="14.00"> </text>
<polygon fill="none" stroke="black" points="320,-113.5 320,-130.5 326,-130.5 326,-113.5 320,-113.5"/>
<text text-anchor="start" x="321" y="-118.3" font-family="Times,serif" font-size="14.00"> </text>
</g>
<!-- 111111111&#45;&gt;1111O1111 -->
<g id="edge13" class="edge">
<title>111111111&#45;&gt;1111O1111</title>
<path fill="none" stroke="black" d="M315,-219.84C315,-207.51 315,-192.91 315,-179.61"/>
<polygon fill="black" stroke="black" points="318.5,-179.29 315,-169.29 311.5,-179.29 318.5,-179.29"/>
<text text-anchor="middle" x="317.5" y="-190.8" font-family="Times,serif" font-size="14.00">&#45;</text>
</g>
<!-- 11111O111 -->
<g id="node15" class="node">
<title>11111O111</title>
<polygon fill="none" stroke="black" points="377,-147.5 377,-164.5 383,-164.5 383,-147.5 377,-147.5"/>
<text text-anchor="start" x="378" y="-152.3" font-family="Times,serif" font-size="14.00"> </text>
<polygon fill="none" stroke="black" points="383,-147.5 383,-164.5 389,-164.5 389,-147.5 383,-147.5"/>
<text text-anchor="start" x="384" y="-152.3" font-family="Times,serif" font-size="14.00"> </text>
<polygon fill="none" stroke="black" points="389,-147.5 389,-164.5 398,-164.5 398,-147.5 389,-147.5"/>
<text text-anchor="start" x="391.5" y="-152.3" font-family="Times,serif" font-size="14.00"> </text>
<polygon fill="none" stroke="black" points="377,-130.5 377,-147.5 383,-147.5 383,-130.5 377,-130.5"/>
<text text-anchor="start" x="378" y="-135.3" font-family="Times,serif" font-size="14.00"> </text>
<polygon fill="none" stroke="black" points="383,-130.5 383,-147.5 389,-147.5 389,-130.5 383,-130.5"/>
<text text-anchor="start" x="384" y="-135.3" font-family="Times,serif" font-size="14.00"> </text>
<polygon fill="none" stroke="black" points="389,-130.5 389,-147.5 398,-147.5 398,-130.5 389,-130.5"/>
<text text-anchor="start" x="390" y="-135.3" font-family="Times,serif" font-size="14.00">o</text>
<polygon fill="none" stroke="black" points="377,-113.5 377,-130.5 383,-130.5 383,-113.5 377,-113.5"/>
<text text-anchor="start" x="378" y="-118.3" font-family="Times,serif" font-size="14.00"> </text>
<polygon fill="none" stroke="black" points="383,-113.5 383,-130.5 389,-130.5 389,-113.5 383,-113.5"/>
<text text-anchor="start" x="384" y="-118.3" font-family="Times,serif" font-size="14.00"> </text>
<polygon fill="none" stroke="black" points="389,-113.5 389,-130.5 398,-130.5 398,-113.5 389,-113.5"/>
<text text-anchor="start" x="391.5" y="-118.3" font-family="Times,serif" font-size="14.00"> </text>
</g>
<!-- 111111111&#45;&gt;11111O111 -->
<g id="edge14" class="edge">
<title>111111111&#45;&gt;11111O111</title>
<path fill="none" stroke="black" d="M334.11,-219.84C342.73,-206.9 353.03,-191.46 362.24,-177.64"/>
<polygon fill="black" stroke="black" points="365.17,-179.55 367.81,-169.29 359.35,-175.67 365.17,-179.55"/>
<text text-anchor="middle" x="358.5" y="-190.8" font-family="Times,serif" font-size="14.00">&#45;</text>
</g>
<!-- 111111O11 -->
<g id="node16" class="node">
<title>111111O11</title>
<polygon fill="none" stroke="black" points="449,-147.5 449,-164.5 458,-164.5 458,-147.5 449,-147.5"/>
<text text-anchor="start" x="451.5" y="-152.3" font-family="Times,serif" font-size="14.00"> </text>
<polygon fill="none" stroke="black" points="458,-147.5 458,-164.5 464,-164.5 464,-147.5 458,-147.5"/>
<text text-anchor="start" x="459" y="-152.3" font-family="Times,serif" font-size="14.00"> </text>
<polygon fill="none" stroke="black" points="464,-147.5 464,-164.5 470,-164.5 470,-147.5 464,-147.5"/>
<text text-anchor="start" x="465" y="-152.3" font-family="Times,serif" font-size="14.00"> </text>
<polygon fill="none" stroke="black" points="449,-130.5 449,-147.5 458,-147.5 458,-130.5 449,-130.5"/>
<text text-anchor="start" x="451.5" y="-135.3" font-family="Times,serif" font-size="14.00"> </text>
<polygon fill="none" stroke="black" points="458,-130.5 458,-147.5 464,-147.5 464,-130.5 458,-130.5"/>
<text text-anchor="start" x="459" y="-135.3" font-family="Times,serif" font-size="14.00"> </text>
<polygon fill="none" stroke="black" points="464,-130.5 464,-147.5 470,-147.5 470,-130.5 464,-130.5"/>
<text text-anchor="start" x="465" y="-135.3" font-family="Times,serif" font-size="14.00"> </text>
<polygon fill="none" stroke="black" points="449,-113.5 449,-130.5 458,-130.5 458,-113.5 449,-113.5"/>
<text text-anchor="start" x="450" y="-118.3" font-family="Times,serif" font-size="14.00">o</text>
<polygon fill="none" stroke="black" points="458,-113.5 458,-130.5 464,-130.5 464,-113.5 458,-113.5"/>
<text text-anchor="start" x="459" y="-118.3" font-family="Times,serif" font-size="14.00"> </text>
<polygon fill="none" stroke="black" points="464,-113.5 464,-130.5 470,-130.5 470,-113.5 464,-113.5"/>
<text text-anchor="start" x="465" y="-118.3" font-family="Times,serif" font-size="14.00"> </text>
</g>
<!-- 111111111&#45;&gt;111111O11 -->
<g id="edge15" class="edge">
<title>111111111&#45;&gt;111111O11</title>
<path fill="none" stroke="black" d="M342.27,-228.83C364.22,-212.9 395.8,-189.77 423,-169 423.27,-168.79 423.55,-168.58 423.82,-168.37"/>
<polygon fill="black" stroke="black" points="426.19,-170.97 431.95,-162.08 421.9,-165.43 426.19,-170.97"/>
<text text-anchor="middle" x="399.5" y="-190.8" font-family="Times,serif" font-size="14.00">&#45;</text>
</g>
<!-- 1111111O1 -->
<g id="node17" class="node">
<title>1111111O1</title>
<polygon fill="none" stroke="black" points="521,-147.5 521,-164.5 527,-164.5 527,-147.5 521,-147.5"/>
<text text-anchor="start" x="522" y="-152.3" font-family="Times,serif" font-size="14.00"> </text>
<polygon fill="none" stroke="black" points="527,-147.5 527,-164.5 536,-164.5 536,-147.5 527,-147.5"/>
<text text-anchor="start" x="529.5" y="-152.3" font-family="Times,serif" font-size="14.00"> </text>
<polygon fill="none" stroke="black" points="536,-147.5 536,-164.5 542,-164.5 542,-147.5 536,-147.5"/>
<text text-anchor="start" x="537" y="-152.3" font-family="Times,serif" font-size="14.00"> </text>
<polygon fill="none" stroke="black" points="521,-130.5 521,-147.5 527,-147.5 527,-130.5 521,-130.5"/>
<text text-anchor="start" x="522" y="-135.3" font-family="Times,serif" font-size="14.00"> </text>
<polygon fill="none" stroke="black" points="527,-130.5 527,-147.5 536,-147.5 536,-130.5 527,-130.5"/>
<text text-anchor="start" x="529.5" y="-135.3" font-family="Times,serif" font-size="14.00"> </text>
<polygon fill="none" stroke="black" points="536,-130.5 536,-147.5 542,-147.5 542,-130.5 536,-130.5"/>
<text text-anchor="start" x="537" y="-135.3" font-family="Times,serif" font-size="14.00"> </text>
<polygon fill="none" stroke="black" points="521,-113.5 521,-130.5 527,-130.5 527,-113.5 521,-113.5"/>
<text text-anchor="start" x="522" y="-118.3" font-family="Times,serif" font-size="14.00"> </text>
<polygon fill="none" stroke="black" points="527,-113.5 527,-130.5 536,-130.5 536,-113.5 527,-113.5"/>
<text text-anchor="start" x="528" y="-118.3" font-family="Times,serif" font-size="14.00">o</text>
<polygon fill="none" stroke="black" points="536,-113.5 536,-130.5 542,-130.5 542,-113.5 536,-113.5"/>
<text text-anchor="start" x="537" y="-118.3" font-family="Times,serif" font-size="14.00"> </text>
</g>
<!-- 111111111&#45;&gt;1111111O1 -->
<g id="edge16" class="edge">
<title>111111111&#45;&gt;1111111O1</title>
<path fill="none" stroke="black" d="M342.28,-238.93C378.49,-225.69 443.81,-199.88 495,-169 495.09,-168.95 495.18,-168.89 495.27,-168.84"/>
<polygon fill="black" stroke="black" points="497.19,-171.76 503.6,-163.33 493.33,-165.92 497.19,-171.76"/>
<text text-anchor="middle" x="464.5" y="-190.8" font-family="Times,serif" font-size="14.00">&#45;</text>
</g>
<!-- 11111111O -->
<g id="node18" class="node">
<title>11111111O</title>
<polygon fill="none" stroke="black" points="593,-147.5 593,-164.5 599,-164.5 599,-147.5 593,-147.5"/>
<text text-anchor="start" x="594" y="-152.3" font-family="Times,serif" font-size="14.00"> </text>
<polygon fill="none" stroke="black" points="599,-147.5 599,-164.5 605,-164.5 605,-147.5 599,-147.5"/>
<text text-anchor="start" x="600" y="-152.3" font-family="Times,serif" font-size="14.00"> </text>
<polygon fill="none" stroke="black" points="605,-147.5 605,-164.5 614,-164.5 614,-147.5 605,-147.5"/>
<text text-anchor="start" x="607.5" y="-152.3" font-family="Times,serif" font-size="14.00"> </text>
<polygon fill="none" stroke="black" points="593,-130.5 593,-147.5 599,-147.5 599,-130.5 593,-130.5"/>
<text text-anchor="start" x="594" y="-135.3" font-family="Times,serif" font-size="14.00"> </text>
<polygon fill="none" stroke="black" points="599,-130.5 599,-147.5 605,-147.5 605,-130.5 599,-130.5"/>
<text text-anchor="start" x="600" y="-135.3" font-family="Times,serif" font-size="14.00"> </text>
<polygon fill="none" stroke="black" points="605,-130.5 605,-147.5 614,-147.5 614,-130.5 605,-130.5"/>
<text text-anchor="start" x="607.5" y="-135.3" font-family="Times,serif" font-size="14.00"> </text>
<polygon fill="none" stroke="black" points="593,-113.5 593,-130.5 599,-130.5 599,-113.5 593,-113.5"/>
<text text-anchor="start" x="594" y="-118.3" font-family="Times,serif" font-size="14.00"> </text>
<polygon fill="none" stroke="black" points="599,-113.5 599,-130.5 605,-130.5 605,-113.5 599,-113.5"/>
<text text-anchor="start" x="600" y="-118.3" font-family="Times,serif" font-size="14.00"> </text>
<polygon fill="none" stroke="black" points="605,-113.5 605,-130.5 614,-130.5 614,-113.5 605,-113.5"/>
<text text-anchor="start" x="606" y="-118.3" font-family="Times,serif" font-size="14.00">o</text>
</g>
<!-- 111111111&#45;&gt;11111111O -->
<g id="edge17" class="edge">
<title>111111111&#45;&gt;11111111O</title>
<path fill="none" stroke="black" d="M342.12,-243.56C389.82,-234.11 490.92,-210.6 567,-169 567.09,-168.95 567.18,-168.9 567.28,-168.85"/>
<polygon fill="black" stroke="black" points="569.1,-171.83 575.75,-163.58 565.41,-165.89 569.1,-171.83"/>
<text text-anchor="middle" x="530.5" y="-190.8" font-family="Times,serif" font-size="14.00">&#45;</text>
</g>
<!-- X111O1111 -->
<g id="node7" class="node">
<title>X111O1111</title>
<polygon fill="none" stroke="black" points="51,-37.5 51,-54.5 60,-54.5 60,-37.5 51,-37.5"/>
<text text-anchor="start" x="52" y="-42.3" font-family="Times,serif" font-size="14.00">x</text>
<polygon fill="none" stroke="black" points="60,-37.5 60,-54.5 69,-54.5 69,-37.5 60,-37.5"/>
<text text-anchor="start" x="62.5" y="-42.3" font-family="Times,serif" font-size="14.00"> </text>
<polygon fill="none" stroke="black" points="69,-37.5 69,-54.5 75,-54.5 75,-37.5 69,-37.5"/>
<text text-anchor="start" x="70" y="-42.3" font-family="Times,serif" font-size="14.00"> </text>
<polygon fill="none" stroke="black" points="51,-20.5 51,-37.5 60,-37.5 60,-20.5 51,-20.5"/>
<text text-anchor="start" x="53.5" y="-25.3" font-family="Times,serif" font-size="14.00"> </text>
<polygon fill="none" stroke="black" points="60,-20.5 60,-37.5 69,-37.5 69,-20.5 60,-20.5"/>
<text text-anchor="start" x="61" y="-25.3" font-family="Times,serif" font-size="14.00">o</text>
<polygon fill="none" stroke="black" points="69,-20.5 69,-37.5 75,-37.5 75,-20.5 69,-20.5"/>
<text text-anchor="start" x="70" y="-25.3" font-family="Times,serif" font-size="14.00"> </text>
<polygon fill="none" stroke="black" points="51,-3.5 51,-20.5 60,-20.5 60,-3.5 51,-3.5"/>
<text text-anchor="start" x="53.5" y="-8.3" font-family="Times,serif" font-size="14.00"> </text>
<polygon fill="none" stroke="black" points="60,-3.5 60,-20.5 69,-20.5 69,-3.5 60,-3.5"/>
<text text-anchor="start" x="62.5" y="-8.3" font-family="Times,serif" font-size="14.00"> </text>
<polygon fill="none" stroke="black" points="69,-3.5 69,-20.5 75,-20.5 75,-3.5 69,-3.5"/>
<text text-anchor="start" x="70" y="-8.3" font-family="Times,serif" font-size="14.00"> </text>
</g>
<!-- 1111O1111&#45;&gt;X111O1111 -->
<g id="edge5" class="edge">
<title>1111O1111&#45;&gt;X111O1111</title>
<path fill="none" stroke="black" d="M287.91,-115.09C285.01,-113.19 282.02,-111.45 279,-110 246.94,-94.58 235.29,-101.48 201,-92 155.08,-79.3 141.01,-81.48 99,-59 98.91,-58.95 98.82,-58.9 98.72,-58.85"/>
<polygon fill="black" stroke="black" points="100.58,-55.88 90.22,-53.64 96.92,-61.85 100.58,-55.88"/>
<text text-anchor="middle" x="203.5" y="-80.8" font-family="Times,serif" font-size="14.00">&#45;</text>
</g>
<!-- 1X11O1111 -->
<g id="node8" class="node">
<title>1X11O1111</title>
<polygon fill="none" stroke="black" points="125,-37.5 125,-54.5 131,-54.5 131,-37.5 125,-37.5"/>
<text text-anchor="start" x="126" y="-42.3" font-family="Times,serif" font-size="14.00"> </text>
<polygon fill="none" stroke="black" points="131,-37.5 131,-54.5 140,-54.5 140,-37.5 131,-37.5"/>
<text text-anchor="start" x="132" y="-42.3" font-family="Times,serif" font-size="14.00">x</text>
<polygon fill="none" stroke="black" points="140,-37.5 140,-54.5 146,-54.5 146,-37.5 140,-37.5"/>
<text text-anchor="start" x="141" y="-42.3" font-family="Times,serif" font-size="14.00"> </text>
<polygon fill="none" stroke="black" points="125,-20.5 125,-37.5 131,-37.5 131,-20.5 125,-20.5"/>
<text text-anchor="start" x="126" y="-25.3" font-family="Times,serif" font-size="14.00"> </text>
<polygon fill="none" stroke="black" points="131,-20.5 131,-37.5 140,-37.5 140,-20.5 131,-20.5"/>
<text text-anchor="start" x="132" y="-25.3" font-family="Times,serif" font-size="14.00">o</text>
<polygon fill="none" stroke="black" points="140,-20.5 140,-37.5 146,-37.5 146,-20.5 140,-20.5"/>
<text text-anchor="start" x="141" y="-25.3" font-family="Times,serif" font-size="14.00"> </text>
<polygon fill="none" stroke="black" points="125,-3.5 125,-20.5 131,-20.5 131,-3.5 125,-3.5"/>
<text text-anchor="start" x="126" y="-8.3" font-family="Times,serif" font-size="14.00"> </text>
<polygon fill="none" stroke="black" points="131,-3.5 131,-20.5 140,-20.5 140,-3.5 131,-3.5"/>
<text text-anchor="start" x="133.5" y="-8.3" font-family="Times,serif" font-size="14.00"> </text>
<polygon fill="none" stroke="black" points="140,-3.5 140,-20.5 146,-20.5 146,-3.5 140,-3.5"/>
<text text-anchor="start" x="141" y="-8.3" font-family="Times,serif" font-size="14.00"> </text>
</g>
<!-- 1111O1111&#45;&gt;1X11O1111 -->
<g id="edge6" class="edge">
<title>1111O1111&#45;&gt;1X11O1111</title>
<path fill="none" stroke="black" d="M287.96,-116.04C285,-113.91 281.98,-111.85 279,-110 276.18,-108.25 173.82,-60.75 171,-59 170.81,-58.88 170.63,-58.77 170.44,-58.65"/>
<polygon fill="black" stroke="black" points="172.29,-55.67 162.04,-52.96 168.36,-61.47 172.29,-55.67"/>
<text text-anchor="middle" x="246" y="-80.8" font-family="Times,serif" font-size="14.00">O</text>
</g>
<!-- 11X1O1111 -->
<g id="node9" class="node">
<title>11X1O1111</title>
<polygon fill="none" stroke="black" points="195,-37.5 195,-54.5 201,-54.5 201,-37.5 195,-37.5"/>
<text text-anchor="start" x="196" y="-42.3" font-family="Times,serif" font-size="14.00"> </text>
<polygon fill="none" stroke="black" points="201,-37.5 201,-54.5 210,-54.5 210,-37.5 201,-37.5"/>
<text text-anchor="start" x="203.5" y="-42.3" font-family="Times,serif" font-size="14.00"> </text>
<polygon fill="none" stroke="black" points="210,-37.5 210,-54.5 219,-54.5 219,-37.5 210,-37.5"/>
<text text-anchor="start" x="211" y="-42.3" font-family="Times,serif" font-size="14.00">x</text>
<polygon fill="none" stroke="black" points="195,-20.5 195,-37.5 201,-37.5 201,-20.5 195,-20.5"/>
<text text-anchor="start" x="196" y="-25.3" font-family="Times,serif" font-size="14.00"> </text>
<polygon fill="none" stroke="black" points="201,-20.5 201,-37.5 210,-37.5 210,-20.5 201,-20.5"/>
<text text-anchor="start" x="202" y="-25.3" font-family="Times,serif" font-size="14.00">o</text>
<polygon fill="none" stroke="black" points="210,-20.5 210,-37.5 219,-37.5 219,-20.5 210,-20.5"/>
<text text-anchor="start" x="212.5" y="-25.3" font-family="Times,serif" font-size="14.00"> </text>
<polygon fill="none" stroke="black" points="195,-3.5 195,-20.5 201,-20.5 201,-3.5 195,-3.5"/>
<text text-anchor="start" x="196" y="-8.3" font-family="Times,serif" font-size="14.00"> </text>
<polygon fill="none" stroke="black" points="201,-3.5 201,-20.5 210,-20.5 210,-3.5 201,-3.5"/>
<text text-anchor="start" x="203.5" y="-8.3" font-family="Times,serif" font-size="14.00"> </text>
<polygon fill="none" stroke="black" points="210,-3.5 210,-20.5 219,-20.5 219,-3.5 210,-3.5"/>
<text text-anchor="start" x="212.5" y="-8.3" font-family="Times,serif" font-size="14.00"> </text>
</g>
<!-- 1111O1111&#45;&gt;11X1O1111 -->
<g id="edge7" class="edge">
<title>1111O1111&#45;&gt;11X1O1111</title>
<path fill="none" stroke="black" d="M287.75,-111.25C273.68,-97.18 256.37,-79.87 241.39,-64.89"/>
<polygon fill="black" stroke="black" points="243.79,-62.34 234.24,-57.74 238.84,-67.29 243.79,-62.34"/>
<text text-anchor="middle" x="270.5" y="-80.8" font-family="Times,serif" font-size="14.00">&#45;</text>
</g>
<!-- 111XO1111 -->
<g id="node10" class="node">
<title>111XO1111</title>
<polygon fill="none" stroke="black" points="267,-37.5 267,-54.5 276,-54.5 276,-37.5 267,-37.5"/>
<text text-anchor="start" x="269.5" y="-42.3" font-family="Times,serif" font-size="14.00"> </text>
<polygon fill="none" stroke="black" points="276,-37.5 276,-54.5 285,-54.5 285,-37.5 276,-37.5"/>
<text text-anchor="start" x="278.5" y="-42.3" font-family="Times,serif" font-size="14.00"> </text>
<polygon fill="none" stroke="black" points="285,-37.5 285,-54.5 291,-54.5 291,-37.5 285,-37.5"/>
<text text-anchor="start" x="286" y="-42.3" font-family="Times,serif" font-size="14.00"> </text>
<polygon fill="none" stroke="black" points="267,-20.5 267,-37.5 276,-37.5 276,-20.5 267,-20.5"/>
<text text-anchor="start" x="268" y="-25.3" font-family="Times,serif" font-size="14.00">x</text>
<polygon fill="none" stroke="black" points="276,-20.5 276,-37.5 285,-37.5 285,-20.5 276,-20.5"/>
<text text-anchor="start" x="277" y="-25.3" font-family="Times,serif" font-size="14.00">o</text>
<polygon fill="none" stroke="black" points="285,-20.5 285,-37.5 291,-37.5 291,-20.5 285,-20.5"/>
<text text-anchor="start" x="286" y="-25.3" font-family="Times,serif" font-size="14.00"> </text>
<polygon fill="none" stroke="black" points="267,-3.5 267,-20.5 276,-20.5 276,-3.5 267,-3.5"/>
<text text-anchor="start" x="269.5" y="-8.3" font-family="Times,serif" font-size="14.00"> </text>
<polygon fill="none" stroke="black" points="276,-3.5 276,-20.5 285,-20.5 285,-3.5 276,-3.5"/>
<text text-anchor="start" x="278.5" y="-8.3" font-family="Times,serif" font-size="14.00"> </text>
<polygon fill="none" stroke="black" points="285,-3.5 285,-20.5 291,-20.5 291,-3.5 285,-3.5"/>
<text text-anchor="start" x="286" y="-8.3" font-family="Times,serif" font-size="14.00"> </text>
</g>
<!-- 1111O1111&#45;&gt;111XO1111 -->
<g id="edge8" class="edge">
<title>1111O1111&#45;&gt;111XO1111</title>
<path fill="none" stroke="black" d="M305.45,-109.84C301.26,-97.27 296.28,-82.33 291.77,-68.82"/>
<polygon fill="black" stroke="black" points="295.08,-67.67 288.6,-59.29 288.44,-69.89 295.08,-67.67"/>
<text text-anchor="middle" x="305" y="-80.8" font-family="Times,serif" font-size="14.00">O</text>
</g>
<!-- 1111OX111 -->
<g id="node11" class="node">
<title>1111OX111</title>
<polygon fill="none" stroke="black" points="339,-37.5 339,-54.5 345,-54.5 345,-37.5 339,-37.5"/>
<text text-anchor="start" x="340" y="-42.3" font-family="Times,serif" font-size="14.00"> </text>
<polygon fill="none" stroke="black" points="345,-37.5 345,-54.5 354,-54.5 354,-37.5 345,-37.5"/>
<text text-anchor="start" x="347.5" y="-42.3" font-family="Times,serif" font-size="14.00"> </text>
<polygon fill="none" stroke="black" points="354,-37.5 354,-54.5 363,-54.5 363,-37.5 354,-37.5"/>
<text text-anchor="start" x="356.5" y="-42.3" font-family="Times,serif" font-size="14.00"> </text>
<polygon fill="none" stroke="black" points="339,-20.5 339,-37.5 345,-37.5 345,-20.5 339,-20.5"/>
<text text-anchor="start" x="340" y="-25.3" font-family="Times,serif" font-size="14.00"> </text>
<polygon fill="none" stroke="black" points="345,-20.5 345,-37.5 354,-37.5 354,-20.5 345,-20.5"/>
<text text-anchor="start" x="346" y="-25.3" font-family="Times,serif" font-size="14.00">o</text>
<polygon fill="none" stroke="black" points="354,-20.5 354,-37.5 363,-37.5 363,-20.5 354,-20.5"/>
<text text-anchor="start" x="355" y="-25.3" font-family="Times,serif" font-size="14.00">x</text>
<polygon fill="none" stroke="black" points="339,-3.5 339,-20.5 345,-20.5 345,-3.5 339,-3.5"/>
<text text-anchor="start" x="340" y="-8.3" font-family="Times,serif" font-size="14.00"> </text>
<polygon fill="none" stroke="black" points="345,-3.5 345,-20.5 354,-20.5 354,-3.5 345,-3.5"/>
<text text-anchor="start" x="347.5" y="-8.3" font-family="Times,serif" font-size="14.00"> </text>
<polygon fill="none" stroke="black" points="354,-3.5 354,-20.5 363,-20.5 363,-3.5 354,-3.5"/>
<text text-anchor="start" x="356.5" y="-8.3" font-family="Times,serif" font-size="14.00"> </text>
</g>
<!-- 1111O1111&#45;&gt;1111OX111 -->
<g id="edge9" class="edge">
<title>1111O1111&#45;&gt;1111OX111</title>
<path fill="none" stroke="black" d="M324.55,-109.84C328.74,-97.27 333.72,-82.33 338.23,-68.82"/>
<polygon fill="black" stroke="black" points="341.56,-69.89 341.4,-59.29 334.92,-67.67 341.56,-69.89"/>
<text text-anchor="middle" x="341" y="-80.8" font-family="Times,serif" font-size="14.00">O</text>
</g>
<!-- 1111O1X11 -->
<g id="node12" class="node">
<title>1111O1X11</title>
<polygon fill="none" stroke="black" points="411,-37.5 411,-54.5 420,-54.5 420,-37.5 411,-37.5"/>
<text text-anchor="start" x="413.5" y="-42.3" font-family="Times,serif" font-size="14.00"> </text>
<polygon fill="none" stroke="black" points="420,-37.5 420,-54.5 429,-54.5 429,-37.5 420,-37.5"/>
<text text-anchor="start" x="422.5" y="-42.3" font-family="Times,serif" font-size="14.00"> </text>
<polygon fill="none" stroke="black" points="429,-37.5 429,-54.5 435,-54.5 435,-37.5 429,-37.5"/>
<text text-anchor="start" x="430" y="-42.3" font-family="Times,serif" font-size="14.00"> </text>
<polygon fill="none" stroke="black" points="411,-20.5 411,-37.5 420,-37.5 420,-20.5 411,-20.5"/>
<text text-anchor="start" x="413.5" y="-25.3" font-family="Times,serif" font-size="14.00"> </text>
<polygon fill="none" stroke="black" points="420,-20.5 420,-37.5 429,-37.5 429,-20.5 420,-20.5"/>
<text text-anchor="start" x="421" y="-25.3" font-family="Times,serif" font-size="14.00">o</text>
<polygon fill="none" stroke="black" points="429,-20.5 429,-37.5 435,-37.5 435,-20.5 429,-20.5"/>
<text text-anchor="start" x="430" y="-25.3" font-family="Times,serif" font-size="14.00"> </text>
<polygon fill="none" stroke="black" points="411,-3.5 411,-20.5 420,-20.5 420,-3.5 411,-3.5"/>
<text text-anchor="start" x="412" y="-8.3" font-family="Times,serif" font-size="14.00">x</text>
<polygon fill="none" stroke="black" points="420,-3.5 420,-20.5 429,-20.5 429,-3.5 420,-3.5"/>
<text text-anchor="start" x="422.5" y="-8.3" font-family="Times,serif" font-size="14.00"> </text>
<polygon fill="none" stroke="black" points="429,-3.5 429,-20.5 435,-20.5 435,-3.5 429,-3.5"/>
<text text-anchor="start" x="430" y="-8.3" font-family="Times,serif" font-size="14.00"> </text>
</g>
<!-- 1111O1111&#45;&gt;1111O1X11 -->
<g id="edge10" class="edge">
<title>1111O1111&#45;&gt;1111O1X11</title>
<path fill="none" stroke="black" d="M342.25,-111.25C356.32,-97.18 373.63,-79.87 388.61,-64.89"/>
<polygon fill="black" stroke="black" points="391.16,-67.29 395.76,-57.74 386.21,-62.34 391.16,-67.29"/>
<text text-anchor="middle" x="378.5" y="-80.8" font-family="Times,serif" font-size="14.00">&#45;</text>
</g>
<!-- 1111O11X1 -->
<g id="node13" class="node">
<title>1111O11X1</title>
<polygon fill="none" stroke="black" points="485,-37.5 485,-54.5 491,-54.5 491,-37.5 485,-37.5"/>
<text text-anchor="start" x="486" y="-42.3" font-family="Times,serif" font-size="14.00"> </text>
<polygon fill="none" stroke="black" points="491,-37.5 491,-54.5 500,-54.5 500,-37.5 491,-37.5"/>
<text text-anchor="start" x="493.5" y="-42.3" font-family="Times,serif" font-size="14.00"> </text>
<polygon fill="none" stroke="black" points="500,-37.5 500,-54.5 506,-54.5 506,-37.5 500,-37.5"/>
<text text-anchor="start" x="501" y="-42.3" font-family="Times,serif" font-size="14.00"> </text>
<polygon fill="none" stroke="black" points="485,-20.5 485,-37.5 491,-37.5 491,-20.5 485,-20.5"/>
<text text-anchor="start" x="486" y="-25.3" font-family="Times,serif" font-size="14.00"> </text>
<polygon fill="none" stroke="black" points="491,-20.5 491,-37.5 500,-37.5 500,-20.5 491,-20.5"/>
<text text-anchor="start" x="492" y="-25.3" font-family="Times,serif" font-size="14.00">o</text>
<polygon fill="none" stroke="black" points="500,-20.5 500,-37.5 506,-37.5 506,-20.5 500,-20.5"/>
<text text-anchor="start" x="501" y="-25.3" font-family="Times,serif" font-size="14.00"> </text>
<polygon fill="none" stroke="black" points="485,-3.5 485,-20.5 491,-20.5 491,-3.5 485,-3.5"/>
<text text-anchor="start" x="486" y="-8.3" font-family="Times,serif" font-size="14.00"> </text>
<polygon fill="none" stroke="black" points="491,-3.5 491,-20.5 500,-20.5 500,-3.5 491,-3.5"/>
<text text-anchor="start" x="492" y="-8.3" font-family="Times,serif" font-size="14.00">x</text>
<polygon fill="none" stroke="black" points="500,-3.5 500,-20.5 506,-20.5 506,-3.5 500,-3.5"/>
<text text-anchor="start" x="501" y="-8.3" font-family="Times,serif" font-size="14.00"> </text>
</g>
<!-- 1111O1111&#45;&gt;1111O11X1 -->
<g id="edge11" class="edge">
<title>1111O1111&#45;&gt;1111O11X1</title>
<path fill="none" stroke="black" d="M342.04,-116.04C345,-113.91 348.02,-111.85 351,-110 396.1,-82.01 413.9,-86.99 459,-59 459.19,-58.88 459.37,-58.77 459.56,-58.65"/>
<polygon fill="black" stroke="black" points="461.64,-61.47 467.96,-52.96 457.71,-55.67 461.64,-61.47"/>
<text text-anchor="middle" x="430" y="-80.8" font-family="Times,serif" font-size="14.00">O</text>
</g>
<!-- 1111O111X -->
<g id="node14" class="node">
<title>1111O111X</title>
<polygon fill="none" stroke="black" points="555,-37.5 555,-54.5 561,-54.5 561,-37.5 555,-37.5"/>
<text text-anchor="start" x="556" y="-42.3" font-family="Times,serif" font-size="14.00"> </text>
<polygon fill="none" stroke="black" points="561,-37.5 561,-54.5 570,-54.5 570,-37.5 561,-37.5"/>
<text text-anchor="start" x="563.5" y="-42.3" font-family="Times,serif" font-size="14.00"> </text>
<polygon fill="none" stroke="black" points="570,-37.5 570,-54.5 579,-54.5 579,-37.5 570,-37.5"/>
<text text-anchor="start" x="572.5" y="-42.3" font-family="Times,serif" font-size="14.00"> </text>
<polygon fill="none" stroke="black" points="555,-20.5 555,-37.5 561,-37.5 561,-20.5 555,-20.5"/>
<text text-anchor="start" x="556" y="-25.3" font-family="Times,serif" font-size="14.00"> </text>
<polygon fill="none" stroke="black" points="561,-20.5 561,-37.5 570,-37.5 570,-20.5 561,-20.5"/>
<text text-anchor="start" x="562" y="-25.3" font-family="Times,serif" font-size="14.00">o</text>
<polygon fill="none" stroke="black" points="570,-20.5 570,-37.5 579,-37.5 579,-20.5 570,-20.5"/>
<text text-anchor="start" x="572.5" y="-25.3" font-family="Times,serif" font-size="14.00"> </text>
<polygon fill="none" stroke="black" points="555,-3.5 555,-20.5 561,-20.5 561,-3.5 555,-3.5"/>
<text text-anchor="start" x="556" y="-8.3" font-family="Times,serif" font-size="14.00"> </text>
<polygon fill="none" stroke="black" points="561,-3.5 561,-20.5 570,-20.5 570,-3.5 561,-3.5"/>
<text text-anchor="start" x="563.5" y="-8.3" font-family="Times,serif" font-size="14.00"> </text>
<polygon fill="none" stroke="black" points="570,-3.5 570,-20.5 579,-20.5 579,-3.5 570,-3.5"/>
<text text-anchor="start" x="571" y="-8.3" font-family="Times,serif" font-size="14.00">x</text>
</g>
<!-- 1111O1111&#45;&gt;1111O111X -->
<g id="edge12" class="edge">
<title>1111O1111&#45;&gt;1111O111X</title>
<path fill="none" stroke="black" d="M342.05,-115.01C344.96,-113.13 347.96,-111.41 351,-110 387.19,-93.15 400.56,-102.77 439,-92 480.83,-80.28 493.03,-80.09 531,-59 531.09,-58.95 531.18,-58.9 531.27,-58.85"/>
<polygon fill="black" stroke="black" points="533.12,-61.82 539.72,-53.54 529.39,-55.89 533.12,-61.82"/>
<text text-anchor="middle" x="493.5" y="-80.8" font-family="Times,serif" font-size="14.00">&#45;</text>
</g>
</g>
</svg>
