<?xml version="1.0" encoding="UTF-8" standalone="no"?>
<!DOCTYPE svg PUBLIC "-//W3C//DTD SVG 1.1//EN"
 "http://www.w3.org/Graphics/SVG/1.1/DTD/svg11.dtd">
<!-- Generated by graphviz version 2.44.0 (20200408.0750)
 -->
<!-- Title: G Pages: 1 -->
<svg width="818pt" height="287pt"
 viewBox="0.00 0.00 818.00 287.00" xmlns="http://www.w3.org/2000/svg" xmlns:xlink="http://www.w3.org/1999/xlink">
<g id="graph0" class="graph" transform="scale(1 1) rotate(0) translate(4 283)">
<title>G</title>
<polygon fill="white" stroke="transparent" points="-4,4 -4,-283 814,-283 814,4 -4,4"/>
<!-- 111111111 -->
<g id="node1" class="node">
<title>111111111</title>
<polygon fill="none" stroke="black" points="486,-257.5 486,-274.5 492,-274.5 492,-257.5 486,-257.5"/>
<text text-anchor="start" x="487" y="-262.3" font-family="Times,serif" font-size="14.00"> </text>
<polygon fill="none" stroke="black" points="492,-257.5 492,-274.5 498,-274.5 498,-257.5 492,-257.5"/>
<text text-anchor="start" x="493" y="-262.3" font-family="Times,serif" font-size="14.00"> </text>
<polygon fill="none" stroke="black" points="498,-257.5 498,-274.5 504,-274.5 504,-257.5 498,-257.5"/>
<text text-anchor="start" x="499" y="-262.3" font-family="Times,serif" font-size="14.00"> </text>
<polygon fill="none" stroke="black" points="486,-240.5 486,-257.5 492,-257.5 492,-240.5 486,-240.5"/>
<text text-anchor="start" x="487" y="-245.3" font-family="Times,serif" font-size="14.00"> </text>
<polygon fill="none" stroke="black" points="492,-240.5 492,-257.5 498,-257.5 498,-240.5 492,-240.5"/>
<text text-anchor="start" x="493" y="-245.3" font-family="Times,serif" font-size="14.00"> </text>
<polygon fill="none" stroke="black" points="498,-240.5 498,-257.5 504,-257.5 504,-240.5 498,-240.5"/>
<text text-anchor="start" x="499" y="-245.3" font-family="Times,serif" font-size="14.00"> </text>
<polygon fill="none" stroke="black" points="486,-223.5 486,-240.5 492,-240.5 492,-223.5 486,-223.5"/>
<text text-anchor="start" x="487" y="-228.3" font-family="Times,serif" font-size="14.00"> </text>
<polygon fill="none" stroke="black" points="492,-223.5 492,-240.5 498,-240.5 498,-223.5 492,-223.5"/>
<text text-anchor="start" x="493" y="-228.3" font-family="Times,serif" font-size="14.00"> </text>
<polygon fill="none" stroke="black" points="498,-223.5 498,-240.5 504,-240.5 504,-223.5 498,-223.5"/>
<text text-anchor="start" x="499" y="-228.3" font-family="Times,serif" font-size="14.00"> </text>
</g>
<!-- O11111111 -->
<g id="node2" class="node">
<title>O11111111</title>
<polygon fill="none" stroke="black" points="197,-147.5 197,-164.5 206,-164.5 206,-147.5 197,-147.5"/>
<text text-anchor="start" x="198" y="-152.3" font-family="Times,serif" font-size="14.00">o</text>
<polygon fill="none" stroke="black" points="206,-147.5 206,-164.5 212,-164.5 212,-147.5 206,-147.5"/>
<text text-anchor="start" x="207" y="-152.3" font-family="Times,serif" font-size="14.00"> </text>
<polygon fill="none" stroke="black" points="212,-147.5 212,-164.5 218,-164.5 218,-147.5 212,-147.5"/>
<text text-anchor="start" x="213" y="-152.3" font-family="Times,serif" font-size="14.00"> </text>
<polygon fill="none" stroke="black" points="197,-130.5 197,-147.5 206,-147.5 206,-130.5 197,-130.5"/>
<text text-anchor="start" x="199.5" y="-135.3" font-family="Times,serif" font-size="14.00"> </text>
<polygon fill="none" stroke="black" points="206,-130.5 206,-147.5 212,-147.5 212,-130.5 206,-130.5"/>
<text text-anchor="start" x="207" y="-135.3" font-family="Times,serif" font-size="14.00"> </text>
<polygon fill="none" stroke="black" points="212,-130.5 212,-147.5 218,-147.5 218,-130.5 212,-130.5"/>
<text text-anchor="start" x="213" y="-135.3" font-family="Times,serif" font-size="14.00"> </text>
<polygon fill="none" stroke="black" points="197,-113.5 197,-130.5 206,-130.5 206,-113.5 197,-113.5"/>
<text text-anchor="start" x="199.5" y="-118.3" font-family="Times,serif" font-size="14.00"> </text>
<polygon fill="none" stroke="black" points="206,-113.5 206,-130.5 212,-130.5 212,-113.5 206,-113.5"/>
<text text-anchor="start" x="207" y="-118.3" font-family="Times,serif" font-size="14.00"> </text>
<polygon fill="none" stroke="black" points="212,-113.5 212,-130.5 218,-130.5 218,-113.5 212,-113.5"/>
<text text-anchor="start" x="213" y="-118.3" font-family="Times,serif" font-size="14.00"> </text>
</g>
<!-- 111111111&#45;&gt;O11111111 -->
<g id="edge1" class="edge">
<title>111111111&#45;&gt;O11111111</title>
<path fill="none" stroke="black" d="M467.88,-243.56C420.18,-234.11 319.08,-210.6 243,-169 242.91,-168.95 242.82,-168.9 242.72,-168.85"/>
<polygon fill="black" stroke="black" points="244.59,-165.89 234.25,-163.58 240.9,-171.83 244.59,-165.89"/>
<text text-anchor="middle" x="318.5" y="-190.8" font-family="Times,serif" font-size="14.00">&#45;</text>
</g>
<!-- 1O1111111 -->
<g id="node3" class="node">
<title>1O1111111</title>
<polygon fill="none" stroke="black" points="269,-147.5 269,-164.5 275,-164.5 275,-147.5 269,-147.5"/>
<text text-anchor="start" x="270" y="-152.3" font-family="Times,serif" font-size="14.00"> </text>
<polygon fill="none" stroke="black" points="275,-147.5 275,-164.5 284,-164.5 284,-147.5 275,-147.5"/>
<text text-anchor="start" x="276" y="-152.3" font-family="Times,serif" font-size="14.00">o</text>
<polygon fill="none" stroke="black" points="284,-147.5 284,-164.5 290,-164.5 290,-147.5 284,-147.5"/>
<text text-anchor="start" x="285" y="-152.3" font-family="Times,serif" font-size="14.00"> </text>
<polygon fill="none" stroke="black" points="269,-130.5 269,-147.5 275,-147.5 275,-130.5 269,-130.5"/>
<text text-anchor="start" x="270" y="-135.3" font-family="Times,serif" font-size="14.00"> </text>
<polygon fill="none" stroke="black" points="275,-130.5 275,-147.5 284,-147.5 284,-130.5 275,-130.5"/>
<text text-anchor="start" x="277.5" y="-135.3" font-family="Times,serif" font-size="14.00"> </text>
<polygon fill="none" stroke="black" points="284,-130.5 284,-147.5 290,-147.5 290,-130.5 284,-130.5"/>
<text text-anchor="start" x="285" y="-135.3" font-family="Times,serif" font-size="14.00"> </text>
<polygon fill="none" stroke="black" points="269,-113.5 269,-130.5 275,-130.5 275,-113.5 269,-113.5"/>
<text text-anchor="start" x="270" y="-118.3" font-family="Times,serif" font-size="14.00"> </text>
<polygon fill="none" stroke="black" points="275,-113.5 275,-130.5 284,-130.5 284,-113.5 275,-113.5"/>
<text text-anchor="start" x="277.5" y="-118.3" font-family="Times,serif" font-size="14.00"> </text>
<polygon fill="none" stroke="black" points="284,-113.5 284,-130.5 290,-130.5 290,-113.5 284,-113.5"/>
<text text-anchor="start" x="285" y="-118.3" font-family="Times,serif" font-size="14.00"> </text>
</g>
<!-- 111111111&#45;&gt;1O1111111 -->
<g id="edge10" class="edge">
<title>111111111&#45;&gt;1O1111111</title>
<path fill="none" stroke="black" d="M467.72,-238.93C431.51,-225.69 366.19,-199.88 315,-169 314.91,-168.95 314.82,-168.89 314.73,-168.84"/>
<polygon fill="black" stroke="black" points="316.67,-165.92 306.4,-163.33 312.81,-171.76 316.67,-165.92"/>
<text text-anchor="middle" x="380.5" y="-190.8" font-family="Times,serif" font-size="14.00">&#45;</text>
</g>
<!-- 11O111111 -->
<g id="node12" class="node">
<title>11O111111</title>
<polygon fill="none" stroke="black" points="341,-147.5 341,-164.5 347,-164.5 347,-147.5 341,-147.5"/>
<text text-anchor="start" x="342" y="-152.3" font-family="Times,serif" font-size="14.00"> </text>
<polygon fill="none" stroke="black" points="347,-147.5 347,-164.5 353,-164.5 353,-147.5 347,-147.5"/>
<text text-anchor="start" x="348" y="-152.3" font-family="Times,serif" font-size="14.00"> </text>
<polygon fill="none" stroke="black" points="353,-147.5 353,-164.5 362,-164.5 362,-147.5 353,-147.5"/>
<text text-anchor="start" x="354" y="-152.3" font-family="Times,serif" font-size="14.00">o</text>
<polygon fill="none" stroke="black" points="341,-130.5 341,-147.5 347,-147.5 347,-130.5 341,-130.5"/>
<text text-anchor="start" x="342" y="-135.3" font-family="Times,serif" font-size="14.00"> </text>
<polygon fill="none" stroke="black" points="347,-130.5 347,-147.5 353,-147.5 353,-130.5 347,-130.5"/>
<text text-anchor="start" x="348" y="-135.3" font-family="Times,serif" font-size="14.00"> </text>
<polygon fill="none" stroke="black" points="353,-130.5 353,-147.5 362,-147.5 362,-130.5 353,-130.5"/>
<text text-anchor="start" x="355.5" y="-135.3" font-family="Times,serif" font-size="14.00"> </text>
<polygon fill="none" stroke="black" points="341,-113.5 341,-130.5 347,-130.5 347,-113.5 341,-113.5"/>
<text text-anchor="start" x="342" y="-118.3" font-family="Times,serif" font-size="14.00"> </text>
<polygon fill="none" stroke="black" points="347,-113.5 347,-130.5 353,-130.5 353,-113.5 347,-113.5"/>
<text text-anchor="start" x="348" y="-118.3" font-family="Times,serif" font-size="14.00"> </text>
<polygon fill="none" stroke="black" points="353,-113.5 353,-130.5 362,-130.5 362,-113.5 353,-113.5"/>
<text text-anchor="start" x="355.5" y="-118.3" font-family="Times,serif" font-size="14.00"> </text>
</g>
<!-- 111111111&#45;&gt;11O111111 -->
<g id="edge11" class="edge">
<title>111111111&#45;&gt;11O111111</title>
<path fill="none" stroke="black" d="M467.73,-228.83C445.78,-212.9 414.2,-189.77 387,-169 386.73,-168.79 386.45,-168.58 386.18,-168.37"/>
<polygon fill="black" stroke="black" points="388.1,-165.43 378.05,-162.08 383.81,-170.97 388.1,-165.43"/>
<text text-anchor="middle" x="431.5" y="-190.8" font-family="Times,serif" font-size="14.00">&#45;</text>
</g>
<!-- 111O11111 -->
<g id="node13" class="node">
<title>111O11111</title>
<polygon fill="none" stroke="black" points="413,-147.5 413,-164.5 422,-164.5 422,-147.5 413,-147.5"/>
<text text-anchor="start" x="415.5" y="-152.3" font-family="Times,serif" font-size="14.00"> </text>
<polygon fill="none" stroke="black" points="422,-147.5 422,-164.5 428,-164.5 428,-147.5 422,-147.5"/>
<text text-anchor="start" x="423" y="-152.3" font-family="Times,serif" font-size="14.00"> </text>
<polygon fill="none" stroke="black" points="428,-147.5 428,-164.5 434,-164.5 434,-147.5 428,-147.5"/>
<text text-anchor="start" x="429" y="-152.3" font-family="Times,serif" font-size="14.00"> </text>
<polygon fill="none" stroke="black" points="413,-130.5 413,-147.5 422,-147.5 422,-130.5 413,-130.5"/>
<text text-anchor="start" x="414" y="-135.3" font-family="Times,serif" font-size="14.00">o</text>
<polygon fill="none" stroke="black" points="422,-130.5 422,-147.5 428,-147.5 428,-130.5 422,-130.5"/>
<text text-anchor="start" x="423" y="-135.3" font-family="Times,serif" font-size="14.00"> </text>
<polygon fill="none" stroke="black" points="428,-130.5 428,-147.5 434,-147.5 434,-130.5 428,-130.5"/>
<text text-anchor="start" x="429" y="-135.3" font-family="Times,serif" font-size="14.00"> </text>
<polygon fill="none" stroke="black" points="413,-113.5 413,-130.5 422,-130.5 422,-113.5 413,-113.5"/>
<text text-anchor="start" x="415.5" y="-118.3" font-family="Times,serif" font-size="14.00"> </text>
<polygon fill="none" stroke="black" points="422,-113.5 422,-130.5 428,-130.5 428,-113.5 422,-113.5"/>
<text text-anchor="start" x="423" y="-118.3" font-family="Times,serif" font-size="14.00"> </text>
<polygon fill="none" stroke="black" points="428,-113.5 428,-130.5 434,-130.5 434,-113.5 428,-113.5"/>
<text text-anchor="start" x="429" y="-118.3" font-family="Times,serif" font-size="14.00"> </text>
</g>
<!-- 111111111&#45;&gt;111O11111 -->
<g id="edge12" class="edge">
<title>111111111&#45;&gt;111O11111</title>
<path fill="none" stroke="black" d="M475.89,-219.84C467.27,-206.9 456.97,-191.46 447.76,-177.64"/>
<polygon fill="black" stroke="black" points="450.65,-175.67 442.19,-169.29 444.83,-179.55 450.65,-175.67"/>
<text text-anchor="middle" x="466.5" y="-190.8" font-family="Times,serif" font-size="14.00">&#45;</text>
</g>
<!-- 1111O1111 -->
<g id="node14" class="node">
<title>1111O1111</title>
<polygon fill="none" stroke="black" points="485,-147.5 485,-164.5 491,-164.5 491,-147.5 485,-147.5"/>
<text text-anchor="start" x="486" y="-152.3" font-family="Times,serif" font-size="14.00"> </text>
<polygon fill="none" stroke="black" points="491,-147.5 491,-164.5 500,-164.5 500,-147.5 491,-147.5"/>
<text text-anchor="start" x="493.5" y="-152.3" font-family="Times,serif" font-size="14.00"> </text>
<polygon fill="none" stroke="black" points="500,-147.5 500,-164.5 506,-164.5 506,-147.5 500,-147.5"/>
<text text-anchor="start" x="501" y="-152.3" font-family="Times,serif" font-size="14.00"> </text>
<polygon fill="none" stroke="black" points="485,-130.5 485,-147.5 491,-147.5 491,-130.5 485,-130.5"/>
<text text-anchor="start" x="486" y="-135.3" font-family="Times,serif" font-size="14.00"> </text>
<polygon fill="none" stroke="black" points="491,-130.5 491,-147.5 500,-147.5 500,-130.5 491,-130.5"/>
<text text-anchor="start" x="492" y="-135.3" font-family="Times,serif" font-size="14.00">o</text>
<polygon fill="none" stroke="black" points="500,-130.5 500,-147.5 506,-147.5 506,-130.5 500,-130.5"/>
<text text-anchor="start" x="501" y="-135.3" font-family="Times,serif" font-size="14.00"> </text>
<polygon fill="none" stroke="black" points="485,-113.5 485,-130.5 491,-130.5 491,-113.5 485,-113.5"/>
<text text-anchor="start" x="486" y="-118.3" font-family="Times,serif" font-size="14.00"> </text>
<polygon fill="none" stroke="black" points="491,-113.5 491,-130.5 500,-130.5 500,-113.5 491,-113.5"/>
<text text-anchor="start" x="493.5" y="-118.3" font-family="Times,serif" font-size="14.00"> </text>
<polygon fill="none" stroke="black" points="500,-113.5 500,-130.5 506,-130.5 506,-113.5 500,-113.5"/>
<text text-anchor="start" x="501" y="-118.3" font-family="Times,serif" font-size="14.00"> </text>
</g>
<!-- 111111111&#45;&gt;1111O1111 -->
<g id="edge13" class="edge">
<title>111111111&#45;&gt;1111O1111</title>
<path fill="none" stroke="black" d="M495,-219.84C495,-207.51 495,-192.91 495,-179.61"/>
<polygon fill="black" stroke="black" points="498.5,-179.29 495,-169.29 491.5,-179.29 498.5,-179.29"/>
<text text-anchor="middle" x="497.5" y="-190.8" font-family="Times,serif" font-size="14.00">&#45;</text>
</g>
<!-- 11111O111 -->
<g id="node15" class="node">
<title>11111O111</title>
<polygon fill="none" stroke="black" points="557,-147.5 557,-164.5 563,-164.5 563,-147.5 557,-147.5"/>
<text text-anchor="start" x="558" y="-152.3" font-family="Times,serif" font-size="14.00"> </text>
<polygon fill="none" stroke="black" points="563,-147.5 563,-164.5 569,-164.5 569,-147.5 563,-147.5"/>
<text text-anchor="start" x="564" y="-152.3" font-family="Times,serif" font-size="14.00"> </text>
<polygon fill="none" stroke="black" points="569,-147.5 569,-164.5 578,-164.5 578,-147.5 569,-147.5"/>
<text text-anchor="start" x="571.5" y="-152.3" font-family="Times,serif" font-size="14.00"> </text>
<polygon fill="none" stroke="black" points="557,-130.5 557,-147.5 563,-147.5 563,-130.5 557,-130.5"/>
<text text-anchor="start" x="558" y="-135.3" font-family="Times,serif" font-size="14.00"> </text>
<polygon fill="none" stroke="black" points="563,-130.5 563,-147.5 569,-147.5 569,-130.5 563,-130.5"/>
<text text-anchor="start" x="564" y="-135.3" font-family="Times,serif" font-size="14.00"> </text>
<polygon fill="none" stroke="black" points="569,-130.5 569,-147.5 578,-147.5 578,-130.5 569,-130.5"/>
<text text-anchor="start" x="570" y="-135.3" font-family="Times,serif" font-size="14.00">o</text>
<polygon fill="none" stroke="black" points="557,-113.5 557,-130.5 563,-130.5 563,-113.5 557,-113.5"/>
<text text-anchor="start" x="558" y="-118.3" font-family="Times,serif" font-size="14.00"> </text>
<polygon fill="none" stroke="black" points="563,-113.5 563,-130.5 569,-130.5 569,-113.5 563,-113.5"/>
<text text-anchor="start" x="564" y="-118.3" font-family="Times,serif" font-size="14.00"> </text>
<polygon fill="none" stroke="black" points="569,-113.5 569,-130.5 578,-130.5 578,-113.5 569,-113.5"/>
<text text-anchor="start" x="571.5" y="-118.3" font-family="Times,serif" font-size="14.00"> </text>
</g>
<!-- 111111111&#45;&gt;11111O111 -->
<g id="edge14" class="edge">
<title>111111111&#45;&gt;11111O111</title>
<path fill="none" stroke="black" d="M514.11,-219.84C522.73,-206.9 533.03,-191.46 542.24,-177.64"/>
<polygon fill="black" stroke="black" points="545.17,-179.55 547.81,-169.29 539.35,-175.67 545.17,-179.55"/>
<text text-anchor="middle" x="538.5" y="-190.8" font-family="Times,serif" font-size="14.00">&#45;</text>
</g>
<!-- 111111O11 -->
<g id="node16" class="node">
<title>111111O11</title>
<polygon fill="none" stroke="black" points="629,-147.5 629,-164.5 638,-164.5 638,-147.5 629,-147.5"/>
<text text-anchor="start" x="631.5" y="-152.3" font-family="Times,serif" font-size="14.00"> </text>
<polygon fill="none" stroke="black" points="638,-147.5 638,-164.5 644,-164.5 644,-147.5 638,-147.5"/>
<text text-anchor="start" x="639" y="-152.3" font-family="Times,serif" font-size="14.00"> </text>
<polygon fill="none" stroke="black" points="644,-147.5 644,-164.5 650,-164.5 650,-147.5 644,-147.5"/>
<text text-anchor="start" x="645" y="-152.3" font-family="Times,serif" font-size="14.00"> </text>
<polygon fill="none" stroke="black" points="629,-130.5 629,-147.5 638,-147.5 638,-130.5 629,-130.5"/>
<text text-anchor="start" x="631.5" y="-135.3" font-family="Times,serif" font-size="14.00"> </text>
<polygon fill="none" stroke="black" points="638,-130.5 638,-147.5 644,-147.5 644,-130.5 638,-130.5"/>
<text text-anchor="start" x="639" y="-135.3" font-family="Times,serif" font-size="14.00"> </text>
<polygon fill="none" stroke="black" points="644,-130.5 644,-147.5 650,-147.5 650,-130.5 644,-130.5"/>
<text text-anchor="start" x="645" y="-135.3" font-family="Times,serif" font-size="14.00"> </text>
<polygon fill="none" stroke="black" points="629,-113.5 629,-130.5 638,-130.5 638,-113.5 629,-113.5"/>
<text text-anchor="start" x="630" y="-118.3" font-family="Times,serif" font-size="14.00">o</text>
<polygon fill="none" stroke="black" points="638,-113.5 638,-130.5 644,-130.5 644,-113.5 638,-113.5"/>
<text text-anchor="start" x="639" y="-118.3" font-family="Times,serif" font-size="14.00"> </text>
<polygon fill="none" stroke="black" points="644,-113.5 644,-130.5 650,-130.5 650,-113.5 644,-113.5"/>
<text text-anchor="start" x="645" y="-118.3" font-family="Times,serif" font-size="14.00"> </text>
</g>
<!-- 111111111&#45;&gt;111111O11 -->
<g id="edge15" class="edge">
<title>111111111&#45;&gt;111111O11</title>
<path fill="none" stroke="black" d="M522.27,-228.83C544.22,-212.9 575.8,-189.77 603,-169 603.27,-168.79 603.55,-168.58 603.82,-168.37"/>
<polygon fill="black" stroke="black" points="606.19,-170.97 611.95,-162.08 601.9,-165.43 606.19,-170.97"/>
<text text-anchor="middle" x="578.5" y="-190.8" font-family="Times,serif" font-size="14.00">&#45;</text>
</g>
<!-- 1111111O1 -->
<g id="node17" class="node">
<title>1111111O1</title>
<polygon fill="none" stroke="black" points="701,-147.5 701,-164.5 707,-164.5 707,-147.5 701,-147.5"/>
<text text-anchor="start" x="702" y="-152.3" font-family="Times,serif" font-size="14.00"> </text>
<polygon fill="none" stroke="black" points="707,-147.5 707,-164.5 716,-164.5 716,-147.5 707,-147.5"/>
<text text-anchor="start" x="709.5" y="-152.3" font-family="Times,serif" font-size="14.00"> </text>
<polygon fill="none" stroke="black" points="716,-147.5 716,-164.5 722,-164.5 722,-147.5 716,-147.5"/>
<text text-anchor="start" x="717" y="-152.3" font-family="Times,serif" font-size="14.00"> </text>
<polygon fill="none" stroke="black" points="701,-130.5 701,-147.5 707,-147.5 707,-130.5 701,-130.5"/>
<text text-anchor="start" x="702" y="-135.3" font-family="Times,serif" font-size="14.00"> </text>
<polygon fill="none" stroke="black" points="707,-130.5 707,-147.5 716,-147.5 716,-130.5 707,-130.5"/>
<text text-anchor="start" x="709.5" y="-135.3" font-family="Times,serif" font-size="14.00"> </text>
<polygon fill="none" stroke="black" points="716,-130.5 716,-147.5 722,-147.5 722,-130.5 716,-130.5"/>
<text text-anchor="start" x="717" y="-135.3" font-family="Times,serif" font-size="14.00"> </text>
<polygon fill="none" stroke="black" points="701,-113.5 701,-130.5 707,-130.5 707,-113.5 701,-113.5"/>
<text text-anchor="start" x="702" y="-118.3" font-family="Times,serif" font-size="14.00"> </text>
<polygon fill="none" stroke="black" points="707,-113.5 707,-130.5 716,-130.5 716,-113.5 707,-113.5"/>
<text text-anchor="start" x="708" y="-118.3" font-family="Times,serif" font-size="14.00">o</text>
<polygon fill="none" stroke="black" points="716,-113.5 716,-130.5 722,-130.5 722,-113.5 716,-113.5"/>
<text text-anchor="start" x="717" y="-118.3" font-family="Times,serif" font-size="14.00"> </text>
</g>
<!-- 111111111&#45;&gt;1111111O1 -->
<g id="edge16" class="edge">
<title>111111111&#45;&gt;1111111O1</title>
<path fill="none" stroke="black" d="M522.28,-238.93C558.49,-225.69 623.81,-199.88 675,-169 675.09,-168.95 675.18,-168.89 675.27,-168.84"/>
<polygon fill="black" stroke="black" points="677.19,-171.76 683.6,-163.33 673.33,-165.92 677.19,-171.76"/>
<text text-anchor="middle" x="644.5" y="-190.8" font-family="Times,serif" font-size="14.00">&#45;</text>
</g>
<!-- 11111111O -->
<g id="node18" class="node">
<title>11111111O</title>
<polygon fill="none" stroke="black" points="773,-147.5 773,-164.5 779,-164.5 779,-147.5 773,-147.5"/>
<text text-anchor="start" x="774" y="-152.3" font-family="Times,serif" font-size="14.00"> </text>
<polygon fill="none" stroke="black" points="779,-147.5 779,-164.5 785,-164.5 785,-147.5 779,-147.5"/>
<text text-anchor="start" x="780" y="-152.3" font-family="Times,serif" font-size="14.00"> </text>
<polygon fill="none" stroke="black" points="785,-147.5 785,-164.5 794,-164.5 794,-147.5 785,-147.5"/>
<text text-anchor="start" x="787.5" y="-152.3" font-family="Times,serif" font-size="14.00"> </text>
<polygon fill="none" stroke="black" points="773,-130.5 773,-147.5 779,-147.5 779,-130.5 773,-130.5"/>
<text text-anchor="start" x="774" y="-135.3" font-family="Times,serif" font-size="14.00"> </text>
<polygon fill="none" stroke="black" points="779,-130.5 779,-147.5 785,-147.5 785,-130.5 779,-130.5"/>
<text text-anchor="start" x="780" y="-135.3" font-family="Times,serif" font-size="14.00"> </text>
<polygon fill="none" stroke="black" points="785,-130.5 785,-147.5 794,-147.5 794,-130.5 785,-130.5"/>
<text text-anchor="start" x="787.5" y="-135.3" font-family="Times,serif" font-size="14.00"> </text>
<polygon fill="none" stroke="black" points="773,-113.5 773,-130.5 779,-130.5 779,-113.5 773,-113.5"/>
<text text-anchor="start" x="774" y="-118.3" font-family="Times,serif" font-size="14.00"> </text>
<polygon fill="none" stroke="black" points="779,-113.5 779,-130.5 785,-130.5 785,-113.5 779,-113.5"/>
<text text-anchor="start" x="780" y="-118.3" font-family="Times,serif" font-size="14.00"> </text>
<polygon fill="none" stroke="black" points="785,-113.5 785,-130.5 794,-130.5 794,-113.5 785,-113.5"/>
<text text-anchor="start" x="786" y="-118.3" font-family="Times,serif" font-size="14.00">o</text>
</g>
<!-- 111111111&#45;&gt;11111111O -->
<g id="edge17" class="edge">
<title>111111111&#45;&gt;11111111O</title>
<path fill="none" stroke="black" d="M522.12,-243.56C569.82,-234.11 670.92,-210.6 747,-169 747.09,-168.95 747.18,-168.9 747.28,-168.85"/>
<polygon fill="black" stroke="black" points="749.1,-171.83 755.75,-163.58 745.41,-165.89 749.1,-171.83"/>
<text text-anchor="middle" x="710.5" y="-190.8" font-family="Times,serif" font-size="14.00">&#45;</text>
</g>
<!-- XO1111111 -->
<g id="node4" class="node">
<title>XO1111111</title>
<polygon fill="none" stroke="black" points="15,-37.5 15,-54.5 24,-54.5 24,-37.5 15,-37.5"/>
<text text-anchor="start" x="16" y="-42.3" font-family="Times,serif" font-size="14.00">x</text>
<polygon fill="none" stroke="black" points="24,-37.5 24,-54.5 33,-54.5 33,-37.5 24,-37.5"/>
<text text-anchor="start" x="25" y="-42.3" font-family="Times,serif" font-size="14.00">o</text>
<polygon fill="none" stroke="black" points="33,-37.5 33,-54.5 39,-54.5 39,-37.5 33,-37.5"/>
<text text-anchor="start" x="34" y="-42.3" font-family="Times,serif" font-size="14.00"> </text>
<polygon fill="none" stroke="black" points="15,-20.5 15,-37.5 24,-37.5 24,-20.5 15,-20.5"/>
<text text-anchor="start" x="17.5" y="-25.3" font-family="Times,serif" font-size="14.00"> </text>
<polygon fill="none" stroke="black" points="24,-20.5 24,-37.5 33,-37.5 33,-20.5 24,-20.5"/>
<text text-anchor="start" x="26.5" y="-25.3" font-family="Times,serif" font-size="14.00"> </text>
<polygon fill="none" stroke="black" points="33,-20.5 33,-37.5 39,-37.5 39,-20.5 33,-20.5"/>
<text text-anchor="start" x="34" y="-25.3" font-family="Times,serif" font-size="14.00"> </text>
<polygon fill="none" stroke="black" points="15,-3.5 15,-20.5 24,-20.5 24,-3.5 15,-3.5"/>
<text text-anchor="start" x="17.5" y="-8.3" font-family="Times,serif" font-size="14.00"> </text>
<polygon fill="none" stroke="black" points="24,-3.5 24,-20.5 33,-20.5 33,-3.5 24,-3.5"/>
<text text-anchor="start" x="26.5" y="-8.3" font-family="Times,serif" font-size="14.00"> </text>
<polygon fill="none" stroke="black" points="33,-3.5 33,-20.5 39,-20.5 39,-3.5 33,-3.5"/>
<text text-anchor="start" x="34" y="-8.3" font-family="Times,serif" font-size="14.00"> </text>
</g>
<!-- 1O1111111&#45;&gt;XO1111111 -->
<g id="edge2" class="edge">
<title>1O1111111&#45;&gt;XO1111111</title>
<path fill="none" stroke="black" d="M251.93,-115.06C249.03,-113.17 246.03,-111.43 243,-110 209.29,-94.01 196.96,-101.97 161,-92 116.71,-79.72 103.39,-80.92 63,-59 62.91,-58.95 62.82,-58.9 62.72,-58.85"/>
<polygon fill="black" stroke="black" points="64.59,-55.89 54.24,-53.6 60.91,-61.84 64.59,-55.89"/>
<text text-anchor="middle" x="163.5" y="-80.8" font-family="Times,serif" font-size="14.00">&#45;</text>
</g>
<!-- 1OX111111 -->
<g id="node5" class="node">
<title>1OX111111</title>
<polygon fill="none" stroke="black" points="87,-37.5 87,-54.5 93,-54.5 93,-37.5 87,-37.5"/>
<text text-anchor="start" x="88" y="-42.3" font-family="Times,serif" font-size="14.00"> </text>
<polygon fill="none" stroke="black" points="93,-37.5 93,-54.5 102,-54.5 102,-37.5 93,-37.5"/>
<text text-anchor="start" x="94" y="-42.3" font-family="Times,serif" font-size="14.00">o</text>
<polygon fill="none" stroke="black" points="102,-37.5 102,-54.5 111,-54.5 111,-37.5 102,-37.5"/>
<text text-anchor="start" x="103" y="-42.3" font-family="Times,serif" font-size="14.00">x</text>
<polygon fill="none" stroke="black" points="87,-20.5 87,-37.5 93,-37.5 93,-20.5 87,-20.5"/>
<text text-anchor="start" x="88" y="-25.3" font-family="Times,serif" font-size="14.00"> </text>
<polygon fill="none" stroke="black" points="93,-20.5 93,-37.5 102,-37.5 102,-20.5 93,-20.5"/>
<text text-anchor="start" x="95.5" y="-25.3" font-family="Times,serif" font-size="14.00"> </text>
<polygon fill="none" stroke="black" points="102,-20.5 102,-37.5 111,-37.5 111,-20.5 102,-20.5"/>
<text text-anchor="start" x="104.5" y="-25.3" font-family="Times,serif" font-size="14.00"> </text>
<polygon fill="none" stroke="black" points="87,-3.5 87,-20.5 93,-20.5 93,-3.5 87,-3.5"/>
<text text-anchor="start" x="88" y="-8.3" font-family="Times,serif" font-size="14.00"> </text>
<polygon fill="none" stroke="black" points="93,-3.5 93,-20.5 102,-20.5 102,-3.5 93,-3.5"/>
<text text-anchor="start" x="95.5" y="-8.3" font-family="Times,serif" font-size="14.00"> </text>
<polygon fill="none" stroke="black" points="102,-3.5 102,-20.5 111,-20.5 111,-3.5 102,-3.5"/>
<text text-anchor="start" x="104.5" y="-8.3" font-family="Times,serif" font-size="14.00"> </text>
</g>
<!-- 1O1111111&#45;&gt;1OX111111 -->
<g id="edge3" class="edge">
<title>1O1111111&#45;&gt;1OX111111</title>
<path fill="none" stroke="black" d="M251.96,-116.04C249,-113.91 245.98,-111.85 243,-110 197.9,-82.01 180.1,-86.99 135,-59 134.81,-58.88 134.63,-58.77 134.44,-58.65"/>
<polygon fill="black" stroke="black" points="136.29,-55.67 126.04,-52.96 132.36,-61.47 136.29,-55.67"/>
<text text-anchor="middle" x="211.5" y="-80.8" font-family="Times,serif" font-size="14.00">&#45;</text>
</g>
<!-- 1O1X11111 -->
<g id="node6" class="node">
<title>1O1X11111</title>
<polygon fill="none" stroke="black" points="159,-37.5 159,-54.5 168,-54.5 168,-37.5 159,-37.5"/>
<text text-anchor="start" x="161.5" y="-42.3" font-family="Times,serif" font-size="14.00"> </text>
<polygon fill="none" stroke="black" points="168,-37.5 168,-54.5 177,-54.5 177,-37.5 168,-37.5"/>
<text text-anchor="start" x="169" y="-42.3" font-family="Times,serif" font-size="14.00">o</text>
<polygon fill="none" stroke="black" points="177,-37.5 177,-54.5 183,-54.5 183,-37.5 177,-37.5"/>
<text text-anchor="start" x="178" y="-42.3" font-family="Times,serif" font-size="14.00"> </text>
<polygon fill="none" stroke="black" points="159,-20.5 159,-37.5 168,-37.5 168,-20.5 159,-20.5"/>
<text text-anchor="start" x="160" y="-25.3" font-family="Times,serif" font-size="14.00">x</text>
<polygon fill="none" stroke="black" points="168,-20.5 168,-37.5 177,-37.5 177,-20.5 168,-20.5"/>
<text text-anchor="start" x="170.5" y="-25.3" font-family="Times,serif" font-size="14.00"> </text>
<polygon fill="none" stroke="black" points="177,-20.5 177,-37.5 183,-37.5 183,-20.5 177,-20.5"/>
<text text-anchor="start" x="178" y="-25.3" font-family="Times,serif" font-size="14.00"> </text>
<polygon fill="none" stroke="black" points="159,-3.5 159,-20.5 168,-20.5 168,-3.5 159,-3.5"/>
<text text-anchor="start" x="161.5" y="-8.3" font-family="Times,serif" font-size="14.00"> </text>
<polygon fill="none" stroke="black" points="168,-3.5 168,-20.5 177,-20.5 177,-3.5 168,-3.5"/>
<text text-anchor="start" x="170.5" y="-8.3" font-family="Times,serif" font-size="14.00"> </text>
<polygon fill="none" stroke="black" points="177,-3.5 177,-20.5 183,-20.5 183,-3.5 177,-3.5"/>
<text text-anchor="start" x="178" y="-8.3" font-family="Times,serif" font-size="14.00"> </text>
</g>
<!-- 1O1111111&#45;&gt;1O1X11111 -->
<g id="edge4" class="edge">
<title>1O1111111&#45;&gt;1O1X11111</title>
<path fill="none" stroke="black" d="M251.75,-111.25C237.68,-97.18 220.37,-79.87 205.39,-64.89"/>
<polygon fill="black" stroke="black" points="207.79,-62.34 198.24,-57.74 202.84,-67.29 207.79,-62.34"/>
<text text-anchor="middle" x="237" y="-80.8" font-family="Times,serif" font-size="14.00">O</text>
</g>
<!-- 1O11X1111 -->
<g id="node7" class="node">
<title>1O11X1111</title>
<polygon fill="none" stroke="black" points="233,-37.5 233,-54.5 239,-54.5 239,-37.5 233,-37.5"/>
<text text-anchor="start" x="234" y="-42.3" font-family="Times,serif" font-size="14.00"> </text>
<polygon fill="none" stroke="black" points="239,-37.5 239,-54.5 248,-54.5 248,-37.5 239,-37.5"/>
<text text-anchor="start" x="240" y="-42.3" font-family="Times,serif" font-size="14.00">o</text>
<polygon fill="none" stroke="black" points="248,-37.5 248,-54.5 254,-54.5 254,-37.5 248,-37.5"/>
<text text-anchor="start" x="249" y="-42.3" font-family="Times,serif" font-size="14.00"> </text>
<polygon fill="none" stroke="black" points="233,-20.5 233,-37.5 239,-37.5 239,-20.5 233,-20.5"/>
<text text-anchor="start" x="234" y="-25.3" font-family="Times,serif" font-size="14.00"> </text>
<polygon fill="none" stroke="black" points="239,-20.5 239,-37.5 248,-37.5 248,-20.5 239,-20.5"/>
<text text-anchor="start" x="240" y="-25.3" font-family="Times,serif" font-size="14.00">x</text>
<polygon fill="none" stroke="black" points="248,-20.5 248,-37.5 254,-37.5 254,-20.5 248,-20.5"/>
<text text-anchor="start" x="249" y="-25.3" font-family="Times,serif" font-size="14.00"> </text>
<polygon fill="none" stroke="black" points="233,-3.5 233,-20.5 239,-20.5 239,-3.5 233,-3.5"/>
<text text-anchor="start" x="234" y="-8.3" font-family="Times,serif" font-size="14.00"> </text>
<polygon fill="none" stroke="black" points="239,-3.5 239,-20.5 248,-20.5 248,-3.5 239,-3.5"/>
<text text-anchor="start" x="241.5" y="-8.3" font-family="Times,serif" font-size="14.00"> </text>
<polygon fill="none" stroke="black" points="248,-3.5 248,-20.5 254,-20.5 254,-3.5 248,-3.5"/>
<text text-anchor="start" x="249" y="-8.3" font-family="Times,serif" font-size="14.00"> </text>
</g>
<!-- 1O1111111&#45;&gt;1O11X1111 -->
<g id="edge5" class="edge">
<title>1O1111111&#45;&gt;1O11X1111</title>
<path fill="none" stroke="black" d="M269.45,-109.84C265.26,-97.27 260.28,-82.33 255.77,-68.82"/>
<polygon fill="black" stroke="black" points="259.08,-67.67 252.6,-59.29 252.44,-69.89 259.08,-67.67"/>
<text text-anchor="middle" x="266.5" y="-80.8" font-family="Times,serif" font-size="14.00">&#45;</text>
</g>
<!-- 1O111X111 -->
<g id="node8" class="node">
<title>1O111X111</title>
<polygon fill="none" stroke="black" points="303,-37.5 303,-54.5 309,-54.5 309,-37.5 303,-37.5"/>
<text text-anchor="start" x="304" y="-42.3" font-family="Times,serif" font-size="14.00"> </text>
<polygon fill="none" stroke="black" points="309,-37.5 309,-54.5 318,-54.5 318,-37.5 309,-37.5"/>
<text text-anchor="start" x="310" y="-42.3" font-family="Times,serif" font-size="14.00">o</text>
<polygon fill="none" stroke="black" points="318,-37.5 318,-54.5 327,-54.5 327,-37.5 318,-37.5"/>
<text text-anchor="start" x="320.5" y="-42.3" font-family="Times,serif" font-size="14.00"> </text>
<polygon fill="none" stroke="black" points="303,-20.5 303,-37.5 309,-37.5 309,-20.5 303,-20.5"/>
<text text-anchor="start" x="304" y="-25.3" font-family="Times,serif" font-size="14.00"> </text>
<polygon fill="none" stroke="black" points="309,-20.5 309,-37.5 318,-37.5 318,-20.5 309,-20.5"/>
<text text-anchor="start" x="311.5" y="-25.3" font-family="Times,serif" font-size="14.00"> </text>
<polygon fill="none" stroke="black" points="318,-20.5 318,-37.5 327,-37.5 327,-20.5 318,-20.5"/>
<text text-anchor="start" x="319" y="-25.3" font-family="Times,serif" font-size="14.00">x</text>
<polygon fill="none" stroke="black" points="303,-3.5 303,-20.5 309,-20.5 309,-3.5 303,-3.5"/>
<text text-anchor="start" x="304" y="-8.3" font-family="Times,serif" font-size="14.00"> </text>
<polygon fill="none" stroke="black" points="309,-3.5 309,-20.5 318,-20.5 318,-3.5 309,-3.5"/>
<text text-anchor="start" x="311.5" y="-8.3" font-family="Times,serif" font-size="14.00"> </text>
<polygon fill="none" stroke="black" points="318,-3.5 318,-20.5 327,-20.5 327,-3.5 318,-3.5"/>
<text text-anchor="start" x="320.5" y="-8.3" font-family="Times,serif" font-size="14.00"> </text>
</g>
<!-- 1O1111111&#45;&gt;1O111X111 -->
<g id="edge6" class="edge">
<title>1O1111111&#45;&gt;1O111X111</title>
<path fill="none" stroke="black" d="M288.55,-109.84C292.74,-97.27 297.72,-82.33 302.23,-68.82"/>
<polygon fill="black" stroke="black" points="305.56,-69.89 305.4,-59.29 298.92,-67.67 305.56,-69.89"/>
<text text-anchor="middle" x="305" y="-80.8" font-family="Times,serif" font-size="14.00">O</text>
</g>
<!-- 1O1111X11 -->
<g id="node9" class="node">
<title>1O1111X11</title>
<polygon fill="none" stroke="black" points="375,-37.5 375,-54.5 384,-54.5 384,-37.5 375,-37.5"/>
<text text-anchor="start" x="377.5" y="-42.3" font-family="Times,serif" font-size="14.00"> </text>
<polygon fill="none" stroke="black" points="384,-37.5 384,-54.5 393,-54.5 393,-37.5 384,-37.5"/>
<text text-anchor="start" x="385" y="-42.3" font-family="Times,serif" font-size="14.00">o</text>
<polygon fill="none" stroke="black" points="393,-37.5 393,-54.5 399,-54.5 399,-37.5 393,-37.5"/>
<text text-anchor="start" x="394" y="-42.3" font-family="Times,serif" font-size="14.00"> </text>
<polygon fill="none" stroke="black" points="375,-20.5 375,-37.5 384,-37.5 384,-20.5 375,-20.5"/>
<text text-anchor="start" x="377.5" y="-25.3" font-family="Times,serif" font-size="14.00"> </text>
<polygon fill="none" stroke="black" points="384,-20.5 384,-37.5 393,-37.5 393,-20.5 384,-20.5"/>
<text text-anchor="start" x="386.5" y="-25.3" font-family="Times,serif" font-size="14.00"> </text>
<polygon fill="none" stroke="black" points="393,-20.5 393,-37.5 399,-37.5 399,-20.5 393,-20.5"/>
<text text-anchor="start" x="394" y="-25.3" font-family="Times,serif" font-size="14.00"> </text>
<polygon fill="none" stroke="black" points="375,-3.5 375,-20.5 384,-20.5 384,-3.5 375,-3.5"/>
<text text-anchor="start" x="376" y="-8.3" font-family="Times,serif" font-size="14.00">x</text>
<polygon fill="none" stroke="black" points="384,-3.5 384,-20.5 393,-20.5 393,-3.5 384,-3.5"/>
<text text-anchor="start" x="386.5" y="-8.3" font-family="Times,serif" font-size="14.00"> </text>
<polygon fill="none" stroke="black" points="393,-3.5 393,-20.5 399,-20.5 399,-3.5 393,-3.5"/>
<text text-anchor="start" x="394" y="-8.3" font-family="Times,serif" font-size="14.00"> </text>
</g>
<!-- 1O1111111&#45;&gt;1O1111X11 -->
<g id="edge7" class="edge">
<title>1O1111111&#45;&gt;1O1111X11</title>
<path fill="none" stroke="black" d="M306.25,-111.25C320.32,-97.18 337.63,-79.87 352.61,-64.89"/>
<polygon fill="black" stroke="black" points="355.16,-67.29 359.76,-57.74 350.21,-62.34 355.16,-67.29"/>
<text text-anchor="middle" x="345" y="-80.8" font-family="Times,serif" font-size="14.00">O</text>
</g>
<!-- 1O11111X1 -->
<g id="node10" class="node">
<title>1O11111X1</title>
<polygon fill="none" stroke="black" points="449,-37.5 449,-54.5 455,-54.5 455,-37.5 449,-37.5"/>
<text text-anchor="start" x="450" y="-42.3" font-family="Times,serif" font-size="14.00"> </text>
<polygon fill="none" stroke="black" points="455,-37.5 455,-54.5 464,-54.5 464,-37.5 455,-37.5"/>
<text text-anchor="start" x="456" y="-42.3" font-family="Times,serif" font-size="14.00">o</text>
<polygon fill="none" stroke="black" points="464,-37.5 464,-54.5 470,-54.5 470,-37.5 464,-37.5"/>
<text text-anchor="start" x="465" y="-42.3" font-family="Times,serif" font-size="14.00"> </text>
<polygon fill="none" stroke="black" points="449,-20.5 449,-37.5 455,-37.5 455,-20.5 449,-20.5"/>
<text text-anchor="start" x="450" y="-25.3" font-family="Times,serif" font-size="14.00"> </text>
<polygon fill="none" stroke="black" points="455,-20.5 455,-37.5 464,-37.5 464,-20.5 455,-20.5"/>
<text text-anchor="start" x="457.5" y="-25.3" font-family="Times,serif" font-size="14.00"> </text>
<polygon fill="none" stroke="black" points="464,-20.5 464,-37.5 470,-37.5 470,-20.5 464,-20.5"/>
<text text-anchor="start" x="465" y="-25.3" font-family="Times,serif" font-size="14.00"> </text>
<polygon fill="none" stroke="black" points="449,-3.5 449,-20.5 455,-20.5 455,-3.5 449,-3.5"/>
<text text-anchor="start" x="450" y="-8.3" font-family="Times,serif" font-size="14.00"> </text>
<polygon fill="none" stroke="black" points="455,-3.5 455,-20.5 464,-20.5 464,-3.5 455,-3.5"/>
<text text-anchor="start" x="456" y="-8.3" font-family="Times,serif" font-size="14.00">x</text>
<polygon fill="none" stroke="black" points="464,-3.5 464,-20.5 470,-20.5 470,-3.5 464,-3.5"/>
<text text-anchor="start" x="465" y="-8.3" font-family="Times,serif" font-size="14.00"> </text>
</g>
<!-- 1O1111111&#45;&gt;1O11111X1 -->
<g id="edge8" class="edge">
<title>1O1111111&#45;&gt;1O11111X1</title>
<path fill="none" stroke="black" d="M306.03,-116.01C308.99,-113.88 312.01,-111.84 315,-110 331.26,-100.01 336.72,-100.12 354,-92 384.77,-77.54 394.16,-77 423,-59 423.19,-58.88 423.37,-58.77 423.56,-58.65"/>
<polygon fill="black" stroke="black" points="425.65,-61.46 431.95,-52.94 421.71,-55.67 425.65,-61.46"/>
<text text-anchor="middle" x="391.5" y="-80.8" font-family="Times,serif" font-size="14.00">&#45;</text>
</g>
<!-- 1O111111X -->
<g id="node11" class="node">
<title>1O111111X</title>
<polygon fill="none" stroke="black" points="519,-37.5 519,-54.5 525,-54.5 525,-37.5 519,-37.5"/>
<text text-anchor="start" x="520" y="-42.3" font-family="Times,serif" font-size="14.00"> </text>
<polygon fill="none" stroke="black" points="525,-37.5 525,-54.5 534,-54.5 534,-37.5 525,-37.5"/>
<text text-anchor="start" x="526" y="-42.3" font-family="Times,serif" font-size="14.00">o</text>
<polygon fill="none" stroke="black" points="534,-37.5 534,-54.5 543,-54.5 543,-37.5 534,-37.5"/>
<text text-anchor="start" x="536.5" y="-42.3" font-family="Times,serif" font-size="14.00"> </text>
<polygon fill="none" stroke="black" points="519,-20.5 519,-37.5 525,-37.5 525,-20.5 519,-20.5"/>
<text text-anchor="start" x="520" y="-25.3" font-family="Times,serif" font-size="14.00"> </text>
<polygon fill="none" stroke="black" points="525,-20.5 525,-37.5 534,-37.5 534,-20.5 525,-20.5"/>
<text text-anchor="start" x="527.5" y="-25.3" font-family="Times,serif" font-size="14.00"> </text>
<polygon fill="none" stroke="black" points="534,-20.5 534,-37.5 543,-37.5 543,-20.5 534,-20.5"/>
<text text-anchor="start" x="536.5" y="-25.3" font-family="Times,serif" font-size="14.00"> </text>
<polygon fill="none" stroke="black" points="519,-3.5 519,-20.5 525,-20.5 525,-3.5 519,-3.5"/>
<text text-anchor="start" x="520" y="-8.3" font-family="Times,serif" font-size="14.00"> </text>
<polygon fill="none" stroke="black" points="525,-3.5 525,-20.5 534,-20.5 534,-3.5 525,-3.5"/>
<text text-anchor="start" x="527.5" y="-8.3" font-family="Times,serif" font-size="14.00"> </text>
<polygon fill="none" stroke="black" points="534,-3.5 534,-20.5 543,-20.5 543,-3.5 534,-3.5"/>
<text text-anchor="start" x="535" y="-8.3" font-family="Times,serif" font-size="14.00">x</text>
</g>
<!-- 1O1111111&#45;&gt;1O111111X -->
<g id="edge9" class="edge">
<title>1O1111111&#45;&gt;1O111111X</title>
<path fill="none" stroke="black" d="M306.07,-115.05C308.97,-113.16 311.97,-111.43 315,-110 349.13,-93.87 361.63,-102.1 398,-92 441.88,-79.82 455.01,-80.78 495,-59 495.09,-58.95 495.18,-58.9 495.28,-58.85"/>
<polygon fill="black" stroke="black" points="497.1,-61.84 503.75,-53.59 493.41,-55.89 497.1,-61.84"/>
<text text-anchor="middle" x="460" y="-80.8" font-family="Times,serif" font-size="14.00">O</text>
</g>
</g>
</svg>
