<?xml version="1.0" encoding="UTF-8" standalone="no"?>
<!DOCTYPE svg PUBLIC "-//W3C//DTD SVG 1.1//EN"
 "http://www.w3.org/Graphics/SVG/1.1/DTD/svg11.dtd">
<!-- Generated by graphviz version 2.44.0 (20200408.0750)
 -->
<!-- Title: G Pages: 1 -->
<svg width="404pt" height="332pt"
 viewBox="0.00 0.00 403.74 332.00" xmlns="http://www.w3.org/2000/svg" xmlns:xlink="http://www.w3.org/1999/xlink">
<g id="graph0" class="graph" transform="scale(1 1) rotate(0) translate(4 328)">
<title>G</title>
<polygon fill="white" stroke="transparent" points="-4,4 -4,-328 399.74,-328 399.74,4 -4,4"/>
<!-- [4] -->
<g id="node1" class="node">
<title>[4]</title>
<ellipse fill="none" stroke="black" cx="36.4" cy="-18" rx="36.29" ry="18"/>
<text text-anchor="middle" x="36.4" y="-14.3" font-family="Times,serif" font-size="14.00">3: True</text>
</g>
<!-- [3] -->
<g id="node2" class="node">
<title>[3]</title>
<ellipse fill="none" stroke="black" cx="127.4" cy="-90" rx="38.19" ry="18"/>
<text text-anchor="middle" x="127.4" y="-86.3" font-family="Times,serif" font-size="14.00">4: False</text>
</g>
<!-- [3]&#45;&gt;[4] -->
<g id="edge1" class="edge">
<title>[3]&#45;&gt;[4]</title>
<path fill="none" stroke="black" d="M108.1,-74.15C95.1,-64.16 77.78,-50.83 63.42,-39.78"/>
<polygon fill="black" stroke="black" points="65.42,-36.91 55.36,-33.58 61.15,-42.46 65.42,-36.91"/>
</g>
<!-- [5] -->
<g id="node3" class="node">
<title>[5]</title>
<ellipse fill="none" stroke="black" cx="127.4" cy="-18" rx="36.29" ry="18"/>
<text text-anchor="middle" x="127.4" y="-14.3" font-family="Times,serif" font-size="14.00">2: True</text>
</g>
<!-- [3]&#45;&gt;[5] -->
<g id="edge2" class="edge">
<title>[3]&#45;&gt;[5]</title>
<path fill="none" stroke="black" d="M127.4,-71.7C127.4,-63.98 127.4,-54.71 127.4,-46.11"/>
<polygon fill="black" stroke="black" points="130.9,-46.1 127.4,-36.1 123.9,-46.1 130.9,-46.1"/>
</g>
<!-- [6] -->
<g id="node4" class="node">
<title>[6]</title>
<ellipse fill="none" stroke="black" cx="218.4" cy="-18" rx="36.29" ry="18"/>
<text text-anchor="middle" x="218.4" y="-14.3" font-family="Times,serif" font-size="14.00">1: True</text>
</g>
<!-- [3]&#45;&gt;[6] -->
<g id="edge3" class="edge">
<title>[3]&#45;&gt;[6]</title>
<path fill="none" stroke="black" d="M146.7,-74.15C159.69,-64.16 177.02,-50.83 191.38,-39.78"/>
<polygon fill="black" stroke="black" points="193.65,-42.46 199.44,-33.58 189.38,-36.91 193.65,-42.46"/>
</g>
<!-- [2] -->
<g id="node5" class="node">
<title>[2]</title>
<ellipse fill="none" stroke="black" cx="127.4" cy="-162" rx="36.29" ry="18"/>
<text text-anchor="middle" x="127.4" y="-158.3" font-family="Times,serif" font-size="14.00">5: True</text>
</g>
<!-- [2]&#45;&gt;[3] -->
<g id="edge4" class="edge">
<title>[2]&#45;&gt;[3]</title>
<path fill="none" stroke="black" d="M127.4,-143.7C127.4,-135.98 127.4,-126.71 127.4,-118.11"/>
<polygon fill="black" stroke="black" points="130.9,-118.1 127.4,-108.1 123.9,-118.1 130.9,-118.1"/>
</g>
<!-- [1] -->
<g id="node6" class="node">
<title>[1]</title>
<ellipse fill="none" stroke="black" cx="173.4" cy="-234" rx="36.29" ry="18"/>
<text text-anchor="middle" x="173.4" y="-230.3" font-family="Times,serif" font-size="14.00">6: True</text>
</g>
<!-- [1]&#45;&gt;[2] -->
<g id="edge5" class="edge">
<title>[1]&#45;&gt;[2]</title>
<path fill="none" stroke="black" d="M162.73,-216.76C157.12,-208.23 150.12,-197.58 143.84,-188.02"/>
<polygon fill="black" stroke="black" points="146.74,-186.07 138.33,-179.63 140.89,-189.91 146.74,-186.07"/>
</g>
<!-- [7] -->
<g id="node7" class="node">
<title>[7]</title>
<ellipse fill="lightgreen" stroke="black" cx="220.4" cy="-162" rx="38.19" ry="18"/>
<text text-anchor="middle" x="220.4" y="-158.3" font-family="Times,serif" font-size="14.00">4: False</text>
</g>
<!-- [1]&#45;&gt;[7] -->
<g id="edge6" class="edge">
<title>[1]&#45;&gt;[7]</title>
<path fill="none" stroke="black" d="M184.3,-216.76C190.03,-208.23 197.18,-197.58 203.6,-188.02"/>
<polygon fill="black" stroke="black" points="206.56,-189.89 209.23,-179.63 200.75,-185.98 206.56,-189.89"/>
</g>
<!-- [0] -->
<g id="node8" class="node">
<title>[0]</title>
<ellipse fill="none" stroke="black" cx="264.4" cy="-306" rx="36.29" ry="18"/>
<text text-anchor="middle" x="264.4" y="-302.3" font-family="Times,serif" font-size="14.00">7: True</text>
</g>
<!-- [0]&#45;&gt;[1] -->
<g id="edge7" class="edge">
<title>[0]&#45;&gt;[1]</title>
<path fill="none" stroke="black" d="M245.54,-290.5C232.49,-280.45 214.91,-266.93 200.38,-255.75"/>
<polygon fill="black" stroke="black" points="202.29,-252.81 192.23,-249.49 198.02,-258.36 202.29,-252.81"/>
</g>
<!-- [8] -->
<g id="node9" class="node">
<title>[8]</title>
<ellipse fill="lightgreen" stroke="black" cx="264.4" cy="-234" rx="36.29" ry="18"/>
<text text-anchor="middle" x="264.4" y="-230.3" font-family="Times,serif" font-size="14.00">5: True</text>
</g>
<!-- [0]&#45;&gt;[8] -->
<g id="edge8" class="edge">
<title>[0]&#45;&gt;[8]</title>
<path fill="none" stroke="black" d="M264.4,-287.7C264.4,-279.98 264.4,-270.71 264.4,-262.11"/>
<polygon fill="black" stroke="black" points="267.9,-262.1 264.4,-252.1 260.9,-262.1 267.9,-262.1"/>
</g>
<!-- [9] -->
<g id="node10" class="node">
<title>[9]</title>
<ellipse fill="lightgreen" stroke="black" cx="357.4" cy="-234" rx="38.19" ry="18"/>
<text text-anchor="middle" x="357.4" y="-230.3" font-family="Times,serif" font-size="14.00">4: False</text>
</g>
<!-- [0]&#45;&gt;[9] -->
<g id="edge9" class="edge">
<title>[0]&#45;&gt;[9]</title>
<path fill="none" stroke="black" d="M283.67,-290.5C296.92,-280.52 314.73,-267.11 329.53,-255.98"/>
<polygon fill="black" stroke="black" points="331.95,-258.54 337.83,-249.73 327.74,-252.94 331.95,-258.54"/>
</g>
</g>
</svg>
