<?xml version="1.0" encoding="UTF-8" standalone="no"?>
<!DOCTYPE svg PUBLIC "-//W3C//DTD SVG 1.1//EN"
 "http://www.w3.org/Graphics/SVG/1.1/DTD/svg11.dtd">
<!-- Generated by graphviz version 2.44.0 (20200408.0750)
 -->
<!-- Title: G Pages: 1 -->
<svg width="638pt" height="177pt"
 viewBox="0.00 0.00 638.00 177.00" xmlns="http://www.w3.org/2000/svg" xmlns:xlink="http://www.w3.org/1999/xlink">
<g id="graph0" class="graph" transform="scale(1 1) rotate(0) translate(4 173)">
<title>G</title>
<polygon fill="white" stroke="transparent" points="-4,4 -4,-173 634,-173 634,4 -4,4"/>
<!-- 111111111 -->
<g id="node1" class="node">
<title>111111111</title>
<polygon fill="none" stroke="black" points="306,-147.5 306,-164.5 312,-164.5 312,-147.5 306,-147.5"/>
<text text-anchor="start" x="307" y="-152.3" font-family="Times,serif" font-size="14.00"> </text>
<polygon fill="none" stroke="black" points="312,-147.5 312,-164.5 318,-164.5 318,-147.5 312,-147.5"/>
<text text-anchor="start" x="313" y="-152.3" font-family="Times,serif" font-size="14.00"> </text>
<polygon fill="none" stroke="black" points="318,-147.5 318,-164.5 324,-164.5 324,-147.5 318,-147.5"/>
<text text-anchor="start" x="319" y="-152.3" font-family="Times,serif" font-size="14.00"> </text>
<polygon fill="none" stroke="black" points="306,-130.5 306,-147.5 312,-147.5 312,-130.5 306,-130.5"/>
<text text-anchor="start" x="307" y="-135.3" font-family="Times,serif" font-size="14.00"> </text>
<polygon fill="none" stroke="black" points="312,-130.5 312,-147.5 318,-147.5 318,-130.5 312,-130.5"/>
<text text-anchor="start" x="313" y="-135.3" font-family="Times,serif" font-size="14.00"> </text>
<polygon fill="none" stroke="black" points="318,-130.5 318,-147.5 324,-147.5 324,-130.5 318,-130.5"/>
<text text-anchor="start" x="319" y="-135.3" font-family="Times,serif" font-size="14.00"> </text>
<polygon fill="none" stroke="black" points="306,-113.5 306,-130.5 312,-130.5 312,-113.5 306,-113.5"/>
<text text-anchor="start" x="307" y="-118.3" font-family="Times,serif" font-size="14.00"> </text>
<polygon fill="none" stroke="black" points="312,-113.5 312,-130.5 318,-130.5 318,-113.5 312,-113.5"/>
<text text-anchor="start" x="313" y="-118.3" font-family="Times,serif" font-size="14.00"> </text>
<polygon fill="none" stroke="black" points="318,-113.5 318,-130.5 324,-130.5 324,-113.5 318,-113.5"/>
<text text-anchor="start" x="319" y="-118.3" font-family="Times,serif" font-size="14.00"> </text>
</g>
<!-- O11111111 -->
<g id="node2" class="node">
<title>O11111111</title>
<polygon fill="none" stroke="black" points="17,-37.5 17,-54.5 26,-54.5 26,-37.5 17,-37.5"/>
<text text-anchor="start" x="18" y="-42.3" font-family="Times,serif" font-size="14.00">o</text>
<polygon fill="none" stroke="black" points="26,-37.5 26,-54.5 32,-54.5 32,-37.5 26,-37.5"/>
<text text-anchor="start" x="27" y="-42.3" font-family="Times,serif" font-size="14.00"> </text>
<polygon fill="none" stroke="black" points="32,-37.5 32,-54.5 38,-54.5 38,-37.5 32,-37.5"/>
<text text-anchor="start" x="33" y="-42.3" font-family="Times,serif" font-size="14.00"> </text>
<polygon fill="none" stroke="black" points="17,-20.5 17,-37.5 26,-37.5 26,-20.5 17,-20.5"/>
<text text-anchor="start" x="19.5" y="-25.3" font-family="Times,serif" font-size="14.00"> </text>
<polygon fill="none" stroke="black" points="26,-20.5 26,-37.5 32,-37.5 32,-20.5 26,-20.5"/>
<text text-anchor="start" x="27" y="-25.3" font-family="Times,serif" font-size="14.00"> </text>
<polygon fill="none" stroke="black" points="32,-20.5 32,-37.5 38,-37.5 38,-20.5 32,-20.5"/>
<text text-anchor="start" x="33" y="-25.3" font-family="Times,serif" font-size="14.00"> </text>
<polygon fill="none" stroke="black" points="17,-3.5 17,-20.5 26,-20.5 26,-3.5 17,-3.5"/>
<text text-anchor="start" x="19.5" y="-8.3" font-family="Times,serif" font-size="14.00"> </text>
<polygon fill="none" stroke="black" points="26,-3.5 26,-20.5 32,-20.5 32,-3.5 26,-3.5"/>
<text text-anchor="start" x="27" y="-8.3" font-family="Times,serif" font-size="14.00"> </text>
<polygon fill="none" stroke="black" points="32,-3.5 32,-20.5 38,-20.5 38,-3.5 32,-3.5"/>
<text text-anchor="start" x="33" y="-8.3" font-family="Times,serif" font-size="14.00"> </text>
</g>
<!-- 111111111&#45;&gt;O11111111 -->
<g id="edge1" class="edge">
<title>111111111&#45;&gt;O11111111</title>
<path fill="none" stroke="black" d="M287.88,-133.56C240.18,-124.11 139.08,-100.6 63,-59 62.91,-58.95 62.82,-58.9 62.72,-58.85"/>
<polygon fill="black" stroke="black" points="64.59,-55.89 54.25,-53.58 60.9,-61.83 64.59,-55.89"/>
<text text-anchor="middle" x="138.5" y="-80.8" font-family="Times,serif" font-size="14.00">&#45;</text>
</g>
<!-- 1O1111111 -->
<g id="node3" class="node">
<title>1O1111111</title>
<polygon fill="none" stroke="black" points="89,-37.5 89,-54.5 95,-54.5 95,-37.5 89,-37.5"/>
<text text-anchor="start" x="90" y="-42.3" font-family="Times,serif" font-size="14.00"> </text>
<polygon fill="none" stroke="black" points="95,-37.5 95,-54.5 104,-54.5 104,-37.5 95,-37.5"/>
<text text-anchor="start" x="96" y="-42.3" font-family="Times,serif" font-size="14.00">o</text>
<polygon fill="none" stroke="black" points="104,-37.5 104,-54.5 110,-54.5 110,-37.5 104,-37.5"/>
<text text-anchor="start" x="105" y="-42.3" font-family="Times,serif" font-size="14.00"> </text>
<polygon fill="none" stroke="black" points="89,-20.5 89,-37.5 95,-37.5 95,-20.5 89,-20.5"/>
<text text-anchor="start" x="90" y="-25.3" font-family="Times,serif" font-size="14.00"> </text>
<polygon fill="none" stroke="black" points="95,-20.5 95,-37.5 104,-37.5 104,-20.5 95,-20.5"/>
<text text-anchor="start" x="97.5" y="-25.3" font-family="Times,serif" font-size="14.00"> </text>
<polygon fill="none" stroke="black" points="104,-20.5 104,-37.5 110,-37.5 110,-20.5 104,-20.5"/>
<text text-anchor="start" x="105" y="-25.3" font-family="Times,serif" font-size="14.00"> </text>
<polygon fill="none" stroke="black" points="89,-3.5 89,-20.5 95,-20.5 95,-3.5 89,-3.5"/>
<text text-anchor="start" x="90" y="-8.3" font-family="Times,serif" font-size="14.00"> </text>
<polygon fill="none" stroke="black" points="95,-3.5 95,-20.5 104,-20.5 104,-3.5 95,-3.5"/>
<text text-anchor="start" x="97.5" y="-8.3" font-family="Times,serif" font-size="14.00"> </text>
<polygon fill="none" stroke="black" points="104,-3.5 104,-20.5 110,-20.5 110,-3.5 104,-3.5"/>
<text text-anchor="start" x="105" y="-8.3" font-family="Times,serif" font-size="14.00"> </text>
</g>
<!-- 111111111&#45;&gt;1O1111111 -->
<g id="edge2" class="edge">
<title>111111111&#45;&gt;1O1111111</title>
<path fill="none" stroke="black" d="M287.72,-128.93C251.51,-115.69 186.19,-89.88 135,-59 134.91,-58.95 134.82,-58.89 134.73,-58.84"/>
<polygon fill="black" stroke="black" points="136.67,-55.92 126.4,-53.33 132.81,-61.76 136.67,-55.92"/>
<text text-anchor="middle" x="200.5" y="-80.8" font-family="Times,serif" font-size="14.00">&#45;</text>
</g>
<!-- 11O111111 -->
<g id="node4" class="node">
<title>11O111111</title>
<polygon fill="none" stroke="black" points="161,-37.5 161,-54.5 167,-54.5 167,-37.5 161,-37.5"/>
<text text-anchor="start" x="162" y="-42.3" font-family="Times,serif" font-size="14.00"> </text>
<polygon fill="none" stroke="black" points="167,-37.5 167,-54.5 173,-54.5 173,-37.5 167,-37.5"/>
<text text-anchor="start" x="168" y="-42.3" font-family="Times,serif" font-size="14.00"> </text>
<polygon fill="none" stroke="black" points="173,-37.5 173,-54.5 182,-54.5 182,-37.5 173,-37.5"/>
<text text-anchor="start" x="174" y="-42.3" font-family="Times,serif" font-size="14.00">o</text>
<polygon fill="none" stroke="black" points="161,-20.5 161,-37.5 167,-37.5 167,-20.5 161,-20.5"/>
<text text-anchor="start" x="162" y="-25.3" font-family="Times,serif" font-size="14.00"> </text>
<polygon fill="none" stroke="black" points="167,-20.5 167,-37.5 173,-37.5 173,-20.5 167,-20.5"/>
<text text-anchor="start" x="168" y="-25.3" font-family="Times,serif" font-size="14.00"> </text>
<polygon fill="none" stroke="black" points="173,-20.5 173,-37.5 182,-37.5 182,-20.5 173,-20.5"/>
<text text-anchor="start" x="175.5" y="-25.3" font-family="Times,serif" font-size="14.00"> </text>
<polygon fill="none" stroke="black" points="161,-3.5 161,-20.5 167,-20.5 167,-3.5 161,-3.5"/>
<text text-anchor="start" x="162" y="-8.3" font-family="Times,serif" font-size="14.00"> </text>
<polygon fill="none" stroke="black" points="167,-3.5 167,-20.5 173,-20.5 173,-3.5 167,-3.5"/>
<text text-anchor="start" x="168" y="-8.3" font-family="Times,serif" font-size="14.00"> </text>
<polygon fill="none" stroke="black" points="173,-3.5 173,-20.5 182,-20.5 182,-3.5 173,-3.5"/>
<text text-anchor="start" x="175.5" y="-8.3" font-family="Times,serif" font-size="14.00"> </text>
</g>
<!-- 111111111&#45;&gt;11O111111 -->
<g id="edge3" class="edge">
<title>111111111&#45;&gt;11O111111</title>
<path fill="none" stroke="black" d="M287.73,-118.83C265.78,-102.9 234.2,-79.77 207,-59 206.73,-58.79 206.45,-58.58 206.18,-58.37"/>
<polygon fill="black" stroke="black" points="208.1,-55.43 198.05,-52.08 203.81,-60.97 208.1,-55.43"/>
<text text-anchor="middle" x="251.5" y="-80.8" font-family="Times,serif" font-size="14.00">&#45;</text>
</g>
<!-- 111O11111 -->
<g id="node5" class="node">
<title>111O11111</title>
<polygon fill="none" stroke="black" points="233,-37.5 233,-54.5 242,-54.5 242,-37.5 233,-37.5"/>
<text text-anchor="start" x="235.5" y="-42.3" font-family="Times,serif" font-size="14.00"> </text>
<polygon fill="none" stroke="black" points="242,-37.5 242,-54.5 248,-54.5 248,-37.5 242,-37.5"/>
<text text-anchor="start" x="243" y="-42.3" font-family="Times,serif" font-size="14.00"> </text>
<polygon fill="none" stroke="black" points="248,-37.5 248,-54.5 254,-54.5 254,-37.5 248,-37.5"/>
<text text-anchor="start" x="249" y="-42.3" font-family="Times,serif" font-size="14.00"> </text>
<polygon fill="none" stroke="black" points="233,-20.5 233,-37.5 242,-37.5 242,-20.5 233,-20.5"/>
<text text-anchor="start" x="234" y="-25.3" font-family="Times,serif" font-size="14.00">o</text>
<polygon fill="none" stroke="black" points="242,-20.5 242,-37.5 248,-37.5 248,-20.5 242,-20.5"/>
<text text-anchor="start" x="243" y="-25.3" font-family="Times,serif" font-size="14.00"> </text>
<polygon fill="none" stroke="black" points="248,-20.5 248,-37.5 254,-37.5 254,-20.5 248,-20.5"/>
<text text-anchor="start" x="249" y="-25.3" font-family="Times,serif" font-size="14.00"> </text>
<polygon fill="none" stroke="black" points="233,-3.5 233,-20.5 242,-20.5 242,-3.5 233,-3.5"/>
<text text-anchor="start" x="235.5" y="-8.3" font-family="Times,serif" font-size="14.00"> </text>
<polygon fill="none" stroke="black" points="242,-3.5 242,-20.5 248,-20.5 248,-3.5 242,-3.5"/>
<text text-anchor="start" x="243" y="-8.3" font-family="Times,serif" font-size="14.00"> </text>
<polygon fill="none" stroke="black" points="248,-3.5 248,-20.5 254,-20.5 254,-3.5 248,-3.5"/>
<text text-anchor="start" x="249" y="-8.3" font-family="Times,serif" font-size="14.00"> </text>
</g>
<!-- 111111111&#45;&gt;111O11111 -->
<g id="edge4" class="edge">
<title>111111111&#45;&gt;111O11111</title>
<path fill="none" stroke="black" d="M295.89,-109.84C287.27,-96.9 276.97,-81.46 267.76,-67.64"/>
<polygon fill="black" stroke="black" points="270.65,-65.67 262.19,-59.29 264.83,-69.55 270.65,-65.67"/>
<text text-anchor="middle" x="286.5" y="-80.8" font-family="Times,serif" font-size="14.00">&#45;</text>
</g>
<!-- 1111O1111 -->
<g id="node6" class="node">
<title>1111O1111</title>
<polygon fill="none" stroke="black" points="305,-37.5 305,-54.5 311,-54.5 311,-37.5 305,-37.5"/>
<text text-anchor="start" x="306" y="-42.3" font-family="Times,serif" font-size="14.00"> </text>
<polygon fill="none" stroke="black" points="311,-37.5 311,-54.5 320,-54.5 320,-37.5 311,-37.5"/>
<text text-anchor="start" x="313.5" y="-42.3" font-family="Times,serif" font-size="14.00"> </text>
<polygon fill="none" stroke="black" points="320,-37.5 320,-54.5 326,-54.5 326,-37.5 320,-37.5"/>
<text text-anchor="start" x="321" y="-42.3" font-family="Times,serif" font-size="14.00"> </text>
<polygon fill="none" stroke="black" points="305,-20.5 305,-37.5 311,-37.5 311,-20.5 305,-20.5"/>
<text text-anchor="start" x="306" y="-25.3" font-family="Times,serif" font-size="14.00"> </text>
<polygon fill="none" stroke="black" points="311,-20.5 311,-37.5 320,-37.5 320,-20.5 311,-20.5"/>
<text text-anchor="start" x="312" y="-25.3" font-family="Times,serif" font-size="14.00">o</text>
<polygon fill="none" stroke="black" points="320,-20.5 320,-37.5 326,-37.5 326,-20.5 320,-20.5"/>
<text text-anchor="start" x="321" y="-25.3" font-family="Times,serif" font-size="14.00"> </text>
<polygon fill="none" stroke="black" points="305,-3.5 305,-20.5 311,-20.5 311,-3.5 305,-3.5"/>
<text text-anchor="start" x="306" y="-8.3" font-family="Times,serif" font-size="14.00"> </text>
<polygon fill="none" stroke="black" points="311,-3.5 311,-20.5 320,-20.5 320,-3.5 311,-3.5"/>
<text text-anchor="start" x="313.5" y="-8.3" font-family="Times,serif" font-size="14.00"> </text>
<polygon fill="none" stroke="black" points="320,-3.5 320,-20.5 326,-20.5 326,-3.5 320,-3.5"/>
<text text-anchor="start" x="321" y="-8.3" font-family="Times,serif" font-size="14.00"> </text>
</g>
<!-- 111111111&#45;&gt;1111O1111 -->
<g id="edge5" class="edge">
<title>111111111&#45;&gt;1111O1111</title>
<path fill="none" stroke="black" d="M315,-109.84C315,-97.51 315,-82.91 315,-69.61"/>
<polygon fill="black" stroke="black" points="318.5,-69.29 315,-59.29 311.5,-69.29 318.5,-69.29"/>
<text text-anchor="middle" x="317.5" y="-80.8" font-family="Times,serif" font-size="14.00">&#45;</text>
</g>
<!-- 11111O111 -->
<g id="node7" class="node">
<title>11111O111</title>
<polygon fill="none" stroke="black" points="377,-37.5 377,-54.5 383,-54.5 383,-37.5 377,-37.5"/>
<text text-anchor="start" x="378" y="-42.3" font-family="Times,serif" font-size="14.00"> </text>
<polygon fill="none" stroke="black" points="383,-37.5 383,-54.5 389,-54.5 389,-37.5 383,-37.5"/>
<text text-anchor="start" x="384" y="-42.3" font-family="Times,serif" font-size="14.00"> </text>
<polygon fill="none" stroke="black" points="389,-37.5 389,-54.5 398,-54.5 398,-37.5 389,-37.5"/>
<text text-anchor="start" x="391.5" y="-42.3" font-family="Times,serif" font-size="14.00"> </text>
<polygon fill="none" stroke="black" points="377,-20.5 377,-37.5 383,-37.5 383,-20.5 377,-20.5"/>
<text text-anchor="start" x="378" y="-25.3" font-family="Times,serif" font-size="14.00"> </text>
<polygon fill="none" stroke="black" points="383,-20.5 383,-37.5 389,-37.5 389,-20.5 383,-20.5"/>
<text text-anchor="start" x="384" y="-25.3" font-family="Times,serif" font-size="14.00"> </text>
<polygon fill="none" stroke="black" points="389,-20.5 389,-37.5 398,-37.5 398,-20.5 389,-20.5"/>
<text text-anchor="start" x="390" y="-25.3" font-family="Times,serif" font-size="14.00">o</text>
<polygon fill="none" stroke="black" points="377,-3.5 377,-20.5 383,-20.5 383,-3.5 377,-3.5"/>
<text text-anchor="start" x="378" y="-8.3" font-family="Times,serif" font-size="14.00"> </text>
<polygon fill="none" stroke="black" points="383,-3.5 383,-20.5 389,-20.5 389,-3.5 383,-3.5"/>
<text text-anchor="start" x="384" y="-8.3" font-family="Times,serif" font-size="14.00"> </text>
<polygon fill="none" stroke="black" points="389,-3.5 389,-20.5 398,-20.5 398,-3.5 389,-3.5"/>
<text text-anchor="start" x="391.5" y="-8.3" font-family="Times,serif" font-size="14.00"> </text>
</g>
<!-- 111111111&#45;&gt;11111O111 -->
<g id="edge6" class="edge">
<title>111111111&#45;&gt;11111O111</title>
<path fill="none" stroke="black" d="M334.11,-109.84C342.73,-96.9 353.03,-81.46 362.24,-67.64"/>
<polygon fill="black" stroke="black" points="365.17,-69.55 367.81,-59.29 359.35,-65.67 365.17,-69.55"/>
<text text-anchor="middle" x="358.5" y="-80.8" font-family="Times,serif" font-size="14.00">&#45;</text>
</g>
<!-- 111111O11 -->
<g id="node8" class="node">
<title>111111O11</title>
<polygon fill="none" stroke="black" points="449,-37.5 449,-54.5 458,-54.5 458,-37.5 449,-37.5"/>
<text text-anchor="start" x="451.5" y="-42.3" font-family="Times,serif" font-size="14.00"> </text>
<polygon fill="none" stroke="black" points="458,-37.5 458,-54.5 464,-54.5 464,-37.5 458,-37.5"/>
<text text-anchor="start" x="459" y="-42.3" font-family="Times,serif" font-size="14.00"> </text>
<polygon fill="none" stroke="black" points="464,-37.5 464,-54.5 470,-54.5 470,-37.5 464,-37.5"/>
<text text-anchor="start" x="465" y="-42.3" font-family="Times,serif" font-size="14.00"> </text>
<polygon fill="none" stroke="black" points="449,-20.5 449,-37.5 458,-37.5 458,-20.5 449,-20.5"/>
<text text-anchor="start" x="451.5" y="-25.3" font-family="Times,serif" font-size="14.00"> </text>
<polygon fill="none" stroke="black" points="458,-20.5 458,-37.5 464,-37.5 464,-20.5 458,-20.5"/>
<text text-anchor="start" x="459" y="-25.3" font-family="Times,serif" font-size="14.00"> </text>
<polygon fill="none" stroke="black" points="464,-20.5 464,-37.5 470,-37.5 470,-20.5 464,-20.5"/>
<text text-anchor="start" x="465" y="-25.3" font-family="Times,serif" font-size="14.00"> </text>
<polygon fill="none" stroke="black" points="449,-3.5 449,-20.5 458,-20.5 458,-3.5 449,-3.5"/>
<text text-anchor="start" x="450" y="-8.3" font-family="Times,serif" font-size="14.00">o</text>
<polygon fill="none" stroke="black" points="458,-3.5 458,-20.5 464,-20.5 464,-3.5 458,-3.5"/>
<text text-anchor="start" x="459" y="-8.3" font-family="Times,serif" font-size="14.00"> </text>
<polygon fill="none" stroke="black" points="464,-3.5 464,-20.5 470,-20.5 470,-3.5 464,-3.5"/>
<text text-anchor="start" x="465" y="-8.3" font-family="Times,serif" font-size="14.00"> </text>
</g>
<!-- 111111111&#45;&gt;111111O11 -->
<g id="edge7" class="edge">
<title>111111111&#45;&gt;111111O11</title>
<path fill="none" stroke="black" d="M342.27,-118.83C364.22,-102.9 395.8,-79.77 423,-59 423.27,-58.79 423.55,-58.58 423.82,-58.37"/>
<polygon fill="black" stroke="black" points="426.19,-60.97 431.95,-52.08 421.9,-55.43 426.19,-60.97"/>
<text text-anchor="middle" x="398.5" y="-80.8" font-family="Times,serif" font-size="14.00">&#45;</text>
</g>
<!-- 1111111O1 -->
<g id="node9" class="node">
<title>1111111O1</title>
<polygon fill="none" stroke="black" points="521,-37.5 521,-54.5 527,-54.5 527,-37.5 521,-37.5"/>
<text text-anchor="start" x="522" y="-42.3" font-family="Times,serif" font-size="14.00"> </text>
<polygon fill="none" stroke="black" points="527,-37.5 527,-54.5 536,-54.5 536,-37.5 527,-37.5"/>
<text text-anchor="start" x="529.5" y="-42.3" font-family="Times,serif" font-size="14.00"> </text>
<polygon fill="none" stroke="black" points="536,-37.5 536,-54.5 542,-54.5 542,-37.5 536,-37.5"/>
<text text-anchor="start" x="537" y="-42.3" font-family="Times,serif" font-size="14.00"> </text>
<polygon fill="none" stroke="black" points="521,-20.5 521,-37.5 527,-37.5 527,-20.5 521,-20.5"/>
<text text-anchor="start" x="522" y="-25.3" font-family="Times,serif" font-size="14.00"> </text>
<polygon fill="none" stroke="black" points="527,-20.5 527,-37.5 536,-37.5 536,-20.5 527,-20.5"/>
<text text-anchor="start" x="529.5" y="-25.3" font-family="Times,serif" font-size="14.00"> </text>
<polygon fill="none" stroke="black" points="536,-20.5 536,-37.5 542,-37.5 542,-20.5 536,-20.5"/>
<text text-anchor="start" x="537" y="-25.3" font-family="Times,serif" font-size="14.00"> </text>
<polygon fill="none" stroke="black" points="521,-3.5 521,-20.5 527,-20.5 527,-3.5 521,-3.5"/>
<text text-anchor="start" x="522" y="-8.3" font-family="Times,serif" font-size="14.00"> </text>
<polygon fill="none" stroke="black" points="527,-3.5 527,-20.5 536,-20.5 536,-3.5 527,-3.5"/>
<text text-anchor="start" x="528" y="-8.3" font-family="Times,serif" font-size="14.00">o</text>
<polygon fill="none" stroke="black" points="536,-3.5 536,-20.5 542,-20.5 542,-3.5 536,-3.5"/>
<text text-anchor="start" x="537" y="-8.3" font-family="Times,serif" font-size="14.00"> </text>
</g>
<!-- 111111111&#45;&gt;1111111O1 -->
<g id="edge8" class="edge">
<title>111111111&#45;&gt;1111111O1</title>
<path fill="none" stroke="black" d="M342.28,-128.93C378.49,-115.69 443.81,-89.88 495,-59 495.09,-58.95 495.18,-58.89 495.27,-58.84"/>
<polygon fill="black" stroke="black" points="497.19,-61.76 503.6,-53.33 493.33,-55.92 497.19,-61.76"/>
<text text-anchor="middle" x="464.5" y="-80.8" font-family="Times,serif" font-size="14.00">&#45;</text>
</g>
<!-- 11111111O -->
<g id="node10" class="node">
<title>11111111O</title>
<polygon fill="none" stroke="black" points="593,-37.5 593,-54.5 599,-54.5 599,-37.5 593,-37.5"/>
<text text-anchor="start" x="594" y="-42.3" font-family="Times,serif" font-size="14.00"> </text>
<polygon fill="none" stroke="black" points="599,-37.5 599,-54.5 605,-54.5 605,-37.5 599,-37.5"/>
<text text-anchor="start" x="600" y="-42.3" font-family="Times,serif" font-size="14.00"> </text>
<polygon fill="none" stroke="black" points="605,-37.5 605,-54.5 614,-54.5 614,-37.5 605,-37.5"/>
<text text-anchor="start" x="607.5" y="-42.3" font-family="Times,serif" font-size="14.00"> </text>
<polygon fill="none" stroke="black" points="593,-20.5 593,-37.5 599,-37.5 599,-20.5 593,-20.5"/>
<text text-anchor="start" x="594" y="-25.3" font-family="Times,serif" font-size="14.00"> </text>
<polygon fill="none" stroke="black" points="599,-20.5 599,-37.5 605,-37.5 605,-20.5 599,-20.5"/>
<text text-anchor="start" x="600" y="-25.3" font-family="Times,serif" font-size="14.00"> </text>
<polygon fill="none" stroke="black" points="605,-20.5 605,-37.5 614,-37.5 614,-20.5 605,-20.5"/>
<text text-anchor="start" x="607.5" y="-25.3" font-family="Times,serif" font-size="14.00"> </text>
<polygon fill="none" stroke="black" points="593,-3.5 593,-20.5 599,-20.5 599,-3.5 593,-3.5"/>
<text text-anchor="start" x="594" y="-8.3" font-family="Times,serif" font-size="14.00"> </text>
<polygon fill="none" stroke="black" points="599,-3.5 599,-20.5 605,-20.5 605,-3.5 599,-3.5"/>
<text text-anchor="start" x="600" y="-8.3" font-family="Times,serif" font-size="14.00"> </text>
<polygon fill="none" stroke="black" points="605,-3.5 605,-20.5 614,-20.5 614,-3.5 605,-3.5"/>
<text text-anchor="start" x="606" y="-8.3" font-family="Times,serif" font-size="14.00">o</text>
</g>
<!-- 111111111&#45;&gt;11111111O -->
<g id="edge9" class="edge">
<title>111111111&#45;&gt;11111111O</title>
<path fill="none" stroke="black" d="M342.12,-133.56C389.82,-124.11 490.92,-100.6 567,-59 567.09,-58.95 567.18,-58.9 567.28,-58.85"/>
<polygon fill="black" stroke="black" points="569.1,-61.83 575.75,-53.58 565.41,-55.89 569.1,-61.83"/>
<text text-anchor="middle" x="530.5" y="-80.8" font-family="Times,serif" font-size="14.00">&#45;</text>
</g>
</g>
</svg>
