<?xml version="1.0" encoding="UTF-8" standalone="no"?>
<!DOCTYPE svg PUBLIC "-//W3C//DTD SVG 1.1//EN"
 "http://www.w3.org/Graphics/SVG/1.1/DTD/svg11.dtd">
<!-- Generated by graphviz version 2.44.0 (20200408.0750)
 -->
<!-- Title: G Pages: 1 -->
<svg width="890pt" height="287pt"
 viewBox="0.00 0.00 890.00 287.00" xmlns="http://www.w3.org/2000/svg" xmlns:xlink="http://www.w3.org/1999/xlink">
<g id="graph0" class="graph" transform="scale(1 1) rotate(0) translate(4 283)">
<title>G</title>
<polygon fill="white" stroke="transparent" points="-4,4 -4,-283 886,-283 886,4 -4,4"/>
<!-- O11111111 -->
<g id="node1" class="node">
<title>O11111111</title>
<polygon fill="none" stroke="black" points="269,-147.5 269,-164.5 278,-164.5 278,-147.5 269,-147.5"/>
<text text-anchor="start" x="270" y="-152.3" font-family="Times,serif" font-size="14.00">o</text>
<polygon fill="none" stroke="black" points="278,-147.5 278,-164.5 284,-164.5 284,-147.5 278,-147.5"/>
<text text-anchor="start" x="279" y="-152.3" font-family="Times,serif" font-size="14.00"> </text>
<polygon fill="none" stroke="black" points="284,-147.5 284,-164.5 290,-164.5 290,-147.5 284,-147.5"/>
<text text-anchor="start" x="285" y="-152.3" font-family="Times,serif" font-size="14.00"> </text>
<polygon fill="none" stroke="black" points="269,-130.5 269,-147.5 278,-147.5 278,-130.5 269,-130.5"/>
<text text-anchor="start" x="271.5" y="-135.3" font-family="Times,serif" font-size="14.00"> </text>
<polygon fill="none" stroke="black" points="278,-130.5 278,-147.5 284,-147.5 284,-130.5 278,-130.5"/>
<text text-anchor="start" x="279" y="-135.3" font-family="Times,serif" font-size="14.00"> </text>
<polygon fill="none" stroke="black" points="284,-130.5 284,-147.5 290,-147.5 290,-130.5 284,-130.5"/>
<text text-anchor="start" x="285" y="-135.3" font-family="Times,serif" font-size="14.00"> </text>
<polygon fill="none" stroke="black" points="269,-113.5 269,-130.5 278,-130.5 278,-113.5 269,-113.5"/>
<text text-anchor="start" x="271.5" y="-118.3" font-family="Times,serif" font-size="14.00"> </text>
<polygon fill="none" stroke="black" points="278,-113.5 278,-130.5 284,-130.5 284,-113.5 278,-113.5"/>
<text text-anchor="start" x="279" y="-118.3" font-family="Times,serif" font-size="14.00"> </text>
<polygon fill="none" stroke="black" points="284,-113.5 284,-130.5 290,-130.5 290,-113.5 284,-113.5"/>
<text text-anchor="start" x="285" y="-118.3" font-family="Times,serif" font-size="14.00"> </text>
</g>
<!-- OX1111111 -->
<g id="node2" class="node">
<title>OX1111111</title>
<polygon fill="none" stroke="black" points="15,-37.5 15,-54.5 24,-54.5 24,-37.5 15,-37.5"/>
<text text-anchor="start" x="16" y="-42.3" font-family="Times,serif" font-size="14.00">o</text>
<polygon fill="none" stroke="black" points="24,-37.5 24,-54.5 33,-54.5 33,-37.5 24,-37.5"/>
<text text-anchor="start" x="25" y="-42.3" font-family="Times,serif" font-size="14.00">x</text>
<polygon fill="none" stroke="black" points="33,-37.5 33,-54.5 39,-54.5 39,-37.5 33,-37.5"/>
<text text-anchor="start" x="34" y="-42.3" font-family="Times,serif" font-size="14.00"> </text>
<polygon fill="none" stroke="black" points="15,-20.5 15,-37.5 24,-37.5 24,-20.5 15,-20.5"/>
<text text-anchor="start" x="17.5" y="-25.3" font-family="Times,serif" font-size="14.00"> </text>
<polygon fill="none" stroke="black" points="24,-20.5 24,-37.5 33,-37.5 33,-20.5 24,-20.5"/>
<text text-anchor="start" x="26.5" y="-25.3" font-family="Times,serif" font-size="14.00"> </text>
<polygon fill="none" stroke="black" points="33,-20.5 33,-37.5 39,-37.5 39,-20.5 33,-20.5"/>
<text text-anchor="start" x="34" y="-25.3" font-family="Times,serif" font-size="14.00"> </text>
<polygon fill="none" stroke="black" points="15,-3.5 15,-20.5 24,-20.5 24,-3.5 15,-3.5"/>
<text text-anchor="start" x="17.5" y="-8.3" font-family="Times,serif" font-size="14.00"> </text>
<polygon fill="none" stroke="black" points="24,-3.5 24,-20.5 33,-20.5 33,-3.5 24,-3.5"/>
<text text-anchor="start" x="26.5" y="-8.3" font-family="Times,serif" font-size="14.00"> </text>
<polygon fill="none" stroke="black" points="33,-3.5 33,-20.5 39,-20.5 39,-3.5 33,-3.5"/>
<text text-anchor="start" x="34" y="-8.3" font-family="Times,serif" font-size="14.00"> </text>
</g>
<!-- O11111111&#45;&gt;OX1111111 -->
<g id="edge1" class="edge">
<title>O11111111&#45;&gt;OX1111111</title>
<path fill="none" stroke="black" d="M251.87,-131.54C209.73,-120.07 126.74,-94.85 63,-59 62.91,-58.95 62.82,-58.9 62.73,-58.85"/>
<polygon fill="black" stroke="black" points="64.62,-55.9 54.29,-53.51 60.87,-61.81 64.62,-55.9"/>
<text text-anchor="middle" x="137" y="-80.8" font-family="Times,serif" font-size="14.00">O</text>
</g>
<!-- O1X111111 -->
<g id="node3" class="node">
<title>O1X111111</title>
<polygon fill="none" stroke="black" points="87,-37.5 87,-54.5 96,-54.5 96,-37.5 87,-37.5"/>
<text text-anchor="start" x="88" y="-42.3" font-family="Times,serif" font-size="14.00">o</text>
<polygon fill="none" stroke="black" points="96,-37.5 96,-54.5 102,-54.5 102,-37.5 96,-37.5"/>
<text text-anchor="start" x="97" y="-42.3" font-family="Times,serif" font-size="14.00"> </text>
<polygon fill="none" stroke="black" points="102,-37.5 102,-54.5 111,-54.5 111,-37.5 102,-37.5"/>
<text text-anchor="start" x="103" y="-42.3" font-family="Times,serif" font-size="14.00">x</text>
<polygon fill="none" stroke="black" points="87,-20.5 87,-37.5 96,-37.5 96,-20.5 87,-20.5"/>
<text text-anchor="start" x="89.5" y="-25.3" font-family="Times,serif" font-size="14.00"> </text>
<polygon fill="none" stroke="black" points="96,-20.5 96,-37.5 102,-37.5 102,-20.5 96,-20.5"/>
<text text-anchor="start" x="97" y="-25.3" font-family="Times,serif" font-size="14.00"> </text>
<polygon fill="none" stroke="black" points="102,-20.5 102,-37.5 111,-37.5 111,-20.5 102,-20.5"/>
<text text-anchor="start" x="104.5" y="-25.3" font-family="Times,serif" font-size="14.00"> </text>
<polygon fill="none" stroke="black" points="87,-3.5 87,-20.5 96,-20.5 96,-3.5 87,-3.5"/>
<text text-anchor="start" x="89.5" y="-8.3" font-family="Times,serif" font-size="14.00"> </text>
<polygon fill="none" stroke="black" points="96,-3.5 96,-20.5 102,-20.5 102,-3.5 96,-3.5"/>
<text text-anchor="start" x="97" y="-8.3" font-family="Times,serif" font-size="14.00"> </text>
<polygon fill="none" stroke="black" points="102,-3.5 102,-20.5 111,-20.5 111,-3.5 102,-3.5"/>
<text text-anchor="start" x="104.5" y="-8.3" font-family="Times,serif" font-size="14.00"> </text>
</g>
<!-- O11111111&#45;&gt;O1X111111 -->
<g id="edge2" class="edge">
<title>O11111111&#45;&gt;O1X111111</title>
<path fill="none" stroke="black" d="M251.95,-125.26C222.42,-110.43 174.11,-85.02 135,-59 134.82,-58.88 134.63,-58.76 134.45,-58.63"/>
<polygon fill="black" stroke="black" points="136.35,-55.69 126.17,-52.77 132.31,-61.4 136.35,-55.69"/>
<text text-anchor="middle" x="195" y="-80.8" font-family="Times,serif" font-size="14.00">O</text>
</g>
<!-- O11X11111 -->
<g id="node4" class="node">
<title>O11X11111</title>
<polygon fill="none" stroke="black" points="161,-37.5 161,-54.5 170,-54.5 170,-37.5 161,-37.5"/>
<text text-anchor="start" x="162" y="-42.3" font-family="Times,serif" font-size="14.00">o</text>
<polygon fill="none" stroke="black" points="170,-37.5 170,-54.5 176,-54.5 176,-37.5 170,-37.5"/>
<text text-anchor="start" x="171" y="-42.3" font-family="Times,serif" font-size="14.00"> </text>
<polygon fill="none" stroke="black" points="176,-37.5 176,-54.5 182,-54.5 182,-37.5 176,-37.5"/>
<text text-anchor="start" x="177" y="-42.3" font-family="Times,serif" font-size="14.00"> </text>
<polygon fill="none" stroke="black" points="161,-20.5 161,-37.5 170,-37.5 170,-20.5 161,-20.5"/>
<text text-anchor="start" x="162" y="-25.3" font-family="Times,serif" font-size="14.00">x</text>
<polygon fill="none" stroke="black" points="170,-20.5 170,-37.5 176,-37.5 176,-20.5 170,-20.5"/>
<text text-anchor="start" x="171" y="-25.3" font-family="Times,serif" font-size="14.00"> </text>
<polygon fill="none" stroke="black" points="176,-20.5 176,-37.5 182,-37.5 182,-20.5 176,-20.5"/>
<text text-anchor="start" x="177" y="-25.3" font-family="Times,serif" font-size="14.00"> </text>
<polygon fill="none" stroke="black" points="161,-3.5 161,-20.5 170,-20.5 170,-3.5 161,-3.5"/>
<text text-anchor="start" x="163.5" y="-8.3" font-family="Times,serif" font-size="14.00"> </text>
<polygon fill="none" stroke="black" points="170,-3.5 170,-20.5 176,-20.5 176,-3.5 170,-3.5"/>
<text text-anchor="start" x="171" y="-8.3" font-family="Times,serif" font-size="14.00"> </text>
<polygon fill="none" stroke="black" points="176,-3.5 176,-20.5 182,-20.5 182,-3.5 176,-3.5"/>
<text text-anchor="start" x="177" y="-8.3" font-family="Times,serif" font-size="14.00"> </text>
</g>
<!-- O11111111&#45;&gt;O11X11111 -->
<g id="edge3" class="edge">
<title>O11111111&#45;&gt;O11X11111</title>
<path fill="none" stroke="black" d="M251.75,-111.25C237.68,-97.18 220.37,-79.87 205.39,-64.89"/>
<polygon fill="black" stroke="black" points="207.79,-62.34 198.24,-57.74 202.84,-67.29 207.79,-62.34"/>
<text text-anchor="middle" x="237" y="-80.8" font-family="Times,serif" font-size="14.00">O</text>
</g>
<!-- O111X1111 -->
<g id="node5" class="node">
<title>O111X1111</title>
<polygon fill="none" stroke="black" points="231,-37.5 231,-54.5 240,-54.5 240,-37.5 231,-37.5"/>
<text text-anchor="start" x="232" y="-42.3" font-family="Times,serif" font-size="14.00">o</text>
<polygon fill="none" stroke="black" points="240,-37.5 240,-54.5 249,-54.5 249,-37.5 240,-37.5"/>
<text text-anchor="start" x="242.5" y="-42.3" font-family="Times,serif" font-size="14.00"> </text>
<polygon fill="none" stroke="black" points="249,-37.5 249,-54.5 255,-54.5 255,-37.5 249,-37.5"/>
<text text-anchor="start" x="250" y="-42.3" font-family="Times,serif" font-size="14.00"> </text>
<polygon fill="none" stroke="black" points="231,-20.5 231,-37.5 240,-37.5 240,-20.5 231,-20.5"/>
<text text-anchor="start" x="233.5" y="-25.3" font-family="Times,serif" font-size="14.00"> </text>
<polygon fill="none" stroke="black" points="240,-20.5 240,-37.5 249,-37.5 249,-20.5 240,-20.5"/>
<text text-anchor="start" x="241" y="-25.3" font-family="Times,serif" font-size="14.00">x</text>
<polygon fill="none" stroke="black" points="249,-20.5 249,-37.5 255,-37.5 255,-20.5 249,-20.5"/>
<text text-anchor="start" x="250" y="-25.3" font-family="Times,serif" font-size="14.00"> </text>
<polygon fill="none" stroke="black" points="231,-3.5 231,-20.5 240,-20.5 240,-3.5 231,-3.5"/>
<text text-anchor="start" x="233.5" y="-8.3" font-family="Times,serif" font-size="14.00"> </text>
<polygon fill="none" stroke="black" points="240,-3.5 240,-20.5 249,-20.5 249,-3.5 240,-3.5"/>
<text text-anchor="start" x="242.5" y="-8.3" font-family="Times,serif" font-size="14.00"> </text>
<polygon fill="none" stroke="black" points="249,-3.5 249,-20.5 255,-20.5 255,-3.5 249,-3.5"/>
<text text-anchor="start" x="250" y="-8.3" font-family="Times,serif" font-size="14.00"> </text>
</g>
<!-- O11111111&#45;&gt;O111X1111 -->
<g id="edge4" class="edge">
<title>O11111111&#45;&gt;O111X1111</title>
<path fill="none" stroke="black" d="M269.45,-109.84C265.26,-97.27 260.28,-82.33 255.77,-68.82"/>
<polygon fill="black" stroke="black" points="259.08,-67.67 252.6,-59.29 252.44,-69.89 259.08,-67.67"/>
<text text-anchor="middle" x="266.5" y="-80.8" font-family="Times,serif" font-size="14.00">&#45;</text>
</g>
<!-- O1111X111 -->
<g id="node6" class="node">
<title>O1111X111</title>
<polygon fill="none" stroke="black" points="303,-37.5 303,-54.5 312,-54.5 312,-37.5 303,-37.5"/>
<text text-anchor="start" x="304" y="-42.3" font-family="Times,serif" font-size="14.00">o</text>
<polygon fill="none" stroke="black" points="312,-37.5 312,-54.5 318,-54.5 318,-37.5 312,-37.5"/>
<text text-anchor="start" x="313" y="-42.3" font-family="Times,serif" font-size="14.00"> </text>
<polygon fill="none" stroke="black" points="318,-37.5 318,-54.5 327,-54.5 327,-37.5 318,-37.5"/>
<text text-anchor="start" x="320.5" y="-42.3" font-family="Times,serif" font-size="14.00"> </text>
<polygon fill="none" stroke="black" points="303,-20.5 303,-37.5 312,-37.5 312,-20.5 303,-20.5"/>
<text text-anchor="start" x="305.5" y="-25.3" font-family="Times,serif" font-size="14.00"> </text>
<polygon fill="none" stroke="black" points="312,-20.5 312,-37.5 318,-37.5 318,-20.5 312,-20.5"/>
<text text-anchor="start" x="313" y="-25.3" font-family="Times,serif" font-size="14.00"> </text>
<polygon fill="none" stroke="black" points="318,-20.5 318,-37.5 327,-37.5 327,-20.5 318,-20.5"/>
<text text-anchor="start" x="319" y="-25.3" font-family="Times,serif" font-size="14.00">x</text>
<polygon fill="none" stroke="black" points="303,-3.5 303,-20.5 312,-20.5 312,-3.5 303,-3.5"/>
<text text-anchor="start" x="305.5" y="-8.3" font-family="Times,serif" font-size="14.00"> </text>
<polygon fill="none" stroke="black" points="312,-3.5 312,-20.5 318,-20.5 318,-3.5 312,-3.5"/>
<text text-anchor="start" x="313" y="-8.3" font-family="Times,serif" font-size="14.00"> </text>
<polygon fill="none" stroke="black" points="318,-3.5 318,-20.5 327,-20.5 327,-3.5 318,-3.5"/>
<text text-anchor="start" x="320.5" y="-8.3" font-family="Times,serif" font-size="14.00"> </text>
</g>
<!-- O11111111&#45;&gt;O1111X111 -->
<g id="edge5" class="edge">
<title>O11111111&#45;&gt;O1111X111</title>
<path fill="none" stroke="black" d="M288.55,-109.84C292.74,-97.27 297.72,-82.33 302.23,-68.82"/>
<polygon fill="black" stroke="black" points="305.56,-69.89 305.4,-59.29 298.92,-67.67 305.56,-69.89"/>
<text text-anchor="middle" x="305" y="-80.8" font-family="Times,serif" font-size="14.00">O</text>
</g>
<!-- O11111X11 -->
<g id="node7" class="node">
<title>O11111X11</title>
<polygon fill="none" stroke="black" points="377,-37.5 377,-54.5 386,-54.5 386,-37.5 377,-37.5"/>
<text text-anchor="start" x="378" y="-42.3" font-family="Times,serif" font-size="14.00">o</text>
<polygon fill="none" stroke="black" points="386,-37.5 386,-54.5 392,-54.5 392,-37.5 386,-37.5"/>
<text text-anchor="start" x="387" y="-42.3" font-family="Times,serif" font-size="14.00"> </text>
<polygon fill="none" stroke="black" points="392,-37.5 392,-54.5 398,-54.5 398,-37.5 392,-37.5"/>
<text text-anchor="start" x="393" y="-42.3" font-family="Times,serif" font-size="14.00"> </text>
<polygon fill="none" stroke="black" points="377,-20.5 377,-37.5 386,-37.5 386,-20.5 377,-20.5"/>
<text text-anchor="start" x="379.5" y="-25.3" font-family="Times,serif" font-size="14.00"> </text>
<polygon fill="none" stroke="black" points="386,-20.5 386,-37.5 392,-37.5 392,-20.5 386,-20.5"/>
<text text-anchor="start" x="387" y="-25.3" font-family="Times,serif" font-size="14.00"> </text>
<polygon fill="none" stroke="black" points="392,-20.5 392,-37.5 398,-37.5 398,-20.5 392,-20.5"/>
<text text-anchor="start" x="393" y="-25.3" font-family="Times,serif" font-size="14.00"> </text>
<polygon fill="none" stroke="black" points="377,-3.5 377,-20.5 386,-20.5 386,-3.5 377,-3.5"/>
<text text-anchor="start" x="378" y="-8.3" font-family="Times,serif" font-size="14.00">x</text>
<polygon fill="none" stroke="black" points="386,-3.5 386,-20.5 392,-20.5 392,-3.5 386,-3.5"/>
<text text-anchor="start" x="387" y="-8.3" font-family="Times,serif" font-size="14.00"> </text>
<polygon fill="none" stroke="black" points="392,-3.5 392,-20.5 398,-20.5 398,-3.5 392,-3.5"/>
<text text-anchor="start" x="393" y="-8.3" font-family="Times,serif" font-size="14.00"> </text>
</g>
<!-- O11111111&#45;&gt;O11111X11 -->
<g id="edge6" class="edge">
<title>O11111111&#45;&gt;O11111X11</title>
<path fill="none" stroke="black" d="M306.25,-111.25C320.32,-97.18 337.63,-79.87 352.61,-64.89"/>
<polygon fill="black" stroke="black" points="355.16,-67.29 359.76,-57.74 350.21,-62.34 355.16,-67.29"/>
<text text-anchor="middle" x="345" y="-80.8" font-family="Times,serif" font-size="14.00">O</text>
</g>
<!-- O111111X1 -->
<g id="node8" class="node">
<title>O111111X1</title>
<polygon fill="none" stroke="black" points="447,-37.5 447,-54.5 456,-54.5 456,-37.5 447,-37.5"/>
<text text-anchor="start" x="448" y="-42.3" font-family="Times,serif" font-size="14.00">o</text>
<polygon fill="none" stroke="black" points="456,-37.5 456,-54.5 465,-54.5 465,-37.5 456,-37.5"/>
<text text-anchor="start" x="458.5" y="-42.3" font-family="Times,serif" font-size="14.00"> </text>
<polygon fill="none" stroke="black" points="465,-37.5 465,-54.5 471,-54.5 471,-37.5 465,-37.5"/>
<text text-anchor="start" x="466" y="-42.3" font-family="Times,serif" font-size="14.00"> </text>
<polygon fill="none" stroke="black" points="447,-20.5 447,-37.5 456,-37.5 456,-20.5 447,-20.5"/>
<text text-anchor="start" x="449.5" y="-25.3" font-family="Times,serif" font-size="14.00"> </text>
<polygon fill="none" stroke="black" points="456,-20.5 456,-37.5 465,-37.5 465,-20.5 456,-20.5"/>
<text text-anchor="start" x="458.5" y="-25.3" font-family="Times,serif" font-size="14.00"> </text>
<polygon fill="none" stroke="black" points="465,-20.5 465,-37.5 471,-37.5 471,-20.5 465,-20.5"/>
<text text-anchor="start" x="466" y="-25.3" font-family="Times,serif" font-size="14.00"> </text>
<polygon fill="none" stroke="black" points="447,-3.5 447,-20.5 456,-20.5 456,-3.5 447,-3.5"/>
<text text-anchor="start" x="449.5" y="-8.3" font-family="Times,serif" font-size="14.00"> </text>
<polygon fill="none" stroke="black" points="456,-3.5 456,-20.5 465,-20.5 465,-3.5 456,-3.5"/>
<text text-anchor="start" x="457" y="-8.3" font-family="Times,serif" font-size="14.00">x</text>
<polygon fill="none" stroke="black" points="465,-3.5 465,-20.5 471,-20.5 471,-3.5 465,-3.5"/>
<text text-anchor="start" x="466" y="-8.3" font-family="Times,serif" font-size="14.00"> </text>
</g>
<!-- O11111111&#45;&gt;O111111X1 -->
<g id="edge7" class="edge">
<title>O11111111&#45;&gt;O111111X1</title>
<path fill="none" stroke="black" d="M306.03,-116.01C308.99,-113.88 312.01,-111.84 315,-110 331.26,-100.01 336.72,-100.12 354,-92 384.77,-77.54 394.16,-77 423,-59 423.19,-58.88 423.37,-58.77 423.56,-58.65"/>
<polygon fill="black" stroke="black" points="425.65,-61.46 431.95,-52.94 421.71,-55.67 425.65,-61.46"/>
<text text-anchor="middle" x="394" y="-80.8" font-family="Times,serif" font-size="14.00">O</text>
</g>
<!-- O1111111X -->
<g id="node9" class="node">
<title>O1111111X</title>
<polygon fill="none" stroke="black" points="519,-37.5 519,-54.5 528,-54.5 528,-37.5 519,-37.5"/>
<text text-anchor="start" x="520" y="-42.3" font-family="Times,serif" font-size="14.00">o</text>
<polygon fill="none" stroke="black" points="528,-37.5 528,-54.5 534,-54.5 534,-37.5 528,-37.5"/>
<text text-anchor="start" x="529" y="-42.3" font-family="Times,serif" font-size="14.00"> </text>
<polygon fill="none" stroke="black" points="534,-37.5 534,-54.5 543,-54.5 543,-37.5 534,-37.5"/>
<text text-anchor="start" x="536.5" y="-42.3" font-family="Times,serif" font-size="14.00"> </text>
<polygon fill="none" stroke="black" points="519,-20.5 519,-37.5 528,-37.5 528,-20.5 519,-20.5"/>
<text text-anchor="start" x="521.5" y="-25.3" font-family="Times,serif" font-size="14.00"> </text>
<polygon fill="none" stroke="black" points="528,-20.5 528,-37.5 534,-37.5 534,-20.5 528,-20.5"/>
<text text-anchor="start" x="529" y="-25.3" font-family="Times,serif" font-size="14.00"> </text>
<polygon fill="none" stroke="black" points="534,-20.5 534,-37.5 543,-37.5 543,-20.5 534,-20.5"/>
<text text-anchor="start" x="536.5" y="-25.3" font-family="Times,serif" font-size="14.00"> </text>
<polygon fill="none" stroke="black" points="519,-3.5 519,-20.5 528,-20.5 528,-3.5 519,-3.5"/>
<text text-anchor="start" x="521.5" y="-8.3" font-family="Times,serif" font-size="14.00"> </text>
<polygon fill="none" stroke="black" points="528,-3.5 528,-20.5 534,-20.5 534,-3.5 528,-3.5"/>
<text text-anchor="start" x="529" y="-8.3" font-family="Times,serif" font-size="14.00"> </text>
<polygon fill="none" stroke="black" points="534,-3.5 534,-20.5 543,-20.5 543,-3.5 534,-3.5"/>
<text text-anchor="start" x="535" y="-8.3" font-family="Times,serif" font-size="14.00">x</text>
</g>
<!-- O11111111&#45;&gt;O1111111X -->
<g id="edge8" class="edge">
<title>O11111111&#45;&gt;O1111111X</title>
<path fill="none" stroke="black" d="M306.05,-115.01C308.96,-113.13 311.96,-111.41 315,-110 351.19,-93.15 364.56,-102.77 403,-92 444.83,-80.28 457.03,-80.09 495,-59 495.09,-58.95 495.18,-58.9 495.27,-58.85"/>
<polygon fill="black" stroke="black" points="497.12,-61.82 503.72,-53.54 493.39,-55.89 497.12,-61.82"/>
<text text-anchor="middle" x="461" y="-80.8" font-family="Times,serif" font-size="14.00">O</text>
</g>
<!-- 111111111 -->
<g id="node10" class="node">
<title>111111111</title>
<polygon fill="none" stroke="black" points="558,-257.5 558,-274.5 564,-274.5 564,-257.5 558,-257.5"/>
<text text-anchor="start" x="559" y="-262.3" font-family="Times,serif" font-size="14.00"> </text>
<polygon fill="none" stroke="black" points="564,-257.5 564,-274.5 570,-274.5 570,-257.5 564,-257.5"/>
<text text-anchor="start" x="565" y="-262.3" font-family="Times,serif" font-size="14.00"> </text>
<polygon fill="none" stroke="black" points="570,-257.5 570,-274.5 576,-274.5 576,-257.5 570,-257.5"/>
<text text-anchor="start" x="571" y="-262.3" font-family="Times,serif" font-size="14.00"> </text>
<polygon fill="none" stroke="black" points="558,-240.5 558,-257.5 564,-257.5 564,-240.5 558,-240.5"/>
<text text-anchor="start" x="559" y="-245.3" font-family="Times,serif" font-size="14.00"> </text>
<polygon fill="none" stroke="black" points="564,-240.5 564,-257.5 570,-257.5 570,-240.5 564,-240.5"/>
<text text-anchor="start" x="565" y="-245.3" font-family="Times,serif" font-size="14.00"> </text>
<polygon fill="none" stroke="black" points="570,-240.5 570,-257.5 576,-257.5 576,-240.5 570,-240.5"/>
<text text-anchor="start" x="571" y="-245.3" font-family="Times,serif" font-size="14.00"> </text>
<polygon fill="none" stroke="black" points="558,-223.5 558,-240.5 564,-240.5 564,-223.5 558,-223.5"/>
<text text-anchor="start" x="559" y="-228.3" font-family="Times,serif" font-size="14.00"> </text>
<polygon fill="none" stroke="black" points="564,-223.5 564,-240.5 570,-240.5 570,-223.5 564,-223.5"/>
<text text-anchor="start" x="565" y="-228.3" font-family="Times,serif" font-size="14.00"> </text>
<polygon fill="none" stroke="black" points="570,-223.5 570,-240.5 576,-240.5 576,-223.5 570,-223.5"/>
<text text-anchor="start" x="571" y="-228.3" font-family="Times,serif" font-size="14.00"> </text>
</g>
<!-- 111111111&#45;&gt;O11111111 -->
<g id="edge9" class="edge">
<title>111111111&#45;&gt;O11111111</title>
<path fill="none" stroke="black" d="M539.88,-243.56C492.18,-234.11 391.08,-210.6 315,-169 314.91,-168.95 314.82,-168.9 314.72,-168.85"/>
<polygon fill="black" stroke="black" points="316.59,-165.89 306.25,-163.58 312.9,-171.83 316.59,-165.89"/>
<text text-anchor="middle" x="390.5" y="-190.8" font-family="Times,serif" font-size="14.00">&#45;</text>
</g>
<!-- 1O1111111 -->
<g id="node11" class="node">
<title>1O1111111</title>
<polygon fill="none" stroke="black" points="341,-147.5 341,-164.5 347,-164.5 347,-147.5 341,-147.5"/>
<text text-anchor="start" x="342" y="-152.3" font-family="Times,serif" font-size="14.00"> </text>
<polygon fill="none" stroke="black" points="347,-147.5 347,-164.5 356,-164.5 356,-147.5 347,-147.5"/>
<text text-anchor="start" x="348" y="-152.3" font-family="Times,serif" font-size="14.00">o</text>
<polygon fill="none" stroke="black" points="356,-147.5 356,-164.5 362,-164.5 362,-147.5 356,-147.5"/>
<text text-anchor="start" x="357" y="-152.3" font-family="Times,serif" font-size="14.00"> </text>
<polygon fill="none" stroke="black" points="341,-130.5 341,-147.5 347,-147.5 347,-130.5 341,-130.5"/>
<text text-anchor="start" x="342" y="-135.3" font-family="Times,serif" font-size="14.00"> </text>
<polygon fill="none" stroke="black" points="347,-130.5 347,-147.5 356,-147.5 356,-130.5 347,-130.5"/>
<text text-anchor="start" x="349.5" y="-135.3" font-family="Times,serif" font-size="14.00"> </text>
<polygon fill="none" stroke="black" points="356,-130.5 356,-147.5 362,-147.5 362,-130.5 356,-130.5"/>
<text text-anchor="start" x="357" y="-135.3" font-family="Times,serif" font-size="14.00"> </text>
<polygon fill="none" stroke="black" points="341,-113.5 341,-130.5 347,-130.5 347,-113.5 341,-113.5"/>
<text text-anchor="start" x="342" y="-118.3" font-family="Times,serif" font-size="14.00"> </text>
<polygon fill="none" stroke="black" points="347,-113.5 347,-130.5 356,-130.5 356,-113.5 347,-113.5"/>
<text text-anchor="start" x="349.5" y="-118.3" font-family="Times,serif" font-size="14.00"> </text>
<polygon fill="none" stroke="black" points="356,-113.5 356,-130.5 362,-130.5 362,-113.5 356,-113.5"/>
<text text-anchor="start" x="357" y="-118.3" font-family="Times,serif" font-size="14.00"> </text>
</g>
<!-- 111111111&#45;&gt;1O1111111 -->
<g id="edge10" class="edge">
<title>111111111&#45;&gt;1O1111111</title>
<path fill="none" stroke="black" d="M539.72,-238.93C503.51,-225.69 438.19,-199.88 387,-169 386.91,-168.95 386.82,-168.89 386.73,-168.84"/>
<polygon fill="black" stroke="black" points="388.67,-165.92 378.4,-163.33 384.81,-171.76 388.67,-165.92"/>
<text text-anchor="middle" x="452.5" y="-190.8" font-family="Times,serif" font-size="14.00">&#45;</text>
</g>
<!-- 11O111111 -->
<g id="node12" class="node">
<title>11O111111</title>
<polygon fill="none" stroke="black" points="413,-147.5 413,-164.5 419,-164.5 419,-147.5 413,-147.5"/>
<text text-anchor="start" x="414" y="-152.3" font-family="Times,serif" font-size="14.00"> </text>
<polygon fill="none" stroke="black" points="419,-147.5 419,-164.5 425,-164.5 425,-147.5 419,-147.5"/>
<text text-anchor="start" x="420" y="-152.3" font-family="Times,serif" font-size="14.00"> </text>
<polygon fill="none" stroke="black" points="425,-147.5 425,-164.5 434,-164.5 434,-147.5 425,-147.5"/>
<text text-anchor="start" x="426" y="-152.3" font-family="Times,serif" font-size="14.00">o</text>
<polygon fill="none" stroke="black" points="413,-130.5 413,-147.5 419,-147.5 419,-130.5 413,-130.5"/>
<text text-anchor="start" x="414" y="-135.3" font-family="Times,serif" font-size="14.00"> </text>
<polygon fill="none" stroke="black" points="419,-130.5 419,-147.5 425,-147.5 425,-130.5 419,-130.5"/>
<text text-anchor="start" x="420" y="-135.3" font-family="Times,serif" font-size="14.00"> </text>
<polygon fill="none" stroke="black" points="425,-130.5 425,-147.5 434,-147.5 434,-130.5 425,-130.5"/>
<text text-anchor="start" x="427.5" y="-135.3" font-family="Times,serif" font-size="14.00"> </text>
<polygon fill="none" stroke="black" points="413,-113.5 413,-130.5 419,-130.5 419,-113.5 413,-113.5"/>
<text text-anchor="start" x="414" y="-118.3" font-family="Times,serif" font-size="14.00"> </text>
<polygon fill="none" stroke="black" points="419,-113.5 419,-130.5 425,-130.5 425,-113.5 419,-113.5"/>
<text text-anchor="start" x="420" y="-118.3" font-family="Times,serif" font-size="14.00"> </text>
<polygon fill="none" stroke="black" points="425,-113.5 425,-130.5 434,-130.5 434,-113.5 425,-113.5"/>
<text text-anchor="start" x="427.5" y="-118.3" font-family="Times,serif" font-size="14.00"> </text>
</g>
<!-- 111111111&#45;&gt;11O111111 -->
<g id="edge11" class="edge">
<title>111111111&#45;&gt;11O111111</title>
<path fill="none" stroke="black" d="M539.73,-228.83C517.78,-212.9 486.2,-189.77 459,-169 458.73,-168.79 458.45,-168.58 458.18,-168.37"/>
<polygon fill="black" stroke="black" points="460.1,-165.43 450.05,-162.08 455.81,-170.97 460.1,-165.43"/>
<text text-anchor="middle" x="503.5" y="-190.8" font-family="Times,serif" font-size="14.00">&#45;</text>
</g>
<!-- 111O11111 -->
<g id="node13" class="node">
<title>111O11111</title>
<polygon fill="none" stroke="black" points="485,-147.5 485,-164.5 494,-164.5 494,-147.5 485,-147.5"/>
<text text-anchor="start" x="487.5" y="-152.3" font-family="Times,serif" font-size="14.00"> </text>
<polygon fill="none" stroke="black" points="494,-147.5 494,-164.5 500,-164.5 500,-147.5 494,-147.5"/>
<text text-anchor="start" x="495" y="-152.3" font-family="Times,serif" font-size="14.00"> </text>
<polygon fill="none" stroke="black" points="500,-147.5 500,-164.5 506,-164.5 506,-147.5 500,-147.5"/>
<text text-anchor="start" x="501" y="-152.3" font-family="Times,serif" font-size="14.00"> </text>
<polygon fill="none" stroke="black" points="485,-130.5 485,-147.5 494,-147.5 494,-130.5 485,-130.5"/>
<text text-anchor="start" x="486" y="-135.3" font-family="Times,serif" font-size="14.00">o</text>
<polygon fill="none" stroke="black" points="494,-130.5 494,-147.5 500,-147.5 500,-130.5 494,-130.5"/>
<text text-anchor="start" x="495" y="-135.3" font-family="Times,serif" font-size="14.00"> </text>
<polygon fill="none" stroke="black" points="500,-130.5 500,-147.5 506,-147.5 506,-130.5 500,-130.5"/>
<text text-anchor="start" x="501" y="-135.3" font-family="Times,serif" font-size="14.00"> </text>
<polygon fill="none" stroke="black" points="485,-113.5 485,-130.5 494,-130.5 494,-113.5 485,-113.5"/>
<text text-anchor="start" x="487.5" y="-118.3" font-family="Times,serif" font-size="14.00"> </text>
<polygon fill="none" stroke="black" points="494,-113.5 494,-130.5 500,-130.5 500,-113.5 494,-113.5"/>
<text text-anchor="start" x="495" y="-118.3" font-family="Times,serif" font-size="14.00"> </text>
<polygon fill="none" stroke="black" points="500,-113.5 500,-130.5 506,-130.5 506,-113.5 500,-113.5"/>
<text text-anchor="start" x="501" y="-118.3" font-family="Times,serif" font-size="14.00"> </text>
</g>
<!-- 111111111&#45;&gt;111O11111 -->
<g id="edge12" class="edge">
<title>111111111&#45;&gt;111O11111</title>
<path fill="none" stroke="black" d="M547.89,-219.84C539.27,-206.9 528.97,-191.46 519.76,-177.64"/>
<polygon fill="black" stroke="black" points="522.65,-175.67 514.19,-169.29 516.83,-179.55 522.65,-175.67"/>
<text text-anchor="middle" x="538.5" y="-190.8" font-family="Times,serif" font-size="14.00">&#45;</text>
</g>
<!-- 1111O1111 -->
<g id="node14" class="node">
<title>1111O1111</title>
<polygon fill="none" stroke="black" points="557,-147.5 557,-164.5 563,-164.5 563,-147.5 557,-147.5"/>
<text text-anchor="start" x="558" y="-152.3" font-family="Times,serif" font-size="14.00"> </text>
<polygon fill="none" stroke="black" points="563,-147.5 563,-164.5 572,-164.5 572,-147.5 563,-147.5"/>
<text text-anchor="start" x="565.5" y="-152.3" font-family="Times,serif" font-size="14.00"> </text>
<polygon fill="none" stroke="black" points="572,-147.5 572,-164.5 578,-164.5 578,-147.5 572,-147.5"/>
<text text-anchor="start" x="573" y="-152.3" font-family="Times,serif" font-size="14.00"> </text>
<polygon fill="none" stroke="black" points="557,-130.5 557,-147.5 563,-147.5 563,-130.5 557,-130.5"/>
<text text-anchor="start" x="558" y="-135.3" font-family="Times,serif" font-size="14.00"> </text>
<polygon fill="none" stroke="black" points="563,-130.5 563,-147.5 572,-147.5 572,-130.5 563,-130.5"/>
<text text-anchor="start" x="564" y="-135.3" font-family="Times,serif" font-size="14.00">o</text>
<polygon fill="none" stroke="black" points="572,-130.5 572,-147.5 578,-147.5 578,-130.5 572,-130.5"/>
<text text-anchor="start" x="573" y="-135.3" font-family="Times,serif" font-size="14.00"> </text>
<polygon fill="none" stroke="black" points="557,-113.5 557,-130.5 563,-130.5 563,-113.5 557,-113.5"/>
<text text-anchor="start" x="558" y="-118.3" font-family="Times,serif" font-size="14.00"> </text>
<polygon fill="none" stroke="black" points="563,-113.5 563,-130.5 572,-130.5 572,-113.5 563,-113.5"/>
<text text-anchor="start" x="565.5" y="-118.3" font-family="Times,serif" font-size="14.00"> </text>
<polygon fill="none" stroke="black" points="572,-113.5 572,-130.5 578,-130.5 578,-113.5 572,-113.5"/>
<text text-anchor="start" x="573" y="-118.3" font-family="Times,serif" font-size="14.00"> </text>
</g>
<!-- 111111111&#45;&gt;1111O1111 -->
<g id="edge13" class="edge">
<title>111111111&#45;&gt;1111O1111</title>
<path fill="none" stroke="black" d="M567,-219.84C567,-207.51 567,-192.91 567,-179.61"/>
<polygon fill="black" stroke="black" points="570.5,-179.29 567,-169.29 563.5,-179.29 570.5,-179.29"/>
<text text-anchor="middle" x="569.5" y="-190.8" font-family="Times,serif" font-size="14.00">&#45;</text>
</g>
<!-- 11111O111 -->
<g id="node15" class="node">
<title>11111O111</title>
<polygon fill="none" stroke="black" points="629,-147.5 629,-164.5 635,-164.5 635,-147.5 629,-147.5"/>
<text text-anchor="start" x="630" y="-152.3" font-family="Times,serif" font-size="14.00"> </text>
<polygon fill="none" stroke="black" points="635,-147.5 635,-164.5 641,-164.5 641,-147.5 635,-147.5"/>
<text text-anchor="start" x="636" y="-152.3" font-family="Times,serif" font-size="14.00"> </text>
<polygon fill="none" stroke="black" points="641,-147.5 641,-164.5 650,-164.5 650,-147.5 641,-147.5"/>
<text text-anchor="start" x="643.5" y="-152.3" font-family="Times,serif" font-size="14.00"> </text>
<polygon fill="none" stroke="black" points="629,-130.5 629,-147.5 635,-147.5 635,-130.5 629,-130.5"/>
<text text-anchor="start" x="630" y="-135.3" font-family="Times,serif" font-size="14.00"> </text>
<polygon fill="none" stroke="black" points="635,-130.5 635,-147.5 641,-147.5 641,-130.5 635,-130.5"/>
<text text-anchor="start" x="636" y="-135.3" font-family="Times,serif" font-size="14.00"> </text>
<polygon fill="none" stroke="black" points="641,-130.5 641,-147.5 650,-147.5 650,-130.5 641,-130.5"/>
<text text-anchor="start" x="642" y="-135.3" font-family="Times,serif" font-size="14.00">o</text>
<polygon fill="none" stroke="black" points="629,-113.5 629,-130.5 635,-130.5 635,-113.5 629,-113.5"/>
<text text-anchor="start" x="630" y="-118.3" font-family="Times,serif" font-size="14.00"> </text>
<polygon fill="none" stroke="black" points="635,-113.5 635,-130.5 641,-130.5 641,-113.5 635,-113.5"/>
<text text-anchor="start" x="636" y="-118.3" font-family="Times,serif" font-size="14.00"> </text>
<polygon fill="none" stroke="black" points="641,-113.5 641,-130.5 650,-130.5 650,-113.5 641,-113.5"/>
<text text-anchor="start" x="643.5" y="-118.3" font-family="Times,serif" font-size="14.00"> </text>
</g>
<!-- 111111111&#45;&gt;11111O111 -->
<g id="edge14" class="edge">
<title>111111111&#45;&gt;11111O111</title>
<path fill="none" stroke="black" d="M586.11,-219.84C594.73,-206.9 605.03,-191.46 614.24,-177.64"/>
<polygon fill="black" stroke="black" points="617.17,-179.55 619.81,-169.29 611.35,-175.67 617.17,-179.55"/>
<text text-anchor="middle" x="610.5" y="-190.8" font-family="Times,serif" font-size="14.00">&#45;</text>
</g>
<!-- 111111O11 -->
<g id="node16" class="node">
<title>111111O11</title>
<polygon fill="none" stroke="black" points="701,-147.5 701,-164.5 710,-164.5 710,-147.5 701,-147.5"/>
<text text-anchor="start" x="703.5" y="-152.3" font-family="Times,serif" font-size="14.00"> </text>
<polygon fill="none" stroke="black" points="710,-147.5 710,-164.5 716,-164.5 716,-147.5 710,-147.5"/>
<text text-anchor="start" x="711" y="-152.3" font-family="Times,serif" font-size="14.00"> </text>
<polygon fill="none" stroke="black" points="716,-147.5 716,-164.5 722,-164.5 722,-147.5 716,-147.5"/>
<text text-anchor="start" x="717" y="-152.3" font-family="Times,serif" font-size="14.00"> </text>
<polygon fill="none" stroke="black" points="701,-130.5 701,-147.5 710,-147.5 710,-130.5 701,-130.5"/>
<text text-anchor="start" x="703.5" y="-135.3" font-family="Times,serif" font-size="14.00"> </text>
<polygon fill="none" stroke="black" points="710,-130.5 710,-147.5 716,-147.5 716,-130.5 710,-130.5"/>
<text text-anchor="start" x="711" y="-135.3" font-family="Times,serif" font-size="14.00"> </text>
<polygon fill="none" stroke="black" points="716,-130.5 716,-147.5 722,-147.5 722,-130.5 716,-130.5"/>
<text text-anchor="start" x="717" y="-135.3" font-family="Times,serif" font-size="14.00"> </text>
<polygon fill="none" stroke="black" points="701,-113.5 701,-130.5 710,-130.5 710,-113.5 701,-113.5"/>
<text text-anchor="start" x="702" y="-118.3" font-family="Times,serif" font-size="14.00">o</text>
<polygon fill="none" stroke="black" points="710,-113.5 710,-130.5 716,-130.5 716,-113.5 710,-113.5"/>
<text text-anchor="start" x="711" y="-118.3" font-family="Times,serif" font-size="14.00"> </text>
<polygon fill="none" stroke="black" points="716,-113.5 716,-130.5 722,-130.5 722,-113.5 716,-113.5"/>
<text text-anchor="start" x="717" y="-118.3" font-family="Times,serif" font-size="14.00"> </text>
</g>
<!-- 111111111&#45;&gt;111111O11 -->
<g id="edge15" class="edge">
<title>111111111&#45;&gt;111111O11</title>
<path fill="none" stroke="black" d="M594.27,-228.83C616.22,-212.9 647.8,-189.77 675,-169 675.27,-168.79 675.55,-168.58 675.82,-168.37"/>
<polygon fill="black" stroke="black" points="678.19,-170.97 683.95,-162.08 673.9,-165.43 678.19,-170.97"/>
<text text-anchor="middle" x="650.5" y="-190.8" font-family="Times,serif" font-size="14.00">&#45;</text>
</g>
<!-- 1111111O1 -->
<g id="node17" class="node">
<title>1111111O1</title>
<polygon fill="none" stroke="black" points="773,-147.5 773,-164.5 779,-164.5 779,-147.5 773,-147.5"/>
<text text-anchor="start" x="774" y="-152.3" font-family="Times,serif" font-size="14.00"> </text>
<polygon fill="none" stroke="black" points="779,-147.5 779,-164.5 788,-164.5 788,-147.5 779,-147.5"/>
<text text-anchor="start" x="781.5" y="-152.3" font-family="Times,serif" font-size="14.00"> </text>
<polygon fill="none" stroke="black" points="788,-147.5 788,-164.5 794,-164.5 794,-147.5 788,-147.5"/>
<text text-anchor="start" x="789" y="-152.3" font-family="Times,serif" font-size="14.00"> </text>
<polygon fill="none" stroke="black" points="773,-130.5 773,-147.5 779,-147.5 779,-130.5 773,-130.5"/>
<text text-anchor="start" x="774" y="-135.3" font-family="Times,serif" font-size="14.00"> </text>
<polygon fill="none" stroke="black" points="779,-130.5 779,-147.5 788,-147.5 788,-130.5 779,-130.5"/>
<text text-anchor="start" x="781.5" y="-135.3" font-family="Times,serif" font-size="14.00"> </text>
<polygon fill="none" stroke="black" points="788,-130.5 788,-147.5 794,-147.5 794,-130.5 788,-130.5"/>
<text text-anchor="start" x="789" y="-135.3" font-family="Times,serif" font-size="14.00"> </text>
<polygon fill="none" stroke="black" points="773,-113.5 773,-130.5 779,-130.5 779,-113.5 773,-113.5"/>
<text text-anchor="start" x="774" y="-118.3" font-family="Times,serif" font-size="14.00"> </text>
<polygon fill="none" stroke="black" points="779,-113.5 779,-130.5 788,-130.5 788,-113.5 779,-113.5"/>
<text text-anchor="start" x="780" y="-118.3" font-family="Times,serif" font-size="14.00">o</text>
<polygon fill="none" stroke="black" points="788,-113.5 788,-130.5 794,-130.5 794,-113.5 788,-113.5"/>
<text text-anchor="start" x="789" y="-118.3" font-family="Times,serif" font-size="14.00"> </text>
</g>
<!-- 111111111&#45;&gt;1111111O1 -->
<g id="edge16" class="edge">
<title>111111111&#45;&gt;1111111O1</title>
<path fill="none" stroke="black" d="M594.28,-238.93C630.49,-225.69 695.81,-199.88 747,-169 747.09,-168.95 747.18,-168.89 747.27,-168.84"/>
<polygon fill="black" stroke="black" points="749.19,-171.76 755.6,-163.33 745.33,-165.92 749.19,-171.76"/>
<text text-anchor="middle" x="716.5" y="-190.8" font-family="Times,serif" font-size="14.00">&#45;</text>
</g>
<!-- 11111111O -->
<g id="node18" class="node">
<title>11111111O</title>
<polygon fill="none" stroke="black" points="845,-147.5 845,-164.5 851,-164.5 851,-147.5 845,-147.5"/>
<text text-anchor="start" x="846" y="-152.3" font-family="Times,serif" font-size="14.00"> </text>
<polygon fill="none" stroke="black" points="851,-147.5 851,-164.5 857,-164.5 857,-147.5 851,-147.5"/>
<text text-anchor="start" x="852" y="-152.3" font-family="Times,serif" font-size="14.00"> </text>
<polygon fill="none" stroke="black" points="857,-147.5 857,-164.5 866,-164.5 866,-147.5 857,-147.5"/>
<text text-anchor="start" x="859.5" y="-152.3" font-family="Times,serif" font-size="14.00"> </text>
<polygon fill="none" stroke="black" points="845,-130.5 845,-147.5 851,-147.5 851,-130.5 845,-130.5"/>
<text text-anchor="start" x="846" y="-135.3" font-family="Times,serif" font-size="14.00"> </text>
<polygon fill="none" stroke="black" points="851,-130.5 851,-147.5 857,-147.5 857,-130.5 851,-130.5"/>
<text text-anchor="start" x="852" y="-135.3" font-family="Times,serif" font-size="14.00"> </text>
<polygon fill="none" stroke="black" points="857,-130.5 857,-147.5 866,-147.5 866,-130.5 857,-130.5"/>
<text text-anchor="start" x="859.5" y="-135.3" font-family="Times,serif" font-size="14.00"> </text>
<polygon fill="none" stroke="black" points="845,-113.5 845,-130.5 851,-130.5 851,-113.5 845,-113.5"/>
<text text-anchor="start" x="846" y="-118.3" font-family="Times,serif" font-size="14.00"> </text>
<polygon fill="none" stroke="black" points="851,-113.5 851,-130.5 857,-130.5 857,-113.5 851,-113.5"/>
<text text-anchor="start" x="852" y="-118.3" font-family="Times,serif" font-size="14.00"> </text>
<polygon fill="none" stroke="black" points="857,-113.5 857,-130.5 866,-130.5 866,-113.5 857,-113.5"/>
<text text-anchor="start" x="858" y="-118.3" font-family="Times,serif" font-size="14.00">o</text>
</g>
<!-- 111111111&#45;&gt;11111111O -->
<g id="edge17" class="edge">
<title>111111111&#45;&gt;11111111O</title>
<path fill="none" stroke="black" d="M594.12,-243.56C641.82,-234.11 742.92,-210.6 819,-169 819.09,-168.95 819.18,-168.9 819.28,-168.85"/>
<polygon fill="black" stroke="black" points="821.1,-171.83 827.75,-163.58 817.41,-165.89 821.1,-171.83"/>
<text text-anchor="middle" x="782.5" y="-190.8" font-family="Times,serif" font-size="14.00">&#45;</text>
</g>
</g>
</svg>
