<?xml version="1.0" encoding="UTF-8" standalone="no"?>
<svg width="178pt" height="156pt" viewBox="0.00 0.00 178.00 156.00" xmlns="http://www.w3.org/2000/svg" xmlns:xlink="http://www.w3.org/1999/xlink">
<g transform="translate(4 152)"> 
<g style="fill:none;stroke:black">
<path d="M9,-79C16,-91 36,-125 43,-137"/>
<path d="M52,-142C66,-142 104,-142 118,-142"/>
<path d="M49,-11C61,-32 109,-116 121,-137"/>
<path d="M46,-11C46,-33 46,-115 46,-137"/>
<path d="M43,-11C36,-23 16,-57 9,-69"/>
<path d="M161,-79C154,-91 134,-125 127,-137"/>
<path d="M161,-69C154,-57 134,-23 127,-11"/>
<path d="M159,-77C140,-87 70,-128 51,-139"/>
<path d="M159,-71C140,-61 70,-20 51,-9"/>
<path d="M158,-74C134,-74 36,-74 12,-74"/>
<path d="M124,-11C124,-33 124,-115 124,-137"/>
<path d="M121,-11C109,-32 61,-116 49,-137"/>
<path d="M119,-9C100,-19 30,-60 11,-71"/>
<path d="M118,-6C104,-6 66,-6 52,-6"/>
<path d="M11,-77C30,-87 100,-128 119,-139"/>
</g>
<g style="fill:blue;stroke:black">
<circle cx="6" cy="-74" r="5.4"/>
<circle cx="46" cy="-6" r="5.4"/>
<circle cx="46" cy="-142" r="5.4"/>
<circle cx="164" cy="-74" r="5.4"/>
<circle cx="124" cy="-6" r="5.4"/>
<circle cx="124" cy="-142" r="5.4"/>
</g></g></svg>