<?xml version="1.0" encoding="UTF-8" standalone="no"?>
<!DOCTYPE svg PUBLIC "-//W3C//DTD SVG 1.1//EN" "http://www.w3.org/Graphics/SVG/1.1/DTD/svg11.dtd">
<!-- Generated by graphviz version 2.40.1 (20161225.0304)
 -->
<!-- Title: %0 Pages: 1 -->
<svg width="314pt" height="260pt" viewBox="0.00 0.00 314.00 260.00" xmlns="http://www.w3.org/2000/svg" xmlns:xlink="http://www.w3.org/1999/xlink">
<g id="graph0" class="graph" transform="scale(1 1) rotate(0) translate(4 256)">
<title>%0</title>
<polygon fill="#ffffff" stroke="transparent" points="-4,4 -4,-256 310,-256 310,4 -4,4"/>
<!-- f_4 -->
<g id="node1" class="node">
<title>f_4</title>
<ellipse fill="none" stroke="#000000" cx="207" cy="-234" rx="27" ry="18"/>
<text text-anchor="middle" x="207" y="-229.8" font-family="Times,serif" font-size="14.00" fill="#000000">f(4)</text>
</g>
<!-- f_3 -->
<g id="node2" class="node">
<title>f_3</title>
<ellipse fill="none" stroke="#000000" cx="135" cy="-162" rx="27" ry="18"/>
<text text-anchor="middle" x="135" y="-157.8" font-family="Times,serif" font-size="14.00" fill="#000000">f(3)</text>
</g>
<!-- f_4&#45;&gt;f_3 -->
<g id="edge3" class="edge">
<title>f_4-&gt;f_3</title>
<path fill="none" stroke="#000000" d="M191.7307,-218.7307C181.803,-208.803 168.6847,-195.6847 157.5637,-184.5637"/>
<polygon fill="#000000" stroke="#000000" points="159.7933,-181.8436 150.2473,-177.2473 154.8436,-186.7933 159.7933,-181.8436"/>
</g>
<!-- f_4_1 -->
<g id="node4" class="node">
<title>f_4_1</title>
<polygon fill="#ffff00" stroke="#000000" points="234,-180 180,-180 180,-144 234,-144 234,-180"/>
<text text-anchor="middle" x="207" y="-157.8" font-family="Times,serif" font-size="14.00" fill="#000000">Case 1</text>
</g>
<!-- f_4&#45;&gt;f_4_1 -->
<g id="edge1" class="edge">
<title>f_4-&gt;f_4_1</title>
<path fill="none" stroke="#000000" d="M207,-215.8314C207,-208.131 207,-198.9743 207,-190.4166"/>
<polygon fill="#000000" stroke="#000000" points="210.5001,-190.4132 207,-180.4133 203.5001,-190.4133 210.5001,-190.4132"/>
</g>
<!-- f_4_2 -->
<g id="node5" class="node">
<title>f_4_2</title>
<polygon fill="#ff0000" stroke="#000000" points="306,-180 252,-180 252,-144 306,-144 306,-180"/>
<text text-anchor="middle" x="279" y="-157.8" font-family="Times,serif" font-size="14.00" fill="#000000">Case 2</text>
</g>
<!-- f_4&#45;&gt;f_4_2 -->
<g id="edge2" class="edge">
<title>f_4-&gt;f_4_2</title>
<path fill="none" stroke="#000000" d="M222.2693,-218.7307C231.3708,-209.6292 243.1539,-197.8461 253.6212,-187.3788"/>
<polygon fill="#000000" stroke="#000000" points="256.3571,-189.5927 260.9533,-180.0467 251.4073,-184.6429 256.3571,-189.5927"/>
</g>
<!-- f_2 -->
<g id="node3" class="node">
<title>f_2</title>
<ellipse fill="none" stroke="#000000" cx="63" cy="-90" rx="27" ry="18"/>
<text text-anchor="middle" x="63" y="-85.8" font-family="Times,serif" font-size="14.00" fill="#000000">f(2)</text>
</g>
<!-- f_3&#45;&gt;f_2 -->
<g id="edge6" class="edge">
<title>f_3-&gt;f_2</title>
<path fill="none" stroke="#000000" d="M119.7307,-146.7307C109.803,-136.803 96.6847,-123.6847 85.5637,-112.5637"/>
<polygon fill="#000000" stroke="#000000" points="87.7933,-109.8436 78.2473,-105.2473 82.8436,-114.7933 87.7933,-109.8436"/>
</g>
<!-- f_3_1 -->
<g id="node6" class="node">
<title>f_3_1</title>
<polygon fill="#ffff00" stroke="#000000" points="162,-108 108,-108 108,-72 162,-72 162,-108"/>
<text text-anchor="middle" x="135" y="-85.8" font-family="Times,serif" font-size="14.00" fill="#000000">Case 1</text>
</g>
<!-- f_3&#45;&gt;f_3_1 -->
<g id="edge4" class="edge">
<title>f_3-&gt;f_3_1</title>
<path fill="none" stroke="#000000" d="M135,-143.8314C135,-136.131 135,-126.9743 135,-118.4166"/>
<polygon fill="#000000" stroke="#000000" points="138.5001,-118.4132 135,-108.4133 131.5001,-118.4133 138.5001,-118.4132"/>
</g>
<!-- f_3_2 -->
<g id="node7" class="node">
<title>f_3_2</title>
<polygon fill="#ff0000" stroke="#000000" points="234,-108 180,-108 180,-72 234,-72 234,-108"/>
<text text-anchor="middle" x="207" y="-85.8" font-family="Times,serif" font-size="14.00" fill="#000000">Case 2</text>
</g>
<!-- f_3&#45;&gt;f_3_2 -->
<g id="edge5" class="edge">
<title>f_3-&gt;f_3_2</title>
<path fill="none" stroke="#000000" d="M150.2693,-146.7307C159.3708,-137.6292 171.1539,-125.8461 181.6212,-115.3788"/>
<polygon fill="#000000" stroke="#000000" points="184.3571,-117.5927 188.9533,-108.0467 179.4073,-112.6429 184.3571,-117.5927"/>
</g>
<!-- f_2_1 -->
<g id="node8" class="node">
<title>f_2_1</title>
<polygon fill="#ffff00" stroke="#000000" points="54,-36 0,-36 0,0 54,0 54,-36"/>
<text text-anchor="middle" x="27" y="-13.8" font-family="Times,serif" font-size="14.00" fill="#000000">Case 1</text>
</g>
<!-- f_2&#45;&gt;f_2_1 -->
<g id="edge7" class="edge">
<title>f_2-&gt;f_2_1</title>
<path fill="none" stroke="#000000" d="M54.2854,-72.5708C50.1772,-64.3544 45.1804,-54.3608 40.5911,-45.1821"/>
<polygon fill="#000000" stroke="#000000" points="43.613,-43.3996 36.0103,-36.0206 37.352,-46.5301 43.613,-43.3996"/>
</g>
<!-- f_2_2 -->
<g id="node9" class="node">
<title>f_2_2</title>
<polygon fill="#ff0000" stroke="#000000" points="126,-36 72,-36 72,0 126,0 126,-36"/>
<text text-anchor="middle" x="99" y="-13.8" font-family="Times,serif" font-size="14.00" fill="#000000">Case 2</text>
</g>
<!-- f_2&#45;&gt;f_2_2 -->
<g id="edge8" class="edge">
<title>f_2-&gt;f_2_2</title>
<path fill="none" stroke="#000000" d="M71.7146,-72.5708C75.8228,-64.3544 80.8196,-54.3608 85.4089,-45.1821"/>
<polygon fill="#000000" stroke="#000000" points="88.648,-46.5301 89.9897,-36.0206 82.387,-43.3996 88.648,-46.5301"/>
</g>
</g>
</svg>