<svg width="119pt" height="310pt"
 viewBox="0.00 0.00 119.00 310.40" xmlns="http://www.w3.org/2000/svg" xmlns:xlink="http://www.w3.org/1999/xlink">
<g id="graph0" class="graph" transform="scale(1 1) rotate(0) translate(4 306.4)">
<title>G</title>
<polygon fill="#ffffff" stroke="transparent" points="-4,4 -4,-306.4 115,-306.4 115,4 -4,4"/>
<!-- 0 -->
<g id="node1" class="node">
<title>0</title>
<ellipse fill="none" stroke="#000000" cx="74" cy="-284.4" rx="27" ry="18"/>
<text text-anchor="middle" x="74" y="-280.2" font-family="Times,serif" font-size="14.00" fill="#000000">0</text>
</g>
<!-- 1 -->
<g id="node2" class="node">
<title>1</title>
<ellipse fill="none" stroke="#000000" cx="27" cy="-195.6" rx="27" ry="18"/>
<text text-anchor="middle" x="27" y="-191.4" font-family="Times,serif" font-size="14.00" fill="#000000">1</text>
</g>
<!-- 0&#45;&gt;1 -->
<g id="edge1" class="edge">
<title>0&#45;&gt;1</title>
<path fill="none" stroke="#000000" d="M64.9379,-267.2785C58.1108,-254.3795 48.6292,-236.4655 40.853,-221.7734"/>
<polygon fill="#000000" stroke="#000000" points="43.8057,-219.87 36.0343,-212.669 37.6188,-223.1447 43.8057,-219.87"/>
<text text-anchor="middle" x="58.5" y="-235.8" font-family="Times,serif" font-size="14.00" fill="#000000">2</text>
</g>
<!-- 2 -->
<g id="node3" class="node">
<title>2</title>
<ellipse fill="none" stroke="#000000" cx="84" cy="-106.8" rx="27" ry="18"/>
<text text-anchor="middle" x="84" y="-102.6" font-family="Times,serif" font-size="14.00" fill="#000000">2</text>
</g>
<!-- 1&#45;&gt;2 -->
<g id="edge2" class="edge">
<title>1&#45;&gt;2</title>
<path fill="none" stroke="#000000" d="M37.7213,-178.8974C46.1604,-165.7501 58.0624,-147.208 67.6829,-132.2203"/>
<polygon fill="#000000" stroke="#000000" points="70.8704,-133.7339 73.3268,-123.4277 64.9795,-129.9525 70.8704,-133.7339"/>
<text text-anchor="middle" x="64.5" y="-147" font-family="Times,serif" font-size="14.00" fill="#000000">3</text>
</g>
<!-- 3 -->
<g id="node4" class="node">
<title>3</title>
<ellipse fill="none" stroke="#000000" cx="60" cy="-18" rx="27" ry="18"/>
<text text-anchor="middle" x="60" y="-13.8" font-family="Times,serif" font-size="14.00" fill="#000000">3</text>
</g>
<!-- 1&#45;&gt;3 -->
<g id="edge4" class="edge">
<title>1&#45;&gt;3</title>
<path fill="none" stroke="#000000" d="M28.6538,-177.3395C30.7588,-155.9791 34.8736,-119.6134 41,-88.8 43.8591,-74.42 47.9926,-58.6446 51.6746,-45.6418"/>
<polygon fill="#000000" stroke="#000000" points="55.0794,-46.4667 54.4977,-35.8878 48.3554,-44.5205 55.0794,-46.4667"/>
<text text-anchor="middle" x="44.5" y="-102.6" font-family="Times,serif" font-size="14.00" fill="#000000">9</text>
</g>
<!-- 2&#45;&gt;0 -->
<g id="edge5" class="edge">
<title>2&#45;&gt;0</title>
<path fill="none" stroke="#000000" d="M82.9834,-124.8543C81.2371,-155.8691 77.6555,-219.4781 75.581,-256.322"/>
<polygon fill="#000000" stroke="#000000" points="72.0817,-256.2124 75.0139,-266.3934 79.0706,-256.606 72.0817,-256.2124"/>
<text text-anchor="middle" x="82.5" y="-191.4" font-family="Times,serif" font-size="14.00" fill="#000000">1</text>
</g>
<!-- 2&#45;&gt;3 -->
<g id="edge3" class="edge">
<title>2&#45;&gt;3</title>
<path fill="none" stroke="#000000" d="M79.1432,-88.83C75.7926,-76.4327 71.2738,-59.713 67.4679,-45.6312"/>
<polygon fill="#000000" stroke="#000000" points="70.8375,-44.6837 64.8495,-35.9433 64.0799,-46.5101 70.8375,-44.6837"/>
<text text-anchor="middle" x="77.5" y="-58.2" font-family="Times,serif" font-size="14.00" fill="#000000">6</text>
</g>
<!-- 3&#45;&gt;2 -->
<g id="edge6" class="edge">
<title>3&#45;&gt;2</title>
<path fill="none" stroke="#000000" d="M58.9552,-36.4489C58.8863,-46.7586 59.6652,-59.7225 63,-70.8 64.0859,-74.4071 65.5987,-78.0361 67.3198,-81.5287"/>
<polygon fill="#000000" stroke="#000000" points="64.3002,-83.3005 72.2121,-90.347 70.4213,-79.9046 64.3002,-83.3005"/>
<text text-anchor="middle" x="66.5" y="-58.2" font-family="Times,serif" font-size="14.00" fill="#000000">4</text>
</g>
</g>
</svg>

